<svg width="147" height="333" viewBox="0 0 147 333" fill="none" xmlns="http://www.w3.org/2000/svg">
    <path d="M69.8855 218.107C71.0961 223.962 71.2426 241.536 70.384 263.766C69.6176 283.61 68.1597 304.122 66.9293 312.74C66.3438 316.84 69.1933 320.639 73.2939 321.225C77.3944 321.81 81.1932 318.961 81.7787 314.86C83.0994 305.61 84.5881 284.666 85.3729 264.345C86.2865 240.69 86.1358 222.619 84.5748 215.07C83.736 211.014 79.7677 208.405 75.7114 209.244C71.6551 210.083 69.0467 214.051 69.8855 218.107Z" fill="#F6DDD6"/>
    <path d="M38.5942 213.552C36.9907 221.307 35.7927 241.044 35.4968 262.45C35.177 285.578 35.9569 305.057 37.9098 314.111C38.7831 318.16 42.7735 320.735 46.8225 319.861C50.8716 318.988 53.4459 314.998 52.5726 310.949C50.943 303.393 50.1916 284.626 50.4953 262.657C50.778 242.208 51.9381 223.095 53.2834 216.59C54.1222 212.533 51.5139 208.565 47.4576 207.726C43.4012 206.887 39.433 209.496 38.5942 213.552Z" fill="#F6DDD6"/>
    <path d="M16.8062 279.75L29.3062 182.75H43.3062C47.3062 213.75 44.0062 283.55 38.8062 284.75C33.6062 285.95 18.4728 282.418 16.8062 279.75Z" fill="#BF7E68"/>
    <path d="M108.332 279.75L95.8324 182.75H81.8324C77.8324 213.75 81.1324 283.55 86.3324 284.75C91.5324 285.95 106.666 282.418 108.332 279.75Z" fill="#BF7E68"/>
    <path d="M33.1405 290.25C36.3905 292.75 61.9123 295.418 63.579 292.75V240.75L59.3905 189H38.6053C34.6053 220 29.8905 287.75 33.1405 290.25Z" fill="#C99584"/>
    <path d="M60.1057 289.907C66.4937 291.905 74.6702 291.655 92.5562 289.907C92.5562 289.907 89.2112 264.692 87.7014 236.235C86.1914 207.777 84.3797 183.063 84.3797 183.063L57.8062 186.558C60.1057 221.007 61.6389 240.229 60.1057 289.907Z" fill="#D79D8A"/>
    <mask id="mask0_6_3951" style="mask-type:luminance" maskUnits="userSpaceOnUse" x="17" y="182" width="92" height="112">
        <path fill-rule="evenodd" clip-rule="evenodd" d="M29.5562 182.75L17.0562 279.75C18.2285 281.625 26.0642 283.93 32.4187 284.715C32.5712 287.887 32.8842 289.86 33.3904 290.25C36.6404 292.75 62.1622 295.418 63.8289 292.75V290.738C69.8237 291.775 77.9784 291.355 92.8062 289.908C92.8062 289.908 92.5627 288.07 92.1772 284.83C98.6844 284.188 107.345 281.73 108.582 279.75L96.0824 182.75H82.0824C82.0544 182.968 82.0266 183.187 81.9992 183.409L58.0562 186.558C58.1112 187.38 58.1657 188.194 58.2197 189H44.2227C44.0282 186.782 43.8064 184.69 43.5562 182.75H29.5562Z" fill="white"/>
    </mask>
    <g mask="url(#mask0_6_3951)">
        <path fill-rule="evenodd" clip-rule="evenodd" d="M39.2841 170.908L33.8208 296.038L37.2126 296.188L42.6758 171.056L39.2841 170.908ZM45.389 171.098L39.9258 296.23L45.0943 296.455L50.5575 171.324L45.389 171.098Z" fill="#C57B5C"/>
        <rect x="20.9961" y="296.043" width="125.25" height="3.46318" transform="rotate(-84 20.9961 296.043)" fill="#AC6C57"/>
        <path fill-rule="evenodd" clip-rule="evenodd" d="M52.9858 172.51L54.0788 297.755L55.8571 297.74L54.7641 172.495L52.9858 172.51ZM59.2001 297.733L58.1071 172.488L61.5021 172.458L62.5951 297.703L59.2001 297.733ZM65.9381 297.695L64.8451 172.449L70.0181 172.404L71.1111 297.65L65.9381 297.695Z" fill="#C57B5C"/>
        <path fill-rule="evenodd" clip-rule="evenodd" d="M73.499 171.922L82.236 296.868L84.01 296.743L75.273 171.798L73.499 171.922ZM78.827 171.695L87.564 296.64L90.9508 296.403L82.2138 171.458L78.827 171.695Z" fill="#C57B5C"/>
        <rect x="99.2266" y="296.3" width="125.25" height="3.395" transform="rotate(-96 99.2266 296.3)" fill="#AC6C57"/>
    </g>
    <path d="M109.847 327.25C109.847 319.575 104.915 318.638 96.878 316.008C92.9412 314.72 88.9235 313.598 84.847 312.923C82.2852 312.498 81.597 314.75 77.097 314.75C73.084 314.75 68.0775 312.763 67.041 312.333C66.9107 312.278 66.7567 312.23 66.6532 312.325C66.6282 312.348 66.607 312.378 66.5915 312.408C66.1122 313.393 63.597 318.763 63.597 323.06C63.597 326.348 63.3155 329.58 64.222 331.25C64.631 332.003 67.1847 332.415 68.0425 332.415H108.456C109.224 332.415 109.847 328.018 109.847 327.25Z" fill="#D0D4DB"/>
    <mask id="mask1_6_3951" style="mask-type:luminance" maskUnits="userSpaceOnUse" x="63" y="312" width="47" height="21">
        <path d="M109.847 327.25C109.847 319.575 104.915 318.638 96.878 316.008C92.9412 314.72 88.9235 313.598 84.847 312.923C82.2852 312.498 81.597 314.75 77.097 314.75C73.084 314.75 68.0775 312.763 67.041 312.333C66.9107 312.278 66.7567 312.23 66.6532 312.325C66.6282 312.348 66.607 312.378 66.5915 312.408C66.1122 313.393 63.597 318.763 63.597 323.06C63.597 326.348 63.3155 329.58 64.222 331.25C64.631 332.003 67.1847 332.415 68.0425 332.415H108.456C109.224 332.415 109.847 328.018 109.847 327.25Z" fill="white"/>
    </mask>
    <g mask="url(#mask1_6_3951)">
        <path d="M84.9394 317.76C84.8929 317.145 84.1691 316.847 83.7029 317.247L81.0546 319.52C80.8689 319.68 80.6166 319.74 80.3791 319.677L76.9626 318.8C76.3554 318.642 75.8356 319.257 76.0904 319.83L77.4924 322.985C77.5944 323.215 77.5746 323.482 77.4396 323.692L75.5979 326.587C75.2651 327.11 75.6739 327.787 76.2914 327.737L79.8304 327.45C80.0711 327.43 80.3064 327.527 80.4626 327.712L82.7621 330.417C83.1631 330.89 83.9314 330.7 84.0656 330.095L84.8096 326.745C84.8641 326.5 85.0379 326.3 85.2724 326.207L88.4956 324.967C89.0809 324.742 89.1476 323.942 88.6076 323.622L85.5701 321.827C85.3591 321.705 85.2221 321.485 85.2036 321.24L84.9394 317.76Z" fill="#E4E9F1"/>
        <path d="M72.972 313.75C69.972 313.55 67.472 311.918 66.472 311C65.472 312 62.997 314.75 63.597 315.75C64.347 317 70.097 318 72.597 318C75.097 318 76.722 314 72.972 313.75Z" fill="#AEB5C0"/>
        <path d="M104.811 318.755C108.048 316.925 106.778 320.55 109.687 322.09L115.847 333.897H66.8257C65.628 332.185 59.941 327.625 63.5967 327.625C71.5967 327.625 82.8467 328.875 87.7217 329.125C92.3425 329.362 106.373 329.73 105.597 325.625C104.698 320.877 101.859 320.422 104.811 318.755Z" fill="#AEB5C0"/>
    </g>
    <path d="M86.4116 317.102C85.9609 317.69 86.5205 318.513 87.2335 318.311L92.6836 316.761L91.4813 317.953C91.1794 318.253 91.1775 318.74 91.477 319.042C91.7765 319.344 92.264 319.346 92.5659 319.047L95.8894 315.749C96.4542 315.189 95.9017 314.244 95.1365 314.462L89.0466 316.194L90.5406 314.243C90.9794 313.67 90.4599 312.863 89.7567 313.025L84.2961 314.281C84.375 314.23 84.4578 314.178 84.5447 314.125C84.7846 313.979 85.6272 313.501 85.7803 313.408C86.1436 313.187 86.2589 312.713 86.0379 312.35C85.8169 311.987 85.3433 311.871 84.98 312.092C84.8533 312.169 84.0106 312.648 83.7442 312.81C82.3404 313.664 81.5771 314.439 81.5771 315.52C81.5771 316.015 82.0374 316.381 82.5198 316.27L88.0174 315.005L86.4116 317.102Z" fill="#AEB5C0"/>
    <path fill-rule="evenodd" clip-rule="evenodd" d="M83.2893 310.471C83.2954 310.142 83.2979 309.947 83.2979 309.728C83.2979 307.447 84.7896 305.75 86.7626 305.75C87.7238 305.75 88.5066 306.151 89.0468 306.889C89.5654 307.596 89.8426 308.588 89.8426 309.728C89.8426 310.78 89.2169 311.727 88.1486 312.438C87.2021 313.069 85.9862 313.448 84.9661 313.448C84.4769 313.448 84.1176 313.36 83.8638 313.182C83.6286 313.017 83.4765 312.776 83.3878 312.438C83.3106 312.143 83.2809 311.784 83.2794 311.265C83.2788 311.079 83.2806 310.948 83.2879 310.563L83.288 310.538L83.2893 310.471ZM84.8277 310.577C84.8205 310.964 84.8187 311.09 84.8193 311.261C84.8201 311.549 84.8311 311.758 84.8508 311.905C84.8851 311.907 84.9235 311.908 84.9661 311.908C85.6779 311.908 86.5978 311.621 87.2951 311.157C87.9697 310.708 88.3027 310.204 88.3027 309.728C88.3027 308.896 88.1143 308.222 87.8048 307.8C87.5525 307.455 87.2304 307.29 86.7626 307.29C85.6873 307.29 84.8378 308.256 84.8378 309.728C84.8378 309.959 84.8352 310.162 84.829 310.5L84.8278 310.553L84.8277 310.577Z" fill="#AEB5C0"/>
    <path fill-rule="evenodd" clip-rule="evenodd" d="M83.7042 313.242L83.7023 313.241C83.7663 313.135 83.7701 313.128 83.7896 313.072C83.8089 313.035 83.8132 313.013 83.8174 312.978C83.8191 312.971 83.8202 312.965 83.8218 312.956L83.8294 312.912C83.8436 312.81 83.8411 312.699 83.8214 312.576C83.785 312.353 83.6978 312.103 83.545 311.757C83.5147 311.688 83.4821 311.616 83.439 311.523L83.326 311.279L83.327 311.282C83.1618 310.928 83.1411 310.884 83.074 310.732L83.0736 310.732C82.3918 309.201 80.8718 308.517 79.535 309.112C78.8827 309.403 78.4713 309.909 78.3242 310.567C78.1828 311.195 78.2907 311.943 78.6311 312.71C78.9451 313.414 79.6519 313.859 80.5897 314.012C81.4193 314.149 82.3577 314.036 83.0503 313.729C83.3755 313.584 83.583 313.424 83.7042 313.242ZM79.8267 310.904C79.8683 310.718 79.9566 310.61 80.1618 310.518C80.683 310.286 81.3161 310.571 81.6668 311.358C81.7395 311.521 81.7616 311.569 81.9261 311.921C81.9426 311.957 81.9772 312.031 82.0046 312.09C82.0215 312.127 82.0357 312.157 82.0414 312.17C82.0808 312.255 82.1098 312.319 82.1359 312.378L82.1536 312.418C81.7625 312.529 81.2702 312.564 80.8394 312.493C80.3695 312.416 80.1145 312.255 80.038 312.084C79.8241 311.602 79.7638 311.184 79.8267 310.904Z" fill="#AEB5C0"/>
    <path d="M10.2648 327.25C10.2648 319.575 15.1963 318.638 23.2338 316.008C27.1706 314.72 31.1883 313.598 35.2648 312.923C37.8266 312.498 38.5148 314.75 43.0148 314.75C47.0278 314.75 52.0343 312.763 53.0708 312.333C53.2011 312.278 53.3551 312.23 53.4586 312.325C53.4836 312.348 53.5048 312.378 53.5203 312.408C53.9996 313.393 56.5148 318.763 56.5148 323.06C56.5148 326.348 56.7963 329.58 55.8898 331.25C55.4808 332.003 52.9271 332.415 52.0693 332.415H11.6553C10.8873 332.415 10.2648 328.018 10.2648 327.25Z" fill="#D0D4DB"/>
    <mask id="mask2_6_3951" style="mask-type:luminance" maskUnits="userSpaceOnUse" x="10" y="312" width="47" height="21">
        <path d="M10.2648 327.25C10.2648 319.575 15.1963 318.638 23.2338 316.008C27.1706 314.72 31.1883 313.598 35.2648 312.923C37.8266 312.498 38.5148 314.75 43.0148 314.75C47.0278 314.75 52.0343 312.763 53.0708 312.333C53.2011 312.278 53.3551 312.23 53.4586 312.325C53.4836 312.348 53.5048 312.378 53.5203 312.408C53.9996 313.393 56.5148 318.763 56.5148 323.06C56.5148 326.348 56.7963 329.58 55.8898 331.25C55.4808 332.003 52.9271 332.415 52.0693 332.415H11.6553C10.8873 332.415 10.2648 328.018 10.2648 327.25Z" fill="white"/>
    </mask>
    <g mask="url(#mask2_6_3951)">
        <path d="M35.1724 317.76C35.2189 317.145 35.9427 316.847 36.4089 317.247L39.0572 319.52C39.2429 319.68 39.4952 319.74 39.7327 319.677L43.1492 318.8C43.7564 318.642 44.2762 319.257 44.0214 319.83L42.6194 322.985C42.5174 323.215 42.5372 323.482 42.6722 323.692L44.5139 326.587C44.8467 327.11 44.4379 327.787 43.8204 327.737L40.2814 327.45C40.0407 327.43 39.8054 327.527 39.6492 327.712L37.3497 330.417C36.9487 330.89 36.1804 330.7 36.0462 330.095L35.3022 326.745C35.2477 326.5 35.0739 326.3 34.8394 326.207L31.6162 324.967C31.0309 324.742 30.9642 323.942 31.5042 323.622L34.5417 321.827C34.7527 321.705 34.8897 321.485 34.9082 321.24L35.1724 317.76Z" fill="#E4E9F1"/>
        <path d="M47.1399 313.75C50.1399 313.55 52.6399 311.918 53.6399 311C54.6399 312 57.1149 314.75 56.5149 315.75C55.7649 317 50.0149 318 47.5149 318C45.0149 318 43.3899 314 47.1399 313.75Z" fill="#AEB5C0"/>
        <path d="M15.3006 318.755C12.0636 316.925 13.3331 320.55 10.4243 322.09L4.26458 333.897H53.2856C54.4833 332.185 60.1703 327.625 56.5146 327.625C48.5146 327.625 37.2646 328.875 32.3896 329.125C27.7688 329.362 13.7378 329.73 14.5146 325.625C15.4128 320.877 18.2523 320.422 15.3006 318.755Z" fill="#AEB5C0"/>
    </g>
    <path d="M33.7002 317.102C34.151 317.69 33.5913 318.513 32.8783 318.311L27.4282 316.761L28.6305 317.953C28.9324 318.253 28.9343 318.74 28.6348 319.042C28.3353 319.344 27.8478 319.346 27.5459 319.047L24.2224 315.749C23.6576 315.189 24.2101 314.244 24.9753 314.462L31.0652 316.194L29.5712 314.243C29.1324 313.67 29.652 312.863 30.3551 313.025L35.8158 314.281C35.7369 314.23 35.654 314.178 35.5671 314.125C35.3272 313.979 34.4846 313.501 34.3316 313.408C33.9683 313.187 33.8529 312.713 34.0739 312.35C34.2949 311.987 34.7686 311.871 35.1319 312.092C35.2585 312.169 36.1012 312.648 36.3676 312.81C37.7714 313.664 38.5347 314.439 38.5347 315.52C38.5347 316.015 38.0744 316.381 37.592 316.27L32.0944 315.005L33.7002 317.102Z" fill="#AEB5C0"/>
    <path fill-rule="evenodd" clip-rule="evenodd" d="M36.8225 310.471C36.8164 310.142 36.8139 309.947 36.8139 309.728C36.8139 307.447 35.3223 305.75 33.3492 305.75C32.388 305.75 31.6052 306.151 31.065 306.889C30.5464 307.596 30.2692 308.588 30.2692 309.728C30.2692 310.78 30.8949 311.727 31.9632 312.438C32.9098 313.069 34.1256 313.448 35.1457 313.448C35.6349 313.448 35.9942 313.36 36.248 313.182C36.4832 313.017 36.6354 312.776 36.7241 312.438C36.8012 312.143 36.8309 311.784 36.8324 311.265C36.833 311.079 36.8312 310.948 36.8239 310.563L36.8238 310.538L36.8225 310.471ZM35.2841 310.577C35.2913 310.964 35.2931 311.09 35.2925 311.261C35.2917 311.549 35.2807 311.758 35.261 311.905C35.2268 311.907 35.1883 311.908 35.1457 311.908C34.4339 311.908 33.514 311.621 32.8167 311.157C32.1421 310.708 31.8092 310.204 31.8092 309.728C31.8092 308.896 31.9975 308.222 32.3071 307.8C32.5593 307.455 32.8814 307.29 33.3492 307.29C34.4245 307.29 35.274 308.256 35.274 309.728C35.274 309.959 35.2766 310.162 35.2829 310.5L35.284 310.553L35.2841 310.577Z" fill="#AEB5C0"/>
    <path fill-rule="evenodd" clip-rule="evenodd" d="M36.4076 313.242L36.4096 313.241C36.3455 313.135 36.3417 313.128 36.3222 313.072C36.3029 313.035 36.2987 313.013 36.2945 312.978C36.2927 312.971 36.2916 312.965 36.29 312.956L36.2825 312.912C36.2682 312.81 36.2707 312.699 36.2904 312.576C36.3268 312.353 36.4141 312.103 36.5668 311.757C36.5971 311.688 36.6297 311.616 36.6728 311.523L36.7858 311.279L36.7848 311.282C36.9501 310.928 36.9707 310.884 37.0378 310.732L37.0382 310.732C37.72 309.201 39.24 308.517 40.5768 309.112C41.2291 309.403 41.6405 309.909 41.7876 310.567C41.929 311.195 41.8211 311.943 41.4807 312.71C41.1667 313.414 40.4599 313.859 39.5221 314.012C38.6925 314.149 37.7541 314.036 37.0615 313.729C36.7363 313.584 36.5289 313.424 36.4076 313.242ZM40.2851 310.904C40.2435 310.718 40.1552 310.61 39.95 310.518C39.4288 310.286 38.7957 310.571 38.445 311.358C38.3723 311.521 38.3502 311.569 38.1857 311.921C38.1692 311.957 38.1347 312.031 38.1072 312.09C38.0903 312.127 38.0761 312.157 38.0704 312.17C38.031 312.255 38.002 312.319 37.9759 312.378L37.9582 312.418C38.3494 312.529 38.8416 312.564 39.2724 312.493C39.7423 312.416 39.9973 312.255 40.0739 312.084C40.2877 311.602 40.348 311.184 40.2851 310.904Z" fill="#AEB5C0"/>
    <rect x="28.3052" y="95.7687" width="76.0302" height="36.5145" rx="18.2572" transform="rotate(-7.99571 28.3052 95.7687)" fill="#61401B"/>
    <path d="M74.5562 132.937L93.8062 117.187" stroke="#9DB7C9" stroke-width="2.75"/>
    <path d="M11.5559 133C11.5559 136.292 11.6234 134.917 10.7658 150.733C9.97957 165.232 9.72512 175.235 10.1293 185.763C10.7102 200.89 12.7065 213.682 16.6384 224.231C18.4226 229.018 23.7495 231.452 28.5365 229.668C33.3234 227.883 35.7576 222.556 33.9734 217.769C30.8417 209.367 29.1276 198.385 28.6157 185.053C28.2387 175.233 28.4811 165.706 29.2386 151.735C29.2827 150.922 29.3277 150.104 29.3879 149.019C29.405 148.71 29.4699 147.542 29.4614 147.696C29.4907 147.168 29.5123 146.778 29.5333 146.398C29.6475 144.329 29.7256 142.859 29.7937 141.472C29.9689 137.9 30.0559 135.245 30.0559 133C30.0559 127.891 25.9146 123.75 20.8059 123.75C15.6973 123.75 11.5559 127.891 11.5559 133Z" fill="#F6DDD6"/>
    <path d="M81.1812 131.5C81.1812 139.076 85.3442 145.764 91.8905 150.523C97.521 154.616 104.728 157.112 111.894 157.411C120.111 157.754 127.884 155.233 133.717 149.692C140.115 143.613 143.431 134.641 143.431 123.5C143.431 118.046 139.01 113.625 133.556 113.625C128.102 113.625 123.681 118.046 123.681 123.5C123.681 129.545 122.292 133.304 120.114 135.373C118.416 136.986 115.875 137.81 112.718 137.679C109.428 137.541 105.977 136.346 103.503 134.547C102.461 133.79 101.702 133.003 101.266 132.302C101.114 132.059 101.019 131.853 100.968 131.688C100.94 131.598 100.931 131.541 100.931 131.5C100.931 126.046 96.51 121.625 91.0562 121.625C85.6023 121.625 81.1812 126.046 81.1812 131.5Z" fill="#F6DDD6"/>
    <path d="M28.8059 167.875L42.0559 128.937L48.0559 110.687L59.3059 113.187L80.3059 110.687L104.556 172C104.556 172 104.556 174.625 102.931 176C101.306 177.375 95.5559 187.25 95.5559 187.25C95.5559 187.25 68.5559 191.25 62.3059 191.25C56.0559 191.25 49.8059 190 49.8059 190L37.3059 185.437C37.3059 185.437 31.1809 176.125 29.6809 174C28.1809 171.875 28.8059 167.875 28.8059 167.875Z" fill="#0A0A08"/>
    <rect x="52.3062" y="101.25" width="20.75" height="29.25" rx="10.375" fill="#DBC0B8"/>
    <path d="M47.0562 144.937L26.3062 188C26.3062 188 7.05615 184.5 0.0561523 178C0.0561523 178 5.44428 158.5 8.05618 139.937C10.6681 121.375 26.3062 115.5 26.3062 115.5L42.5562 112.437L47.0562 144.937Z" fill="#657792"/>
    <path d="M0.218025 180.148C-1.06114 175.251 3.50065 170.836 8.3536 172.273L21.2429 176.093C23.1998 176.672 24.8361 178.025 25.7738 179.838L31.2271 190.381C31.6103 191.122 31.8673 191.922 31.9873 192.748L34.9718 213.284C35.3436 215.842 33.7043 218.261 31.191 218.865L16.3281 222.433C13.6806 223.069 11.0113 221.469 10.3232 218.835L0.218025 180.148Z" fill="#657692"/>
    <path d="M22.2645 206.563L10.3894 210.673C8.25375 211.412 7.09196 213.715 7.76605 215.872C8.47138 218.129 10.9065 219.352 13.1385 218.571L24.9994 214.42C27.2181 213.643 28.3576 211.196 27.5089 209.003C26.7006 206.915 24.3804 205.83 22.2645 206.563Z" fill="#8A9BB6"/>
    <path d="M23.9312 212.5C25.2428 212.5 26.3062 211.437 26.3062 210.125C26.3062 208.813 25.2428 207.75 23.9312 207.75C22.6195 207.75 21.5562 208.813 21.5562 210.125C21.5562 211.437 22.6195 212.5 23.9312 212.5Z" fill="#2E3A4D"/>
    <path d="M27.8062 173L13.5562 164.75L10.3062 171.5L27.8062 173Z" fill="#576985"/>
    <path d="M24.3059 173.25L7.9585 175.171L10.556 180.25L24.3059 177V173.25Z" fill="#576985"/>
    <path d="M22.054 134.954C21.5103 122.994 31.0601 113 43.0323 113H47.4778C49.6686 113 51.6688 114.245 52.6366 116.21L59.0561 129.25C59.0561 129.25 56.8061 148.25 56.8061 162.5C56.8061 173.869 54.8168 196.22 54.0126 204.791C53.8526 206.496 52.0626 207.514 50.5033 206.805L22.3361 194.002C21.3494 193.554 20.7641 192.521 20.8867 191.443L23.5561 168L22.054 134.954Z" fill="#7B899F"/>
    <path d="M28.8062 157.5V144L51.5562 141.5C50.3062 147.5 50.3062 156 50.3062 160.25C33.5562 167 35.0562 165 28.8062 157.5Z" fill="#576985"/>
    <path d="M51.3062 141.5L27.8062 139.75L26.3062 145.25L35.8062 151L48.5562 146.5L51.3062 141.5Z" fill="#8A9BB6"/>
    <path d="M52.0903 207.437L21.0387 193.996C20.5303 193.776 20.2273 193.248 20.2944 192.698L21.4313 183.375L54.8063 195.25L53.8323 206.398C53.7581 207.248 52.8733 207.775 52.0903 207.437Z" fill="#576985"/>
    <path d="M60.3062 131L50.1812 108.25L39.6812 111.375L40.8062 137L60.3062 131Z" fill="#576985"/>
    <path d="M78.3447 145.187C78.3447 145.187 76.0562 188 102.056 188C128.056 188 125.056 176.5 128.056 169C128.056 169 127.766 152.813 117.055 137.5C106.345 122.187 99.0947 115.75 99.0947 115.75L82.8447 112.687L78.3447 145.187Z" fill="#546277"/>
    <path d="M102.633 135.836C103.557 123.648 93.9165 113.25 81.6935 113.25H77.9227C75.732 113.25 73.7317 114.495 72.764 116.46L66.3445 129.5C66.3445 129.5 66.8445 147.25 66.3445 162.75C65.9415 175.247 69.5757 196.518 70.9992 204.293C71.2815 205.835 72.9025 206.709 74.357 206.125L100.41 195.661C101.396 195.265 102.023 194.289 101.975 193.228L100.594 162.75L102.633 135.836Z" fill="#7B899F"/>
    <path d="M96.8442 157.5V144L74.0942 141.5C75.3442 147.5 75.3442 156 75.3442 160.25C92.0942 167 90.5942 165 96.8442 157.5Z" fill="#576985"/>
    <path d="M74.3442 141.5L97.8442 139.75L99.3442 145.25L89.8442 151L77.0942 146.5L74.3442 141.5Z" fill="#8A9BB6"/>
    <path d="M72.7407 207.443L101.715 196.201C102.217 196.007 102.538 195.512 102.511 194.974L102.056 185.75L69.3057 195.875L71.0552 206.481C71.1844 207.264 72.0009 207.73 72.7407 207.443Z" fill="#576985"/>
    <path d="M65.0942 131.25L75.2192 108.5L85.7192 111.625L84.5942 137.25L65.0942 131.25Z" fill="#576985"/>
    <path d="M114.552 186.589C110.903 187.141 108.276 183.498 106.245 180.415C102.676 174.997 101.142 170.715 101.306 165.358C101.53 158.081 105.352 151.497 109.499 145.514L109.951 144.862L123.724 127.69C125.341 125.673 128.228 125.222 130.384 126.649L143.829 135.548C145.803 136.854 146.59 139.366 145.715 141.566L142.001 150.898C141.804 151.395 141.554 151.869 141.255 152.312L131.247 170.5C128.889 174.005 121.381 185.558 114.552 186.589Z" fill="#657692"/>
    <path d="M118.644 137.684L129.134 144.603C131.021 145.847 133.555 145.368 134.856 143.52C136.217 141.586 135.705 138.909 133.727 137.614L123.213 130.731C121.246 129.444 118.61 130.03 117.388 132.038C116.223 133.95 116.775 136.452 118.644 137.684Z" fill="#8A9BB6"/>
    <path d="M70.9312 152C72.2428 152 73.3062 150.937 73.3062 149.625C73.3062 148.313 72.2428 147.25 70.9312 147.25C69.6195 147.25 68.5562 148.313 68.5562 149.625C68.5562 150.937 69.6195 152 70.9312 152Z" fill="#2E3A4D"/>
    <path d="M70.9312 169.5C72.2428 169.5 73.3062 168.437 73.3062 167.125C73.3062 165.813 72.2428 164.75 70.9312 164.75C69.6195 164.75 68.5562 165.813 68.5562 167.125C68.5562 168.437 69.6195 169.5 70.9312 169.5Z" fill="#2E3A4D"/>
    <path d="M72.9312 185.5C74.2428 185.5 75.3062 184.437 75.3062 183.125C75.3062 181.813 74.2428 180.75 72.9312 180.75C71.6195 180.75 70.5562 181.813 70.5562 183.125C70.5562 184.437 71.6195 185.5 72.9312 185.5Z" fill="#2E3A4D"/>
    <path d="M75.6812 202.25C76.9928 202.25 78.0562 201.187 78.0562 199.875C78.0562 198.563 76.9928 197.5 75.6812 197.5C74.3695 197.5 73.3062 198.563 73.3062 199.875C73.3062 201.187 74.3695 202.25 75.6812 202.25Z" fill="#2E3A4D"/>
    <path d="M22.6826 40.7235C22.6826 20.3768 40.1191 3.88251 61.6284 3.88251C83.1376 3.88251 100.574 20.3768 100.574 40.7235L98.0741 77.3663C94.9334 101.135 78.5886 114.207 61.6284 114.207C44.6681 114.207 27.4859 98.3618 25.1826 77.3663L22.6826 40.7235Z" fill="#F6DDD6"/>
    <path fill-rule="evenodd" clip-rule="evenodd" d="M51.8062 87.5677V90.9917C51.8062 96.2512 56.0699 100.515 61.3294 100.515C66.5892 100.515 70.8529 96.2512 70.8529 90.9917V87.5677H51.8062Z" fill="#393939"/>
    <mask id="mask3_6_3951" style="mask-type:luminance" maskUnits="userSpaceOnUse" x="51" y="85" width="20" height="16">
        <path fill-rule="evenodd" clip-rule="evenodd" d="M51.9319 85.9373C51.8492 86.4425 51.8062 86.961 51.8062 87.4895V90.9918C51.8062 96.2513 56.0699 100.515 61.3294 100.515C66.5892 100.515 70.8529 96.2513 70.8529 90.9918V87.4895C70.8529 86.961 70.8097 86.4425 70.7269 85.9373H51.9319Z" fill="white"/>
    </mask>
    <g mask="url(#mask3_6_3951)">
        <path d="M61.3295 102.755C64.5013 102.755 67.0726 101.355 67.0726 99.6277C67.0726 97.9003 64.5013 96.5 61.3295 96.5C58.1577 96.5 55.5864 97.9003 55.5864 99.6277C55.5864 101.355 58.1577 102.755 61.3295 102.755Z" fill="#FF6C6C"/>
        <rect x="51.8062" y="87" width="19.0466" height="4.5" fill="white"/>
    </g>
    <path d="M41.8917 54.4721C41.9437 54.4505 42.0645 54.404 42.2454 54.3407C42.5591 54.2311 42.9161 54.1205 43.3077 54.0169C44.4216 53.7222 45.5742 53.546 46.6896 53.546C47.8005 53.546 48.9151 53.7208 49.9705 54.0125C50.34 54.1147 50.6737 54.2235 50.9642 54.3312C51.13 54.3927 51.2386 54.4373 51.2825 54.4569C52.0388 54.795 52.9259 54.456 53.264 53.6996C53.6021 52.9433 53.263 52.0562 52.5067 51.7181C52.405 51.6726 52.2362 51.6033 52.0071 51.5183C51.6391 51.3819 51.2246 51.2467 50.7699 51.121C49.4706 50.7618 48.0943 50.546 46.6896 50.546C45.2893 50.546 43.8874 50.7604 42.5405 51.1166C42.0708 51.2409 41.6398 51.3744 41.2553 51.5088C41.0173 51.5921 40.8422 51.6595 40.738 51.7029C39.9732 52.0215 39.6116 52.8997 39.9302 53.6644C40.2488 54.4291 41.127 54.7908 41.8917 54.4721Z" fill="#46413D"/>
    <path d="M71.3917 54.4721C71.4437 54.4505 71.5645 54.404 71.7454 54.3407C72.0591 54.2311 72.4161 54.1205 72.8077 54.0169C73.9216 53.7222 75.0742 53.546 76.1896 53.546C77.3005 53.546 78.4151 53.7208 79.4705 54.0125C79.84 54.1147 80.1737 54.2235 80.4642 54.3312C80.63 54.3927 80.7386 54.4373 80.7825 54.4569C81.5388 54.795 82.4259 54.456 82.764 53.6996C83.1021 52.9433 82.763 52.0562 82.0067 51.7181C81.905 51.6726 81.7362 51.6033 81.5071 51.5183C81.1391 51.3819 80.7246 51.2467 80.2699 51.121C78.9706 50.7618 77.5943 50.546 76.1896 50.546C74.7893 50.546 73.3874 50.7604 72.0405 51.1166C71.5708 51.2409 71.1398 51.3744 70.7553 51.5088C70.5173 51.5921 70.3422 51.6595 70.238 51.7029C69.4732 52.0215 69.1116 52.8997 69.4302 53.6644C69.7488 54.4291 70.627 54.7908 71.3917 54.4721Z" fill="#46413D"/>
    <path d="M41.6646 63.8756L48.3986 62.8111C49.0805 62.7034 49.5459 62.0632 49.4381 61.3813C49.3303 60.6994 48.6901 60.234 48.0082 60.3418L41.2742 61.4063C40.5924 61.5141 40.127 62.1543 40.2348 62.8362C40.3425 63.518 40.9827 63.9834 41.6646 63.8756Z" fill="black"/>
    <path d="M73.6409 62.1589L80.3749 63.2234C81.0568 63.3312 81.697 62.8658 81.8048 62.1839C81.9126 61.502 81.4472 60.8619 80.7653 60.7541L74.0313 59.6896C73.3494 59.5818 72.7092 60.0472 72.6015 60.7291C72.4937 61.411 72.9591 62.0511 73.6409 62.1589Z" fill="black"/>
    <path d="M43.9282 61.5762V68.7707C43.9282 70.4276 45.2714 71.7707 46.9282 71.7707C48.5851 71.7707 49.9282 70.4276 49.9282 68.7707V61.5762C49.9282 59.9194 48.5851 58.5762 46.9282 58.5762C45.2714 58.5762 43.9282 59.9194 43.9282 61.5762Z" fill="black"/>
    <path d="M72.3848 60.924V68.1188C72.3848 69.7756 73.7279 71.1188 75.3848 71.1188C77.0416 71.1188 78.3848 69.7756 78.3848 68.1188V60.924C78.3848 59.2672 77.0416 57.924 75.3848 57.924C73.7279 57.924 72.3848 59.2672 72.3848 60.924Z" fill="black"/>
    <path d="M58.8127 68.5673C58.73 69.1701 58.6366 69.5764 58.1938 71.355C58.0866 71.7857 58.0105 72.0982 57.9375 72.4117C57.3975 74.7314 57.2306 76.3167 57.5829 77.7858C58.1349 80.0875 59.962 81.4137 62.6557 81.4137V77.1637C62.3742 77.1637 62.1536 77.1374 61.991 77.0935C61.893 77.0671 61.8368 77.0409 61.8071 77.0194C61.7998 77.0141 61.7974 77.0115 61.7894 76.9984C61.7657 76.9598 61.7395 76.8939 61.7157 76.7947C61.5659 76.1696 61.681 75.0756 62.0768 73.3754C62.1439 73.0872 62.2155 72.7932 62.3179 72.3818C62.8095 70.4074 62.9102 69.969 63.0233 69.1447L58.8127 68.5673Z" fill="#EBBAAA"/>
    <path d="M88.0022 77.9297C87.8942 78.8065 85.8027 80.1025 83.4912 79.5185C81.1797 78.9341 79.5235 76.6911 79.6315 75.8143C79.7392 74.9372 81.9177 72.9357 84.2292 73.5197C86.5407 74.1038 88.1102 77.0526 88.0022 77.9297Z" fill="#F2CACA"/>
    <path d="M33.9686 78.9297C34.0764 79.8065 36.1679 81.1025 38.4796 80.5185C40.7911 79.9341 42.4474 77.6911 42.3394 76.8143C42.2314 75.9372 40.0531 73.9357 37.7416 74.5197C35.4299 75.1038 33.8606 78.0526 33.9686 78.9297Z" fill="#F2CACA"/>
    <path fill-rule="evenodd" clip-rule="evenodd" d="M34.5562 51.9372C36.5003 49.8571 37.9848 45.9324 39.6569 41.512C43.3601 31.7218 47.9831 19.5 60.5561 19.5C63.7337 19.5 69.9311 2.375 60.5561 0C40.0561 0 26.8062 14.5 22.3062 25.7913C13.0506 49.0158 10.8062 88.25 16.8062 115.291C17.9028 120.233 18.7721 123.897 19.5562 126.614C19.556 128.847 20.1587 131.104 21.6728 133.971C24.3559 139.051 27.5109 141.068 28.7529 141.441C28.1881 138.799 28.5913 134.227 29.7823 129.926C32.4411 134.855 35.5278 136.823 36.7529 137.191C36.1964 134.587 35.7424 130.148 35.4269 125.601C35.8915 128.025 36.8584 129.925 38.6812 132.375C38.3055 130.618 38.888 128.673 39.5376 126.503L39.5648 126.412C39.5948 126.312 39.6249 126.211 39.6551 126.11C40.0805 126.831 40.5851 127.574 41.1812 128.375C40.8055 126.618 41.388 124.673 42.0376 122.503C43.321 118.217 44.8661 113.058 39.7979 106.75C38.5827 105.238 37.762 103.025 36.7932 100.412C36.5885 99.8607 36.3773 99.2911 36.1543 98.7066C32.3808 79.0447 30.0352 56.7745 34.5562 51.9372Z" fill="#82521A"/>
    <path d="M57.2301 2.76625C55.2115 3.09485 54.5709 3.20268 53.7741 3.35492C52.616 3.57618 51.7395 3.79216 50.8742 4.07716C49.6183 4.49076 48.3888 5.04289 46.2394 6.13576C45.624 6.44865 45.3788 7.20116 45.6917 7.81654C46.0046 8.43192 46.7571 8.67714 47.3725 8.36425C49.4176 7.32441 50.5489 6.81637 51.6562 6.45169C52.4082 6.20402 53.1836 6.01297 54.2433 5.8105C55.0082 5.66434 55.6395 5.55809 57.6318 5.23377C58.3132 5.12284 58.7756 4.48055 58.6647 3.79916C58.5538 3.11778 57.9115 2.65532 57.2301 2.76625Z" fill="#AD6C21"/>
    <path d="M57.8453 7.37795C54.3415 7.6196 52.7085 8.2154 49.5234 10.1872C48.9364 10.5505 48.7551 11.3209 49.1185 11.9079C49.4819 12.4949 50.2523 12.6762 50.8393 12.3128C53.7016 10.5409 54.9562 10.0831 58.0173 9.87203C58.706 9.82453 59.2259 9.22771 59.1784 8.53899C59.1309 7.85027 58.534 7.33045 57.8453 7.37795Z" fill="#AD6C21"/>
    <path fill-rule="evenodd" clip-rule="evenodd" d="M83.2932 38.0725C84.9299 42.9088 86.4915 47.5233 89.3062 50.25C94.5095 59.5638 91.7419 86.9015 87.4221 107.551C86.7188 108.64 86.0603 109.592 85.4312 110.375C80.4912 116.523 82.9882 121.737 85.0624 126.069C86.1934 128.431 87.1987 130.53 86.8042 132.375C88.6269 129.925 89.5938 128.025 90.0584 125.601C89.7429 130.148 89.2889 134.588 88.7324 137.191C89.9654 136.82 93.0834 134.83 95.7538 129.832C96.9651 134.16 97.3782 138.779 96.8092 141.441C98.0514 141.068 101.206 139.051 103.889 133.971C105.462 130.993 106.052 128.673 106.003 126.355C106.768 123.665 107.617 120.078 108.679 115.291C114.679 88.25 112.435 49.0158 103.179 25.7913C98.6792 14.5 85.6792 0 65.1792 0C54.6812 2.25 62.0019 19.5 65.1792 19.5C77.0082 19.5 80.2781 29.1627 83.2932 38.0725Z" fill="#82521A"/>
</svg>
