<svg width="116" height="346" viewBox="0 0 116 346" fill="none" xmlns="http://www.w3.org/2000/svg">
    <path d="M86.1248 255.459L86.4998 333.209L69.5 333.291L69.125 255.541L86.1248 255.459Z" fill="#F6DDD6"/>
    <path d="M35.875 244.988L52.875 245.012L52.75 332.512L35.75 332.488L35.875 244.988Z" fill="#F6DDD6"/>
    <path d="M8.42159 343.762C8.37181 338.06 9.15346 337.077 14.141 334.745C19.1285 332.415 23.8265 329.177 32.4553 325.337C32.4553 325.337 33.5908 325.122 35.4395 326.117C37.0173 326.965 39.0435 329.045 42.097 329.017C45.4125 328.99 48.3673 328.292 50.203 327.335C50.9963 325.175 52.7558 325.16 52.7558 325.16C52.7558 325.16 55.2328 329.845 55.2738 334.552C55.315 339.262 55.3105 343.355 55.3105 343.355L8.42159 343.762Z" fill="#161616"/>
    <path d="M43.0249 331.7C44.7715 331.7 46.1959 332.278 47.7859 333.388L47.9694 333.519C48.2687 333.737 49.1808 334.421 49.4088 334.574C49.7637 334.812 49.997 334.918 50.1277 334.929L50.1497 334.93V336.68C49.6154 336.68 49.123 336.478 48.5238 336.087L48.4331 336.027C48.1413 335.831 47.075 335.03 46.8967 334.903C45.5248 333.926 44.3886 333.45 43.0249 333.45C41.9453 333.45 41.072 333.736 39.9414 334.395L39.8192 334.467C39.475 334.672 38.2217 335.477 38.0365 335.592C35.8523 336.946 33.9417 337.674 31.2284 337.919C28.1246 338.199 26.1064 337.634 24.1794 336.332L24.0188 336.222C23.9645 336.184 23.9089 336.145 23.851 336.104L23.3867 335.769L24.4126 334.351L24.7815 334.618L24.9408 334.731C25.0169 334.785 25.0885 334.834 25.1593 334.882C26.7623 335.965 28.3823 336.419 31.0711 336.176C33.4271 335.964 35.0655 335.356 36.9741 334.191L37.1818 334.062C37.4844 333.871 38.5124 333.212 38.8877 332.985L38.923 332.964C40.362 332.106 41.5476 331.7 43.0249 331.7Z" fill="white"/>
    <path d="M30.6535 324.437C30.9947 324.285 31.395 324.437 31.5476 324.779C31.7411 325.211 31.8808 325.686 31.9764 326.202L32.0081 326.382C32.1219 327.065 32.1482 327.673 32.1482 328.685C32.1482 329.159 31.6759 329.481 31.2393 329.321L31.1997 329.305L27.9023 327.859L28.6045 330.389C28.7447 330.895 28.2832 331.355 27.7852 331.226L27.7459 331.214L24.4336 330.153L24.4337 333.125C24.4337 333.623 23.9171 333.945 23.4741 333.74L23.4363 333.721L21.1853 332.51L21.1855 334.74C21.1855 335.1 20.9045 335.394 20.55 335.416L20.5087 335.417C20.1488 335.417 19.8546 335.136 19.8333 334.781L19.832 334.74V331.378C19.832 330.88 20.3486 330.557 20.7916 330.763L20.8294 330.782L23.0801 331.993L23.0802 329.225C23.0802 328.781 23.4993 328.461 23.9226 328.569L23.9635 328.581L26.9651 329.543L26.2176 326.848C26.0687 326.312 26.5937 325.841 27.1049 326.033L27.1414 326.048L30.7768 327.642L30.7729 327.558C30.7536 327.181 30.7189 326.863 30.6597 326.526L30.6456 326.448C30.5685 326.032 30.4587 325.659 30.3123 325.331C30.1596 324.99 30.3124 324.59 30.6535 324.437Z" fill="white"/>
    <path d="M10.3088 335.182C11.839 334.632 13.4595 334.215 16.5664 333.515L15.2459 337.292L15.2834 341.597L6.44033 341.672C6.07943 341.677 5.43461 341.197 5.74253 339.257C6.12741 336.835 8.13448 335.967 10.3088 335.182Z" fill="#393A40"/>
    <path d="M49.2747 335.555C50.3924 334.38 53.8999 333.07 55.1499 333.442L55.3997 337.915L55.3994 341.67C48.2079 341.672 47.6494 341.672 47.6494 341.672C48.0342 339.247 47.1497 337.792 49.2747 335.555Z" fill="#393A40"/>
    <path d="M55.5046 343.897L55.4518 340.575L36.0011 341.38L15.5504 341.19L5.66382 340.47L5.42225 342.635C5.2857 343.86 6.19687 344.952 7.42602 345.037L15.5998 345.597L54.4388 344.997C55.0368 344.987 55.5141 344.495 55.5046 343.897Z" fill="#D3D5E0"/>
    <path d="M55.0162 341.393L55.0327 341.892L36.1495 342.515L15.5078 342.517L6.13281 341.894L6.16594 341.395L15.5243 342.017L36.1412 342.015L55.0162 341.393Z" fill="black"/>
    <path d="M111.603 343.762C111.653 338.06 110.871 337.077 105.884 334.745C100.896 332.415 96.198 329.177 87.5693 325.337C87.5693 325.337 86.4335 325.122 84.5848 326.117C83.0073 326.965 80.981 329.045 77.9275 329.017C74.6118 328.99 71.6573 328.292 69.8215 327.335C69.0283 325.175 67.2688 325.16 67.2688 325.16C67.2688 325.16 64.7918 329.845 64.7505 334.552C64.7095 339.262 64.714 343.355 64.714 343.355L111.603 343.762Z" fill="#161616"/>
    <path d="M76.9993 331.7C78.4305 331.7 79.5878 332.081 80.967 332.885L81.1012 332.964C81.4755 333.187 82.7472 334.004 82.91 334.105C84.8792 335.326 86.5397 335.958 88.9532 336.176C91.6419 336.419 93.2619 335.965 94.8648 334.882L95.0086 334.783L95.3854 334.515L95.6115 334.351L96.6375 335.769L96.2621 336.04L96.088 336.164C96.0042 336.223 95.9244 336.278 95.8448 336.332C93.9178 337.634 91.8996 338.199 88.7959 337.919C86.1428 337.68 84.2572 336.978 82.1329 335.681L81.8768 335.522C81.512 335.291 80.5074 334.647 80.205 334.467C79.0143 333.757 78.1175 333.45 76.9993 333.45C75.6769 333.45 74.5685 333.897 73.2516 334.815L73.0805 334.937C72.8201 335.127 71.9302 335.794 71.6228 336.005L71.5911 336.027C70.9808 336.437 70.4848 336.658 69.9544 336.678L69.8745 336.68V334.93C69.9932 334.93 70.2134 334.837 70.5541 334.615L70.6154 334.574C70.8522 334.415 71.8267 333.684 72.0865 333.496L72.1124 333.477C73.7535 332.308 75.2068 331.7 76.9993 331.7Z" fill="white"/>
    <path d="M88.4762 324.779C88.6288 324.438 89.0291 324.285 89.3703 324.437C89.7114 324.59 89.8643 324.99 89.7117 325.331C89.5653 325.659 89.4556 326.032 89.3785 326.448C89.3106 326.815 89.272 327.152 89.2512 327.558L89.2471 327.642L92.8825 326.048C93.3926 325.824 93.933 326.277 93.8158 326.81L93.8063 326.848L93.0586 329.543L96.0606 328.581C96.4837 328.445 96.916 328.747 96.9426 329.182L96.9439 329.225L96.9438 331.993L99.1948 330.782C99.6331 330.546 100.162 330.848 100.191 331.335L100.192 331.378V334.74C100.192 335.114 99.8892 335.417 99.5154 335.417C99.1555 335.417 98.8613 335.136 98.84 334.781L98.8387 334.74L98.8386 332.51L96.5878 333.721C96.1495 333.957 95.6208 333.655 95.5917 333.167L95.5905 333.125L95.5903 330.153L92.278 331.214C91.7786 331.375 91.3006 330.932 91.4095 330.429L91.4194 330.389L92.1213 327.859L88.8244 329.305C88.3904 329.495 87.9054 329.192 87.8773 328.728L87.876 328.685L87.8775 328.309C87.885 327.434 87.9238 326.871 88.0476 326.202C88.1432 325.686 88.2828 325.211 88.4762 324.779Z" fill="white"/>
    <path d="M109.716 335.182C108.185 334.632 106.565 334.215 103.458 333.515L104.779 337.292L104.741 341.597L113.584 341.672C113.945 341.677 114.59 341.197 114.282 339.257C113.897 336.835 111.89 335.967 109.716 335.182Z" fill="#393A40"/>
    <path d="M70.7495 335.555C69.6318 334.38 66.1243 333.07 64.8743 333.442L64.6245 337.915L64.6248 341.67C71.816 341.672 72.3748 341.672 72.3748 341.672C71.9898 339.247 72.8745 337.792 70.7495 335.555Z" fill="#393A40"/>
    <path d="M64.5197 343.897L64.5724 340.575L84.0232 341.38L104.474 341.19L114.36 340.47L114.602 342.635C114.738 343.86 113.827 344.952 112.598 345.037L104.424 345.597L65.5854 344.997C64.9874 344.987 64.5102 344.495 64.5197 343.897Z" fill="#D3D5E0"/>
    <path d="M65.0082 341.393L83.875 342.015L104.483 342.018L113.858 341.395L113.892 341.894L104.5 342.517L83.8667 342.515L64.9917 341.892L65.0082 341.393Z" fill="black"/>
    <path d="M58.25 210.75H90.75L88.5 319.75H64.9573L58.25 210.75Z" fill="#252424"/>
    <path d="M58.75 210.75H26.25L31.25 319.75H54.7927L58.75 210.75Z" fill="#252424"/>
    <path fill-rule="evenodd" clip-rule="evenodd" d="M16.1775 54.875C14.5525 68.9167 10.307 103.408 8.92725 109.875C7.89189 114.728 6.2872 119.916 4.77198 124.815C3.36019 129.38 2.02608 133.693 1.30255 137.25C0.288051 142.238 -1.82255 166.5 3.30245 163.875C6.62127 162.175 46.7206 138.301 68.3337 120.005C70.6923 121.666 74.8506 123.219 78.9283 124.742C82.8533 126.208 86.7037 127.646 88.8023 129.125C109.552 143.75 105.427 117.25 104.552 112C104.292 110.442 103.867 108.498 103.398 106.352C102.287 101.267 100.927 95.0472 100.927 90.125C100.927 89.5337 100.942 88.4656 100.962 87.1265C101.02 83.0827 101.115 76.568 100.927 73.25L95.052 74L80.6768 86.125C79.8656 88.0011 78.155 91.348 76.19 95.1929C75.1312 97.2647 73.9985 99.481 72.8927 101.69L22.0525 52.5L16.1775 54.875Z" fill="#17100F"/>
    <path d="M58.5 231.25C74.3783 231.25 87.25 225.374 87.25 218.125C87.25 210.876 74.3783 205 58.5 205C42.6217 205 29.75 210.876 29.75 218.125C29.75 225.374 42.6217 231.25 58.5 231.25Z" fill="#252424"/>
    <path d="M41.25 204.742V116.25H75.25V204.742C75.25 204.742 63.3312 207 58.25 207C53.1687 207 41.25 204.742 41.25 204.742Z" fill="#FAF3EA"/>
    <path d="M48.25 104.75L51.8772 106.564C55.889 108.569 60.611 108.569 64.6227 106.564L68.25 104.75V117.25C68.25 122.773 63.7727 127.25 58.25 127.25C52.7273 127.25 48.25 122.773 48.25 117.25V104.75Z" fill="#EADFD2"/>
    <path d="M41.5 214.5V199.75H75.5V214.5H41.5Z" fill="#EADFD2"/>
    <path d="M8.44132 135.462C10.0445 123.501 21.1294 115.168 33.0649 116.952C44.7479 118.698 52.8664 129.498 51.2971 141.206L44.0519 195.264C42.4487 207.225 31.3636 215.558 19.4283 213.774C7.74537 212.028 -0.373251 201.228 1.19597 189.52L8.44132 135.462Z" fill="#2B4166"/>
    <path d="M108.127 131.328C106.557 119.337 95.4566 110.966 83.4963 112.754C71.8391 114.496 63.7258 125.255 65.2561 136.942L72.8593 195.006C74.4296 206.997 85.5301 215.368 97.4903 213.58C109.147 211.838 117.261 201.079 115.73 189.392L108.127 131.328Z" fill="#2B4166"/>
    <path d="M13.7207 247.786L24.4578 114.432L47.625 112.75L55.75 160.125C53.6025 188.471 50.656 252.295 50.656 255.732C50.656 259.167 24.4578 251.365 13.7207 247.786Z" fill="#3C557C"/>
    <path d="M31.8249 202.059L21.8582 221.758L18.7969 217.86L28.8661 200.694L31.8249 202.059Z" fill="#62789C"/>
    <path d="M55.875 159.875L47.875 109.875L30.25 112.125L51.625 159.125L53.625 194.25L55.875 159.875Z" fill="#62789C"/>
    <path d="M103.053 246.283L92.375 114.375L68 113.375L61.125 160.75C63.2725 189.096 66.1172 250.792 66.1172 254.227C66.1172 257.665 92.3158 249.862 103.053 246.283Z" fill="#3C557C"/>
    <path d="M82.0078 201.809L91.9746 221.508L95.0358 217.61L84.9666 200.444L82.0078 201.809Z" fill="#62789C"/>
    <path d="M61.125 161L68.5 110.5C68.5 110.5 81.4583 111.75 84.375 111.75L67 163.125L63.5 201.5L61.125 161Z" fill="#62789C"/>
    <path d="M83.6577 111.551C83.7678 111.224 84.1223 111.048 84.4494 111.158C84.7635 111.263 84.9382 111.594 84.8542 111.91L84.8424 111.949L67.6149 163.133L64.1219 197.813C64.0887 198.142 63.8049 198.386 63.4784 198.375L63.4374 198.372C63.1077 198.339 62.8638 198.055 62.8754 197.728L62.8782 197.687L66.3852 162.867L83.6577 111.551Z" fill="white"/>
    <path d="M31.7675 111.42C32.0746 111.297 32.4215 111.435 32.563 111.728L32.5803 111.767L51.8682 159.862L53.8741 194.214C53.8942 194.558 53.6312 194.854 53.2866 194.874C52.9558 194.893 52.6701 194.652 52.63 194.327L52.6262 194.286L50.6322 160.138L31.4201 112.233C31.2969 111.926 31.4347 111.579 31.7283 111.437L31.7675 111.42Z" fill="white"/>
    <path d="M48.1868 167.688C49.5507 167.688 50.6563 166.582 50.6563 165.219C50.6563 163.855 49.5507 162.749 48.1868 162.749C46.8229 162.749 45.7173 163.855 45.7173 165.219C45.7173 166.582 46.8229 167.688 48.1868 167.688Z" fill="#536F9D"/>
    <path d="M46.6834 201.188C48.0473 201.188 49.1529 200.082 49.1529 198.718C49.1529 197.354 48.0473 196.249 46.6834 196.249C45.3195 196.249 44.2139 197.354 44.2139 198.718C44.2139 200.082 45.3195 201.188 46.6834 201.188Z" fill="#536F9D"/>
    <path d="M47.7571 184.438C49.121 184.438 50.2266 183.332 50.2266 181.968C50.2266 180.604 49.121 179.499 47.7571 179.499C46.3932 179.499 45.2876 180.604 45.2876 181.968C45.2876 183.332 46.3932 184.438 47.7571 184.438Z" fill="#536F9D"/>
    <path d="M44.7508 217.293C46.1146 217.293 47.2203 216.187 47.2203 214.824C47.2203 213.46 46.1146 212.354 44.7508 212.354C43.3869 212.354 42.2812 213.46 42.2812 214.824C42.2812 216.187 43.3869 217.293 44.7508 217.293Z" fill="#536F9D"/>
    <path d="M43.2478 231.251C44.6117 231.251 45.7174 230.146 45.7174 228.782C45.7174 227.418 44.6117 226.312 43.2478 226.312C41.884 226.312 40.7783 227.418 40.7783 228.782C40.7783 230.146 41.884 231.251 43.2478 231.251Z" fill="#536F9D"/>
    <rect x="48.25" y="95.75" width="20" height="29" rx="10" fill="#EBBAAA"/>
    <path opacity="0.5" d="M97.75 72.5C103.273 72.5 107.75 68.0227 107.75 62.5C107.75 56.9773 103.273 52.5 97.75 52.5C92.2273 52.5 87.75 56.9773 87.75 62.5C87.75 68.0227 92.2273 72.5 97.75 72.5Z" fill="#DE8E7C"/>
    <path opacity="0.5" d="M19.25 72.5C13.7271 72.5 9.25 68.0227 9.25 62.5C9.25 56.9773 13.7271 52.5 19.25 52.5C24.7727 52.5 29.25 56.9773 29.25 62.5C29.25 68.0227 24.7727 72.5 19.25 72.5Z" fill="#DE8E7C"/>
    <path d="M20.5 41.25C20.5 20.5393 37.2892 3.75 58 3.75C78.7108 3.75 95.5 20.5393 95.5 41.25V67.75C95.5 88.4608 78.7108 105.25 58 105.25C37.2892 105.25 20.5 88.4608 20.5 67.75V41.25Z" fill="#F4D5CC"/>
    <path fill-rule="evenodd" clip-rule="evenodd" d="M66.25 47.25H86.25C88.183 47.25 89.75 48.817 89.75 50.75V63.25C89.75 67.254 86.504 70.5 82.5 70.5H76.25C68.7942 70.5 62.75 64.4558 62.75 57V50.75C62.75 48.817 64.317 47.25 66.25 47.25ZM86.25 49.25H66.25C65.4216 49.25 64.75 49.9215 64.75 50.75V57C64.75 63.3512 69.8988 68.5 76.25 68.5H82.5C85.3995 68.5 87.75 66.1495 87.75 63.25V50.75C87.75 49.9215 87.0785 49.25 86.25 49.25Z" fill="white" fill-opacity="0.75"/>
    <path fill-rule="evenodd" clip-rule="evenodd" d="M30.25 47.25H50.25C52.183 47.25 53.75 48.817 53.75 50.75V57C53.75 64.4558 47.7058 70.5 40.25 70.5H34C29.996 70.5 26.75 67.254 26.75 63.25V50.75C26.75 48.817 28.317 47.25 30.25 47.25ZM50.25 49.25H30.25C29.4216 49.25 28.75 49.9215 28.75 50.75V63.25C28.75 66.1495 31.1006 68.5 34 68.5H40.25C46.6012 68.5 51.75 63.3512 51.75 57V50.75C51.75 49.9215 51.0785 49.25 50.25 49.25Z" fill="white" fill-opacity="0.75"/>
    <rect x="52" y="50.75" width="12.5" height="2" fill="white" fill-opacity="0.75"/>
    <path d="M73.6343 50.8518C75.2656 50.8518 76.5929 52.1539 76.6333 53.7756L76.6343 53.8518V60.8243C76.6343 62.4812 75.2911 63.8243 73.6343 63.8243C72.0029 63.8243 70.6757 62.5222 70.6352 60.9005L70.6343 60.8243V53.8518C70.6343 52.195 71.9774 50.8518 73.6343 50.8518Z" fill="black"/>
    <path d="M42.3652 50.8518C43.9966 50.8518 45.3238 52.1539 45.3643 53.7756L45.3652 53.8518V60.8243C45.3652 62.4812 44.0221 63.8243 42.3652 63.8243C40.7339 63.8243 39.4066 62.5222 39.3662 60.9005L39.3652 60.8243V53.8518C39.3652 52.195 40.7084 50.8518 42.3652 50.8518Z" fill="black"/>
    <path fill-rule="evenodd" clip-rule="evenodd" d="M67.0338 81.1508V84.6173C67.0338 89.9423 62.717 94.2593 57.3918 94.2593C52.0668 94.2593 47.75 89.9423 47.75 84.6173V81.1508H67.0338Z" fill="#393939"/>
    <mask id="mask0_6_3347" style="mask-type:luminance" maskUnits="userSpaceOnUse" x="47" y="79" width="21" height="16">
        <path fill-rule="evenodd" clip-rule="evenodd" d="M66.9062 79.5C66.99 80.0115 67.0338 80.5365 67.0338 81.0718V84.6175C67.0338 89.9425 62.717 94.2592 57.3918 94.2592C52.0668 94.2592 47.75 89.9425 47.75 84.6175V81.0718C47.75 80.5365 47.7935 80.0115 47.8775 79.5H66.9062Z" fill="white"/>
    </mask>
    <g mask="url(#mask0_6_3347)">
        <path d="M56.8773 97.6523C53.6661 97.6523 51.0628 96.2346 51.0628 94.4856C51.0628 92.7367 53.6661 91.319 56.8773 91.319C60.0886 91.319 62.6919 92.7367 62.6919 94.4856C62.6919 96.2346 60.0886 97.6523 56.8773 97.6523Z" fill="#FF6C6C"/>
        <rect width="19.2837" height="3.97675" transform="matrix(-1 0 0 1 67.0337 80.6511)" fill="white"/>
    </g>
    <path d="M71.4069 2.12517L71.7111 2.23458C80.2869 5.169 91.3866 13.2124 95.625 24.2501C100.098 35.8972 103 50.375 103 62.875C103 70.25 97 108.5 96.375 114.75L96.3211 115.308C95.7708 121.224 96.0063 125.921 96.3638 138.359L96.397 139.535C96.7489 152.316 96.695 163.009 94 163.75C89 165.125 73.375 163.125 71.25 162.75C69.125 162.375 70.5 153.7 70.5 148.875C70.5 142.25 75 119.875 77.375 111.25C79.2002 104.622 88.25 83.5 88.875 81.75L89.2581 80.6743C91.6777 73.8454 93.8938 66.5875 91.875 51.625L91.8735 51.1026C91.8584 48.459 91.7263 45.3828 91.375 43.625C90.429 38.8935 85.8753 32.5 79.6253 26.5C72.238 19.4085 60.3747 17.8751 59.2497 16.1251C59.146 15.7694 59.0496 15.3743 58.9638 14.9485L58.9357 15.1163C58.8006 15.881 58.6092 16.3888 58.3732 16.5031C55.1232 18.7531 42.3732 19.3781 35.639 27.2677C28.8102 35.2682 24.1233 43.5033 23.8733 51.6283L23.8566 52.2277C23.6891 58.9149 24.0329 68.6036 23.2888 74.768L23.3502 74.7558C23.3591 74.7538 23.3674 74.7519 23.375 74.75C24.0833 77.875 24.3935 82.537 26.75 87.25C28.625 91 32 94.7083 33.625 96.375L33.8025 97.0749C35.2808 102.947 38.107 115.204 38.875 122.5C39.875 132 38.875 161.75 36.625 161.75C31.4018 161.75 27.7265 162.5 26.75 159.375C24.9996 153.774 26.0816 143.597 24.606 134.541L24.5865 135.264C24.2814 147.213 24.666 165.786 23.8733 169.75C23.1905 173.165 11.25 171.878 11.25 167.625L11.2513 166.513C11.2941 148.451 12.3711 135.067 13.1234 127.628C14.2484 116.503 13.1234 103.878 13.1234 94.1283C13.1234 84.3783 14.1233 57.0033 15.4983 48.3783C18.4282 30 24.8732 17.2531 31.3732 11.1281C35.0995 7.61689 41.4959 4.02345 47.0536 2.20826L46.963 2.25295C51.7546 -0.142853 61.7643 -1.21042 71.1235 2.02579L71.4069 2.12517Z" fill="#311E1C"/>
    <path d="M68.5406 40.4001L82.5641 40.7264C83.8064 40.7553 84.7901 41.7858 84.7612 43.0281C84.7328 44.2482 83.7383 45.2188 82.5258 45.2257L82.4595 45.2252L68.436 44.8989C67.1937 44.87 66.21 43.8395 66.2389 42.5972C66.2673 41.3771 67.2618 40.4064 68.4743 40.3995L68.5406 40.4001Z" fill="#393939"/>
    <path d="M46.4332 40.326C47.6751 40.2839 48.7161 41.2565 48.7582 42.4984C48.7996 43.7182 47.8622 44.7441 46.6521 44.8202L46.5858 44.8234L32.5666 45.2992C31.3246 45.3413 30.2837 44.3687 30.2416 43.1268C30.2002 41.907 31.1376 40.8812 32.3477 40.805L32.4139 40.8018L46.4332 40.326Z" fill="#393939"/>
    <path d="M55.7319 62.0713L59.2681 64.4288C58.0663 66.2315 57.125 68.9376 57.125 70.9063C57.125 72.8045 57.8105 73.6025 59.9092 73.6246L60 73.625V77.875C55.3642 77.875 52.875 75.0747 52.875 70.9063C52.875 68.0825 54.0497 64.6547 55.6445 62.204L55.7319 62.0713Z" fill="#EBBAAA"/>
</svg>
