<svg width="134" height="329" viewBox="0 0 134 329" fill="none" xmlns="http://www.w3.org/2000/svg">
    <path d="M57.875 237V314.75H40.875V237H57.875Z" fill="#F6DDD6"/>
    <path d="M91.125 247.5V310.5H74.125V247.5H91.125Z" fill="#F6DDD6"/>
    <path d="M62.9917 289.605C61.8494 287.75 59.2797 288.195 58.1377 288.65L58.4232 289.74C58.8989 289.832 60.1077 290.015 60.5647 290.56C61.1357 291.242 60.7074 292.605 61.1357 292.877C61.5639 293.152 62.7062 292.877 63.2772 292.877C63.8482 292.877 64.4192 291.925 62.9917 289.605Z" fill="black"/>
    <path fill-rule="evenodd" clip-rule="evenodd" d="M60.0746 288.96C60.0969 288.894 60.1689 288.86 60.2329 288.882L60.2539 288.891L60.4889 289.021L60.5419 288.973L60.6045 288.912C60.642 288.874 60.6984 288.865 60.7452 288.887L60.7646 288.898L62.0146 289.773C62.0712 289.812 62.0849 289.89 62.0453 289.947C62.0102 289.997 61.9447 290.013 61.8908 289.989L61.8713 289.977L61.4349 289.672L61.4247 289.713C61.3687 289.924 61.2961 290.129 61.2197 290.255L61.2092 290.27C61.2451 290.3 61.2977 290.336 61.3648 290.377L61.4519 290.429L61.5627 290.49L61.6932 290.558L61.6932 290.25C61.6932 290.156 61.7923 290.098 61.8727 290.137L61.8908 290.148L62.7658 290.773C62.8586 290.84 62.8205 290.981 62.7151 290.998L62.6932 291L62.2068 291C62.2892 291.009 62.3469 291.102 62.3047 291.182L62.2932 291.2L62.1027 291.454L62.2396 291.509C62.2966 291.532 62.3276 291.592 62.3157 291.65L62.3092 291.671C62.2865 291.728 62.2264 291.759 62.1684 291.748L62.1468 291.741L61.9472 291.661L61.9182 291.7C61.8506 291.79 61.712 291.751 61.6949 291.647L61.6932 291.625L61.6932 291.56L61.5218 291.491C61.4245 291.452 61.4175 291.322 61.5009 291.27L61.5218 291.259L61.6932 291.19V290.837L61.6063 290.794C61.5395 290.76 61.475 290.727 61.4148 290.694L61.3282 290.646C61.2068 290.577 61.1126 290.515 61.0491 290.462C60.9328 290.364 60.877 290.264 60.9798 290.162C61.0275 290.114 61.0999 289.932 61.1573 289.739L61.1722 289.687L60.5222 289.326L60.4889 289.353C60.3847 289.433 60.2918 289.487 60.2194 289.498L60.1932 289.5C60.0389 289.5 60.001 289.379 60.0156 289.223C60.023 289.143 60.0463 289.045 60.0746 288.96ZM61.9432 290.956V291.09L62.1468 291.009C62.1537 291.006 62.1606 291.004 62.1673 291.003L62.184 291H62.0682L62.0173 290.989L61.9432 290.956ZM61.9432 290.68V290.493L62.3035 290.75H62.0952L62.0324 290.722L61.9432 290.68Z" fill="#EACE56" fill-opacity="0.78"/>
    <path d="M12.3895 323.25C12.0854 322.5 12.1378 320.875 14.0127 320.125C15.8876 319.375 38.0125 323.25 38.0125 323.25C43.7083 322.785 59.0055 315.32 64.6378 318.75C66.4195 319.835 65.8155 323.273 65.1578 326.49C64.1053 327.563 53.4578 328.5 50.0055 327.695C50.0055 325.82 49.7368 324.613 49.7368 324.613C49.7368 324.613 47.6453 325.963 45.3878 326.49C40.783 327.563 39.7753 328.75 25.5128 328.75C14.0736 327.678 13.2509 325.375 12.3895 323.25Z" fill="#383129"/>
    <path fill-rule="evenodd" clip-rule="evenodd" d="M64.1389 321.107C63.7567 321.38 63.3139 321.595 62.7576 321.781L62.6783 321.544C63.2124 321.366 63.6331 321.161 63.9938 320.904L64.1389 321.107ZM14.4226 322.858C13.9439 322.497 13.5574 322.144 13.292 321.831L13.4828 321.669C13.7351 321.967 14.1083 322.308 14.5734 322.659L14.4226 322.858ZM17.0088 324.418C16.5416 324.189 16.0967 323.948 15.6804 323.7L15.8087 323.485C16.2189 323.73 16.6577 323.968 17.1187 324.194L17.0088 324.418ZM18.3879 325.029C18.8504 325.214 19.3247 325.384 19.8085 325.538L19.8842 325.3C19.4063 325.148 18.9376 324.98 18.4807 324.797L18.3879 325.029ZM22.7465 326.243C22.249 326.162 21.7554 326.062 21.2668 325.945L21.3252 325.702C21.8078 325.817 22.2954 325.916 22.7867 325.996L22.7465 326.243ZM24.249 326.43C24.7507 326.473 25.2537 326.496 25.7572 326.5L25.7589 326.25C25.262 326.246 24.7656 326.223 24.2704 326.181L24.249 326.43ZM28.7572 326.455C28.2606 326.471 27.76 326.483 27.2555 326.49L27.2518 326.24C27.7549 326.233 28.2541 326.221 28.7493 326.205L28.7572 326.455ZM30.2597 326.395C30.7643 326.371 31.2641 326.342 31.7589 326.309L31.7423 326.059C31.2489 326.092 30.7506 326.121 30.2476 326.146L30.2597 326.395ZM34.7526 326.053C34.2602 326.105 33.7615 326.152 33.2568 326.195L33.2356 325.946C33.7387 325.903 34.2358 325.856 34.7265 325.805L34.7526 326.053ZM36.2469 325.882C36.7514 325.818 37.2478 325.751 37.7358 325.679L37.6993 325.431C37.2131 325.503 36.7185 325.571 36.2158 325.634L36.2469 325.882ZM40.6971 325.17C40.2164 325.265 39.7234 325.356 39.219 325.442L39.1768 325.196C39.6791 325.11 40.1699 325.019 40.6486 324.924L40.6971 325.17ZM42.1692 324.857C42.6753 324.741 43.1628 324.622 43.6302 324.499L43.5665 324.257C43.1019 324.379 42.617 324.498 42.1136 324.613L42.1692 324.857ZM46.5184 323.669L45.0785 324.091L45.0085 323.851L46.4477 323.429L46.5184 323.669ZM47.8853 323.003L47.9567 323.242L49.3937 322.81L49.3212 322.571L48.2274 322.9L47.8853 323.003ZM50.7994 322.534L50.8184 322.284C51.1601 322.31 51.532 322.335 51.9199 322.357L52.3126 322.379L52.2995 322.629C51.9011 322.608 51.5139 322.584 51.1522 322.559L50.7994 322.534ZM53.8005 322.692C54.3129 322.707 54.8162 322.717 55.3032 322.72L55.3048 322.47C54.8199 322.467 54.3187 322.457 53.8083 322.442L53.8005 322.692ZM58.3129 322.626C57.8562 322.664 57.3526 322.69 56.8081 322.706L56.8011 322.456C57.3414 322.441 57.8404 322.415 58.2923 322.377L58.3129 322.626ZM59.7703 322.186L59.8111 322.433L60.0928 322.385C60.5492 322.308 60.9413 322.235 61.2915 322.162L61.2405 321.917L60.9162 321.982C60.5792 322.048 60.2026 322.115 59.7703 322.186Z" fill="#67513B"/>
    <path d="M45.6378 288.125C46.8565 288.125 53.9673 291.858 57.6568 288.963C58.0623 288.645 58.8875 288.905 58.8883 289.42C58.895 294.395 58.9685 303.045 59.7135 306.475C60.5028 310.11 61.1693 309.59 61.9583 312.965C62.5048 315.303 64.2745 320.755 61.9583 320.755H51.3948C48.8955 320.755 45.52 323.658 37.1973 324.473C23.3816 325.828 20.0055 323.973 17.247 323.098C10.9704 321.108 14.1557 316.553 17.247 315.098C21.7755 312.965 28.2658 311.365 31.567 309.598C34.1378 308.223 35.0205 307.795 36.3403 306.348C38.5163 303.963 40.4278 291.415 40.7233 288.138C40.7438 287.91 41.064 287.793 41.2588 287.913C42.546 288.705 44.4295 288.125 45.6378 288.125Z" fill="#2D2B30"/>
    <path d="M18.0074 319.052C18.1472 318.589 18.6355 318.328 19.0981 318.467L19.4584 318.575C20.9838 319.026 22.0602 319.267 23.4281 319.414C25.4311 319.63 27.5545 319.53 29.9102 319.036C30.3831 318.937 30.8469 319.24 30.9461 319.713C31.0453 320.186 30.7423 320.65 30.2693 320.749C27.7323 321.281 25.4246 321.389 23.2409 321.154C21.6368 320.982 20.409 320.692 18.5918 320.143C18.1292 320.003 17.8676 319.514 18.0074 319.052Z" fill="#59555F"/>
    <path d="M34.8877 314.25C37.3354 312 46.2627 306.972 45.6377 288.125C46.6984 288.125 49.2627 289.5 53.1377 289.75C57.2069 289.628 57.1402 289.26 58.2179 288.65C58.2472 288.632 58.2809 288.608 58.3087 288.59C59.9989 287.452 59.2387 305.628 60.4517 308.847C61.4309 311.448 63.2667 315.347 63.2667 320.097C62.4099 321.597 53.9649 320.847 51.2722 320.847C50.0127 314.125 40.1377 319.25 38.0127 318.625C36.1474 318.077 34.8877 317 34.8877 314.25Z" fill="#1D1D20"/>
    <path d="M37.8877 306.15C40.6877 303.95 41.7627 293.25 41.8877 288.125C41.3877 288 41.2627 287.65 40.8877 287.775C40.5127 287.9 40.5127 289.4 40.3877 290.65C40.2509 292.02 39.2627 296.275 38.7627 299.15C38.2627 302.025 37.7627 303.775 35.8877 306.15C34.3877 308.05 28.5127 310 26.6377 311.625C26.8459 311.582 27.3877 311.3 27.8877 311.4C28.5127 311.525 28.3877 311.65 29.1377 311.65C29.8877 311.65 34.3877 308.9 37.8877 306.15Z" fill="#1D1D20"/>
    <path d="M40.6699 288.927C40.7747 288.613 41.1051 288.437 41.4211 288.52L41.4605 288.532L46.7105 290.282C47.2792 290.472 47.2759 291.267 46.7267 291.462L46.6845 291.476L42.9538 292.542L45.9237 294.069C46.4409 294.335 46.343 295.093 45.7932 295.231L45.7522 295.24L42.5118 295.842L45.8676 297.169C46.3999 297.379 46.3885 298.127 45.8699 298.331L45.8279 298.345L41.4581 299.74L45.2815 301.561C45.8341 301.824 45.715 302.633 45.1289 302.739L45.0873 302.746L40.3843 303.31L43.6378 305.75C44.1074 306.102 43.8747 306.841 43.3032 306.874L43.2628 306.875H38.3023L41.6985 310.177C42.14 310.606 41.7601 311.339 41.1674 311.243L41.1293 311.236L34.7203 309.834L37.2705 313.386C37.642 313.903 37.094 314.57 36.5227 314.327L36.4877 314.311L30.1127 311.186C29.8028 311.034 29.6747 310.66 29.8266 310.35C29.9722 310.053 30.3222 309.923 30.6239 310.046L30.6629 310.064L34.8043 312.094L32.7551 309.24C32.4287 308.785 32.8183 308.171 33.3585 308.257L33.3964 308.264L39.2566 309.546L36.3272 306.698C35.9345 306.316 36.189 305.657 36.7232 305.626L36.7628 305.625H41.3878L38.3878 303.375C37.9482 303.045 38.1196 302.357 38.6471 302.261L38.6884 302.254L42.7956 301.762L39.4941 300.189C38.9965 299.952 39.0308 299.242 39.5301 299.045L39.5728 299.03L43.7791 297.687L40.033 296.206C39.4632 295.981 39.5283 295.165 40.1064 295.02L40.1485 295.011L43.7263 294.345L40.977 292.931C40.4864 292.679 40.5429 291.968 41.0491 291.788L41.0911 291.774L44.3988 290.829L41.0652 289.718C40.7508 289.613 40.5752 289.283 40.6582 288.967L40.6699 288.927Z" fill="black"/>
    <path d="M69.0872 289.618C70.2357 287.75 72.8197 288.2 73.9682 288.658L73.6812 289.753C73.2027 289.845 71.9872 290.028 71.5277 290.578C70.9534 291.263 71.3842 292.635 70.9534 292.91C70.5227 293.183 69.3742 292.91 68.7999 292.91C68.2257 292.91 67.6514 291.948 69.0872 289.618Z" fill="black"/>
    <path fill-rule="evenodd" clip-rule="evenodd" d="M71.8401 288.898C71.9087 288.86 71.9951 288.894 72.0197 288.968C72.0483 289.055 72.0715 289.153 72.0789 289.232C72.0936 289.389 72.0554 289.51 71.901 289.51C71.8249 289.51 71.7185 289.451 71.5999 289.359L71.5697 289.335L70.9155 289.699L70.9169 289.704C70.9722 289.9 71.0452 290.093 71.0969 290.162L71.1094 290.176C71.2127 290.279 71.1568 290.379 71.0401 290.478C70.9762 290.531 70.8815 290.593 70.7596 290.663C70.6755 290.711 70.5787 290.763 70.4773 290.814L70.392 290.856V291.212L70.5648 291.282C70.6621 291.321 70.6688 291.451 70.5853 291.503L70.5644 291.514L70.392 291.582L70.392 291.648C70.392 291.76 70.2576 291.812 70.1814 291.739L70.167 291.723L70.1375 291.683L69.9359 291.764C69.8789 291.786 69.8151 291.764 69.7837 291.714L69.7736 291.694C69.7509 291.637 69.7731 291.573 69.8234 291.542L69.8435 291.531L69.982 291.476L69.7897 291.22C69.7272 291.137 69.7875 291.029 69.8762 291.02L69.387 291.02C69.273 291.02 69.2219 290.883 69.2974 290.808L69.3142 290.793L70.1942 290.163C70.271 290.108 70.3757 290.155 70.3902 290.244L70.392 290.265L70.392 290.577L70.4596 290.542C70.4909 290.526 70.5215 290.509 70.5509 290.493L70.6354 290.446L70.723 290.394C70.777 290.361 70.8216 290.331 70.8555 290.305L70.8797 290.285L70.8697 290.27C70.793 290.144 70.7203 289.94 70.6635 289.726L70.6522 289.682L70.2129 289.99C70.1626 290.025 70.0955 290.018 70.0533 289.976L70.0388 289.959C70.0036 289.909 70.0106 289.842 70.0523 289.8L70.0695 289.785L71.3265 288.905C71.3765 288.87 71.4444 288.876 71.4872 288.92C71.5167 288.95 71.5485 288.98 71.581 289.01L71.603 289.03L71.8401 288.898ZM70.1419 290.975L70.0661 291.009L70.0154 291.02L69.8972 291.02L69.9157 291.023L69.9363 291.029L70.1419 291.112V290.975ZM69.7765 290.77L70.142 290.508V290.7L70.0628 290.737L69.989 290.77H69.7765Z" fill="#EACE56" fill-opacity="0.78"/>
    <path d="M119.972 323.45C120.278 322.695 120.225 321.063 118.34 320.308C116.454 319.553 94.2057 323.45 94.2057 323.45C88.4782 322.983 73.0952 315.475 67.4317 318.925C65.64 320.015 66.2472 323.473 66.9087 326.708C67.967 327.785 78.674 328.73 82.1457 327.92C82.1457 326.033 82.416 324.82 82.416 324.82C82.416 324.82 84.519 326.178 86.7892 326.708C91.4197 327.785 92.4332 328.98 106.775 328.98C118.278 327.903 119.106 325.588 119.972 323.45Z" fill="#383129"/>
    <path fill-rule="evenodd" clip-rule="evenodd" d="M68.3205 321.251C68.6895 321.474 69.1242 321.657 69.6734 321.821L69.6021 322.061C69.0337 321.891 68.5797 321.7 68.1909 321.464L68.3205 321.251ZM117.783 322.852C118.247 322.5 118.62 322.16 118.873 321.862L119.063 322.024C118.798 322.337 118.412 322.689 117.933 323.051L117.783 322.852ZM115.238 324.389C115.699 324.163 116.137 323.924 116.548 323.679L116.676 323.893C116.26 324.142 115.815 324.384 115.348 324.613L115.238 324.389ZM113.877 324.995C113.42 325.178 112.952 325.347 112.474 325.5L112.55 325.738C113.034 325.583 113.508 325.412 113.97 325.227L113.877 324.995ZM109.573 326.203C110.064 326.121 110.552 326.021 111.034 325.905L111.093 326.148C110.605 326.266 110.112 326.367 109.614 326.449L109.573 326.203ZM108.09 326.392C107.595 326.436 107.099 326.461 106.602 326.467L106.605 326.717C107.108 326.711 107.611 326.686 108.112 326.641L108.09 326.392ZM103.616 326.426C104.111 326.441 104.61 326.452 105.113 326.459L105.11 326.709C104.605 326.702 104.105 326.691 103.608 326.676L103.616 326.426ZM102.118 326.368C101.615 326.344 101.116 326.316 100.623 326.283L100.606 326.533C101.101 326.565 101.601 326.593 102.106 326.617L102.118 326.368ZM97.6385 326.033C98.1295 326.084 98.6267 326.13 99.1297 326.172L99.1089 326.421C98.6042 326.379 98.1055 326.332 97.6129 326.282L97.6385 326.033ZM96.149 325.864C95.6462 325.802 95.1514 325.736 94.6647 325.665L94.6288 325.912C95.1172 325.983 95.6138 326.05 96.1183 326.113L96.149 325.864ZM91.7141 325.166C92.1934 325.259 92.6846 325.348 93.1869 325.433L93.1453 325.68C92.6409 325.594 92.1477 325.505 91.6663 325.411L91.7141 325.166ZM90.2486 324.859C89.7456 324.746 89.2602 324.629 88.7943 324.509L88.7317 324.751C89.2003 324.872 89.6883 324.989 90.1939 325.103L90.2486 324.859ZM87.3509 324.108L87.281 324.348L86.9866 324.262L85.8408 323.926L85.9114 323.686L86.1927 323.769L87.3509 324.108ZM84.4733 323.261L83.0371 322.83L82.9647 323.069L84.402 323.501L84.4733 323.261ZM81.5485 322.462L81.5685 322.712C81.221 322.739 80.8331 322.767 80.4241 322.791L80.0688 322.812L80.0549 322.562C80.4132 322.542 80.76 322.521 81.0831 322.498L81.5485 322.462ZM78.5592 322.63C78.0508 322.647 77.5495 322.659 77.0626 322.664L77.0653 322.914C77.5542 322.909 78.0575 322.897 78.5678 322.88L78.5592 322.63ZM74.0733 322.593C74.5298 322.625 75.0291 322.647 75.5657 322.658L75.5605 322.908C75.02 322.897 74.5165 322.875 74.0557 322.843L74.0733 322.593ZM72.5544 322.672L72.5943 322.425L72.314 322.379C71.8599 322.304 71.4699 322.234 71.1209 322.166L71.0728 322.411L71.4007 322.473C71.741 322.536 72.12 322.601 72.5544 322.672Z" fill="#67513B"/>
    <path d="M86.5379 288.128C85.3114 288.128 78.1509 291.888 74.4431 288.963C74.0384 288.645 73.2139 288.905 73.2131 289.42C73.2066 294.423 73.1329 303.13 72.3831 306.583C71.5896 310.238 70.9196 309.715 70.1259 313.108C69.5764 315.458 67.7969 320.94 70.1259 320.94H80.7486C83.2619 320.94 86.6564 323.86 95.0256 324.68C108.918 326.04 112.313 324.178 115.087 323.298C121.399 321.295 118.196 316.715 115.087 315.253C110.533 313.108 104.007 311.498 100.687 309.723C98.1021 308.34 97.2144 307.91 95.8871 306.453C93.6984 304.053 91.7754 291.428 91.4794 288.138C91.4591 287.91 91.1389 287.793 90.9444 287.913C89.6499 288.713 87.7536 288.128 86.5379 288.128Z" fill="#2D2B30"/>
    <path d="M113.227 318.645C113.689 318.505 114.178 318.766 114.318 319.229C114.458 319.692 114.196 320.18 113.734 320.32L113.352 320.434C111.732 320.913 110.557 321.177 109.059 321.338C106.864 321.574 104.544 321.466 101.993 320.931C101.52 320.832 101.217 320.369 101.316 319.896C101.415 319.423 101.879 319.12 102.352 319.219C104.722 319.715 106.858 319.815 108.872 319.598C110.354 319.438 111.499 319.168 113.227 318.645Z" fill="#59555F"/>
    <path d="M97.3483 314.4C94.8868 312.137 85.9098 307.082 86.5383 288.127C85.4715 288.127 82.893 289.51 78.9963 289.762C74.9038 289.637 74.9713 289.27 73.8875 288.657C73.8583 288.64 73.8243 288.615 73.7965 288.595C72.0968 287.45 72.8613 305.727 71.6413 308.967C70.6568 311.582 68.8105 315.505 68.8105 320.28C69.672 321.79 78.1645 321.035 80.872 321.035C82.1388 314.275 92.069 319.427 94.2058 318.8C96.0815 318.247 97.3483 317.165 97.3483 314.4Z" fill="#1D1D20"/>
    <path d="M94.3313 306.255C91.5158 304.043 90.4346 293.283 90.3091 288.128C90.8118 288.003 90.9376 287.653 91.3146 287.778C91.6916 287.903 91.6916 289.41 91.8173 290.668C91.9548 292.045 92.9486 296.325 93.4516 299.215C93.9543 302.108 94.4571 303.868 96.3426 306.255C97.8508 308.165 103.759 310.125 105.644 311.76C105.435 311.718 104.89 311.433 104.387 311.535C103.759 311.66 103.885 311.785 103.13 311.785C102.376 311.785 97.8508 309.02 94.3313 306.255Z" fill="#1D1D20"/>
    <path d="M90.7401 288.542C91.0675 288.433 91.4215 288.61 91.5306 288.937C91.6354 289.252 91.4765 289.59 91.1739 289.714L91.1354 289.728L87.7725 290.849L91.1093 291.801C91.6398 291.953 91.7232 292.66 91.2621 292.937L91.2235 292.958L88.4497 294.385L92.0575 295.055C92.6599 295.167 92.7523 295.981 92.2127 296.234L92.1731 296.251L88.3967 297.744L92.6359 299.097C93.161 299.265 93.2231 299.973 92.755 300.236L92.7148 300.257L89.3837 301.843L93.526 302.339C94.0717 302.405 94.2678 303.086 93.8594 303.434L93.8268 303.46L90.8007 305.73H95.4627C96.0104 305.73 96.2873 306.38 95.926 306.775L95.8984 306.803L92.9435 309.676L98.8489 308.384C99.3958 308.265 99.8053 308.866 99.5118 309.327L99.4902 309.359L97.421 312.241L101.598 310.194C101.895 310.048 102.252 310.16 102.415 310.442L102.435 310.48C102.58 310.777 102.469 311.133 102.186 311.296L102.149 311.316L95.7378 314.459C95.166 314.739 94.5991 314.088 94.9334 313.565L94.955 313.533L97.5245 309.954L91.0713 311.365C90.4698 311.497 90.0682 310.776 90.4749 310.335L90.502 310.307L93.9232 306.98H88.9265C88.3395 306.98 88.0827 306.25 88.5198 305.88L88.5514 305.855L91.83 303.395L87.0924 302.828C86.4847 302.755 86.3391 301.95 86.8604 301.662L86.8979 301.643L90.751 299.807L86.3482 298.403C85.8029 298.229 85.7638 297.482 86.2675 297.244L86.3084 297.226L89.694 295.887L86.424 295.279C85.8522 295.173 85.7283 294.419 86.2156 294.129L86.2524 294.109L89.2462 292.569L85.4866 291.496C84.9101 291.331 84.8788 290.536 85.419 290.317L85.4606 290.302L90.7401 288.542Z" fill="black"/>
    <path d="M27.875 282L30.875 193.125L50.331 190.481L50.5 186H59.9965L59.875 183.75L84.5 189.625L84.5288 191.117L91.25 193.125L107.125 282L86.3343 285L86.375 287.125L69.4035 285.812L69.625 288.75H46.625L46.7693 284.923L27.875 282Z" fill="black"/>
    <path d="M106.625 82.125C106.625 79.748 106.875 69.6667 106.625 65.25L100.75 66L86.3745 78.125C83.708 84.2917 71.325 106.35 72.125 109.75C73.125 114 89.2642 117.435 94.5 121.125C115.25 135.75 111.125 109.25 110.25 104C109.375 98.75 106.625 89.125 106.625 82.125Z" fill="#17100F"/>
    <path fill-rule="evenodd" clip-rule="evenodd" d="M20.25 57.259C20.25 57.259 16.6551 97.8126 13.7503 106.781C10.8455 115.75 4.17316 134.428 5.57294 145.823C6.97272 157.219 7.2506 158.373 13.7503 154.749C20.25 151.125 96.499 98.3484 96.499 98.3484L20.25 57.259Z" fill="#17100F"/>
    <rect x="52.75" y="87.75" width="20.25" height="29" rx="10.125" fill="#EBBAAA"/>
    <path d="M46.5 196.5V181.75H80.5V196.5H46.5Z" fill="#E5CECB"/>
    <path d="M46.5 184.458V115.75H80.5V184.458C80.5 184.458 68.5812 186.5 63.5 186.5C58.4187 186.5 46.5 184.458 46.5 184.458Z" fill="#E7D6D3"/>
    <path d="M62.25 111.25C54.95 111.25 50.375 107.75 49 106L45 114.375C47.625 117.208 54.75 122.875 62.25 122.875C69.75 122.875 77.0417 119.125 79.75 117.25L77 106C75.125 107.75 69.55 111.25 62.25 111.25Z" fill="#E6CECB"/>
    <rect x="16.3569" y="105.708" width="43.244" height="89.4248" rx="21.622" transform="rotate(8.5 16.3569 105.708)" fill="#67513B"/>
    <rect y="178.624" width="26.5347" height="52.0257" rx="13.2674" transform="rotate(-45 0 178.624)" fill="#67513B"/>
    <path d="M18.7207 239.786L29.4578 106.432L52.625 104.75L60.75 152.125C58.6025 180.471 55.656 244.296 55.656 247.732C55.656 251.168 29.4578 243.365 18.7207 239.786Z" fill="#67513B"/>
    <path d="M60.875 151.875L52.5 104.125C46.5 103.25 38.875 103.583 35.25 104.125L56.625 151.125L59.375 171.875L60.875 151.875Z" fill="#82684B"/>
    <path d="M108.053 238.283L97.375 106.375L73 105.375L66.125 152.75C68.2725 181.096 71.1172 242.792 71.1172 246.229C71.1172 249.664 97.3158 241.862 108.053 238.283Z" fill="#67513B"/>
    <path d="M66.125 153L73 105C78.875 103.75 86.4583 103.75 89.375 103.75L72 155.125L68.5 193.5L66.125 153Z" fill="#82684B"/>
    <rect x="74.1567" y="174.538" width="56.6915" height="39.727" rx="5" transform="rotate(-4.5 74.1567 174.538)" fill="#363030"/>
    <rect width="22.6357" height="63.002" rx="11.3179" transform="matrix(-0.981627 0.190809 0.190809 0.981627 110.517 105)" fill="#67513B"/>
    <path fill-rule="evenodd" clip-rule="evenodd" d="M96.5796 193.007L101.33 157.007L119.671 159.427L114.921 195.427H114.921C114.252 200.491 109.605 204.055 104.54 203.387C99.4753 202.719 95.9113 198.071 96.5796 193.007H96.5796Z" fill="#F6DDD6"/>
    <rect width="22.6357" height="44.5975" rx="11.3179" transform="matrix(-0.998135 -0.0610485 -0.0610485 0.998135 121.741 149.882)" fill="#67513B"/>
    <path d="M53.1868 159.688C54.5507 159.688 55.6563 158.582 55.6563 157.219C55.6563 155.855 54.5507 154.749 53.1868 154.749C51.8229 154.749 50.7173 155.855 50.7173 157.219C50.7173 158.582 51.8229 159.688 53.1868 159.688Z" fill="#C3996F"/>
    <path d="M51.6834 193.188C53.0473 193.188 54.1529 192.082 54.1529 190.718C54.1529 189.354 53.0473 188.249 51.6834 188.249C50.3195 188.249 49.2139 189.354 49.2139 190.718C49.2139 192.082 50.3195 193.188 51.6834 193.188Z" fill="#C3996F"/>
    <path d="M52.7571 176.438C54.121 176.438 55.2266 175.332 55.2266 173.968C55.2266 172.604 54.121 171.499 52.7571 171.499C51.3932 171.499 50.2876 172.604 50.2876 173.968C50.2876 175.332 51.3932 176.438 52.7571 176.438Z" fill="#C3996F"/>
    <path d="M49.7508 209.293C51.1146 209.293 52.2203 208.187 52.2203 206.824C52.2203 205.46 51.1146 204.354 49.7508 204.354C48.3869 204.354 47.2812 205.46 47.2812 206.824C47.2812 208.187 48.3869 209.293 49.7508 209.293Z" fill="#C3996F"/>
    <path d="M48.2478 223.251C49.6117 223.251 50.7174 222.146 50.7174 220.782C50.7174 219.418 49.6117 218.312 48.2478 218.312C46.884 218.312 45.7783 219.418 45.7783 220.782C45.7783 222.146 46.884 223.251 48.2478 223.251Z" fill="#C3996F"/>
    <path d="M95.75 73.5C101.273 73.5 105.75 68.5192 105.75 62.375C105.75 56.2308 101.273 51.25 95.75 51.25C90.2273 51.25 85.75 56.2308 85.75 62.375C85.75 68.5192 90.2273 73.5 95.75 73.5Z" fill="#E4C1C1"/>
    <path d="M30.25 73.5C24.7271 73.5 20.25 68.5192 20.25 62.375C20.25 56.2308 24.7271 51.25 30.25 51.25C35.7727 51.25 40.25 56.2308 40.25 62.375C40.25 68.5192 35.7727 73.5 30.25 73.5Z" fill="#E4C1C1"/>
    <path d="M28.7034 37.466C27.9666 17.9948 43.5021 1.75 62.9874 1.75C82.6694 1.75 98.2111 18.3069 97.4669 37.975C97.2331 44.1522 97.1056 49.337 97.2099 51.6893C97.3939 55.8382 95.3821 68.0807 93.3716 79.0563C91.1601 91.1298 81.7824 100.546 69.7816 103.123C65.5536 104.031 61.1771 104.042 56.9444 103.157C44.5854 100.574 34.9786 90.7675 32.8881 78.3158C31.0689 67.4788 29.2301 55.6318 29.1699 51.6893C29.1339 49.3335 28.9474 43.9095 28.7034 37.466Z" fill="#F6DDD6"/>
    <path fill-rule="evenodd" clip-rule="evenodd" d="M49.583 72.005V76.955C49.583 84.575 55.7403 90.75 63.3328 90.75C70.9275 90.75 77.0823 84.575 77.0823 76.955V72.005H49.583Z" fill="#393939"/>
    <mask id="mask0_6_3414" style="mask-type:luminance" maskUnits="userSpaceOnUse" x="49" y="72" width="29" height="19">
        <path fill-rule="evenodd" clip-rule="evenodd" d="M49.6055 72C49.5905 72.2553 49.583 72.5128 49.583 72.7703V77.5918C49.583 84.86 55.7403 90.75 63.3328 90.75C70.9275 90.75 77.0823 84.86 77.0823 77.5918V72.7703C77.0823 72.5128 77.0748 72.2553 77.0598 72H49.6055Z" fill="white"/>
    </mask>
    <g mask="url(#mask0_6_3414)">
        <path d="M63.3325 95.1732C67.9123 95.1732 71.6245 93.1457 71.6245 90.6449C71.6245 88.1439 67.9123 86.1167 63.3325 86.1167C58.753 86.1167 55.0405 88.1439 55.0405 90.6449C55.0405 93.1457 58.753 95.1732 63.3325 95.1732Z" fill="#FF6C6C"/>
    </g>
    <rect x="49.583" y="72.005" width="27.5" height="5.68665" fill="white"/>
    <path d="M42.6284 36.2707C46.46 35.632 50.6924 35.9846 54.8743 37.4605C55.6555 37.7362 56.0653 38.593 55.7895 39.3742C55.5138 40.1554 54.657 40.5652 53.8758 40.2895C50.1761 38.9837 46.457 38.6739 43.1216 39.2299C42.1364 39.394 41.3235 39.6585 40.6645 39.9903C40.291 40.1783 39.9977 40.3723 39.7769 40.557C39.723 40.6021 39.679 40.642 39.6447 40.6757L39.6148 40.7055C39.615 40.7049 39.6198 40.6989 39.6292 40.6872C39.1116 41.3341 38.1676 41.4388 37.5208 40.9212C36.874 40.4035 36.7693 39.4596 37.2869 38.8128C37.4029 38.6679 37.589 38.476 37.8522 38.2558C38.2475 37.9251 38.7335 37.6037 39.3154 37.3107C40.2451 36.8426 41.3468 36.4842 42.6284 36.2707Z" fill="#62360D"/>
    <path d="M70.1478 37.3399C73.6379 35.8104 78.8478 35.4243 82.5662 36.0656C83.7672 36.2726 84.8646 36.6656 85.8505 37.1908C86.3813 37.4735 86.8487 37.7782 87.251 38.0863L87.3722 38.1807C87.5644 38.3332 87.7081 38.4606 87.802 38.5527C88.3936 39.1327 88.4029 40.0824 87.823 40.6739C87.2578 41.2503 86.3417 41.274 85.7479 40.7383L85.6879 40.6825L85.6593 40.6571C85.5968 40.6025 85.5192 40.5388 85.4269 40.4681C85.1504 40.2563 84.8201 40.041 84.44 39.8386C83.7249 39.4576 82.9279 39.1722 82.0564 39.022C78.878 38.4738 74.2523 38.8166 71.352 40.0876C70.5932 40.4202 69.7086 40.0746 69.376 39.3159C69.0435 38.5571 69.389 37.6725 70.1478 37.3399Z" fill="#62360D"/>
    <path d="M61.4824 54.5713L65.0186 56.9288C63.8167 58.7315 62.8755 61.4376 62.8755 63.4063C62.8755 65.3045 63.561 66.1025 65.6597 66.1246L65.7505 66.125V70.375C61.1147 70.375 58.6255 67.5747 58.6255 63.4063C58.6255 60.5825 59.8002 57.1547 61.395 54.704L61.4824 54.5713Z" fill="#EBBAAA"/>
    <path d="M72.7561 49.1659C76.0998 47.5957 80.8766 47.6475 85.0711 49.0958C85.9847 49.4112 86.4695 50.4076 86.1541 51.3211C85.8386 52.2347 84.8423 52.7196 83.9288 52.4041C80.5339 51.2319 76.6795 51.1902 74.2438 52.334C73.3689 52.7448 72.3267 52.3687 71.9159 51.4938C71.5051 50.619 71.8812 49.5767 72.7561 49.1659Z" fill="black"/>
    <path d="M39.5061 49.1659C42.8498 47.5957 47.6266 47.6475 51.8211 49.0958C52.7347 49.4112 53.2195 50.4076 52.9041 51.3211C52.5886 52.2347 51.5923 52.7196 50.6788 52.4041C47.2839 51.2319 43.4295 51.1902 40.9938 52.334C40.1189 52.7448 39.0767 52.3687 38.6659 51.4938C38.2551 50.619 38.6312 49.5767 39.5061 49.1659Z" fill="black"/>
    <path d="M57.8101 48.8752C61.1378 47.2907 64.3449 47.1357 67.4669 48.8346L67.5885 48.9018L66.7334 50.4286C64.1557 48.9851 61.5357 49.0738 58.6899 50.3952L58.5624 50.4552L57.8101 48.8752Z" fill="black"/>
    <path d="M67.6285 55.1914L67.209 49.8037C67.209 49.8037 69.822 43.9322 80.3227 42.6932C90.8237 41.4539 95.4662 47.9112 95.4662 47.9112L94.6292 55.6879C94.0997 60.6107 89.8777 64.3012 84.9285 64.1679L76.8442 63.9504C71.9835 63.8197 68.006 60.0394 67.6285 55.1914Z" fill="white" fill-opacity="0.4"/>
    <path d="M79.9687 41.4647C83.3313 41.0298 86.4891 41.2715 89.4065 42.0461C91.5743 42.6217 93.4403 43.442 94.9768 44.3646C95.993 44.9748 96.5355 46.1105 96.4565 47.3085L96.45 47.3922L96.1917 50.2677L94.1998 50.0888L94.458 47.2132C94.5022 46.7215 94.3041 46.2936 93.9472 46.0793C92.5645 45.249 90.8696 44.5039 88.8933 43.9791C86.22 43.2693 83.3227 43.0476 80.2253 43.4482C74.7038 44.1623 70.8702 45.879 68.4615 47.9052C68.2289 48.1009 68.1132 48.4275 68.1532 48.8106L68.1613 48.875L68.62 51.984L66.6415 52.2759L66.1827 49.167C66.0254 48.1015 66.3688 47.0521 67.174 46.3747C69.8723 44.1049 74.0624 42.2286 79.9687 41.4647Z" fill="black"/>
    <path d="M58.451 54.9919L58.8092 49.8594C58.8092 49.8594 56.1987 44.1177 45.8835 42.9839C35.568 41.8504 31.0625 48.2239 31.0625 48.2239L31.9262 55.6879C32.4952 60.6062 36.7465 64.2629 41.6947 64.0902L49.3055 63.8244C54.1652 63.6547 58.1122 59.8427 58.451 54.9919Z" fill="white" fill-opacity="0.4"/>
    <path d="M36.9796 42.3963C39.8334 41.6171 42.9258 41.3572 46.2234 41.757C51.9644 42.4527 56.0736 44.2331 58.757 46.4209C59.5914 47.1012 59.9471 48.1746 59.7787 49.2571L59.7643 49.3426L59.2558 52.1513L57.2878 51.7951L57.7963 48.9863C57.8737 48.5589 57.7552 48.1847 57.4932 47.971C55.0994 46.0193 51.3438 44.3921 45.9827 43.7424C42.9499 43.3748 40.1171 43.6128 37.5065 44.3257C35.5739 44.8534 33.917 45.5953 32.565 46.4196C32.226 46.6262 32.0335 47.0271 32.0594 47.4918L32.064 47.5527L32.3435 50.4675L30.3526 50.6584L30.0731 47.7436C29.9556 46.5173 30.4902 45.3419 31.524 44.7119C33.0289 43.7944 34.8562 42.9762 36.9796 42.3963Z" fill="black"/>
    <path d="M78.7131 14.878C66.8131 8.27802 61.7131 7.75292 47.7131 17.878C33.5881 14.2531 46.2131 5.00295 51.7131 2.25295C57.2131 -0.497053 69.5881 -1.49705 79.9631 3.75295C90.3381 9.00295 93.5881 23.128 78.7131 14.878Z" fill="#311E1C"/>
    <path d="M40.889 27.0178C47.6232 19.1281 60.3732 16.0031 63.6232 13.7531C64.8735 13.1477 64.8732 3.99173 61.8732 1.62809C57.7482 -1.62191 43.1232 4.75315 36.6232 10.8782C30.1232 17.0032 23.6782 29.75 20.7483 48.1283C19.3733 56.7533 18.3734 84.1283 18.3734 93.8783C18.3734 103.628 19.4984 116.253 18.3734 127.378C17.6058 134.969 16.4998 148.75 16.5 167.375C16.5 171.628 28.4405 172.915 29.1233 169.5C30.1233 164.5 29.2498 136.253 30.25 127.378C31.3525 117.597 33.1232 110.753 31.7483 101.628C30.3735 92.5033 26.2483 83.3783 27.8733 78.0033C29.4983 72.6283 28.8733 59.5033 29.1233 51.3783C29.3733 43.2533 34.0602 35.0182 40.889 27.0178Z" fill="#311E1C"/>
    <path d="M31.625 131.375C30.025 123.775 26.9168 89 26.375 72.75C26.625 72.8333 28.9 73.4 29.5 73.5C30.1 73.6 30.5833 73.5418 30.75 73.5C31.4583 76.625 31.7685 81.287 34.125 86C36 89.75 39.375 93.4583 41 95.125C42.4167 100.667 45.45 113.65 46.25 121.25C47.25 130.75 46.25 160.5 44 160.5C38.7768 160.5 35.1015 161.25 34.125 158.125C32.25 152.125 33.625 140.875 31.625 131.375Z" fill="#311E1C"/>
    <path d="M84.8753 24.0001C77.4881 16.9084 65.6248 15.3751 64.4998 13.6251C63.3331 9.62512 63.1033 2.90302 68.2501 1.12516C75.1253 -1.24975 93.2501 8.375 99.2501 24.0001C103.722 35.6472 106.75 63 106.625 65.5C106.5 68 102.25 108.25 101.625 114.5C101 120.75 101.25 125.375 101.625 138.5C102 151.625 102 162.744 99.2501 163.5C94.2501 164.875 78.6251 162.875 76.5001 162.5C74.3751 162.125 75.7501 153.45 75.7501 148.625C75.7501 142 80.2501 119.625 82.6251 111C84.4503 104.372 93.5001 83.25 94.1251 81.5C94.6251 80.1 95.3753 75.4167 95.6253 73.375L95.6316 73.377C95.9211 73.4597 96.2168 73.5443 98.5003 72.75C101.375 71.75 104.5 68.375 105.25 65.125C106 61.875 105.375 58.625 103.625 55.625C102.225 53.225 98.2501 51.6668 97.1251 51.375C97.1251 48.625 96.9998 45.25 96.6251 43.375C95.6791 38.6435 91.1253 30 84.8753 24.0001Z" fill="#311E1C"/>
</svg>
