<svg width="131" height="354" viewBox="0 0 131 354" fill="none" xmlns="http://www.w3.org/2000/svg">
    <path d="M81.1951 245.115C85.0534 244.342 88.8079 246.843 89.5808 250.702C91.0915 258.242 91.6889 271.802 91.7414 291.795L91.7451 295.553C91.743 299.732 91.7204 303.92 91.6751 309.236L91.5191 326.044C91.5049 327.903 91.5009 329.043 91.5001 330.424L91.4999 331.126C91.4999 335.061 88.3099 338.251 84.3749 338.251C80.4399 338.251 77.2499 335.061 77.2499 331.126L77.2533 328.696C77.2595 326.907 77.2763 324.851 77.3193 320.346L77.4299 308.603C77.4763 303.045 77.4972 298.729 77.4952 294.305L77.4929 292.491C77.4534 273.363 76.8932 260.128 75.6472 253.698L75.6084 253.501C74.8355 249.642 77.3367 245.888 81.1951 245.115Z" fill="#EBBAAA"/>
    <path d="M45.2728 271.305C45.4999 267.377 48.8687 264.376 52.7972 264.603C56.7256 264.83 59.7262 268.199 59.4991 272.127C59.241 276.592 58.9495 280.863 58.6042 285.358L58.4937 286.779C58.1859 290.668 57.3688 300.416 57.3459 300.698L57.1947 302.591C56.874 306.681 56.6696 309.83 56.5351 312.906C56.3184 317.856 56.3012 322.444 56.5048 327.314C56.6691 331.245 53.6151 334.566 49.6835 334.73C45.7519 334.894 42.4315 331.84 42.2672 327.909C42.0553 322.84 42.0637 318.044 42.2706 312.949L42.2987 312.283C42.4503 308.817 42.6824 305.311 43.0514 300.679L44.1122 287.839C44.1977 286.789 44.2712 285.875 44.3225 285.217C44.6938 280.455 45.0021 275.988 45.2728 271.305Z" fill="#EBBAAA"/>
    <path d="M41.75 318.626V330.876L57 331.501L56.625 320.001L41.75 318.626Z" fill="#F2EFEF"/>
    <path d="M77 319.501V330.876L92.25 331.501V319.501H77Z" fill="#F2EFEF"/>
    <path d="M61.3901 246.522C77.3361 246.522 90.2628 240.198 90.2628 232.398C90.2628 224.597 77.3361 218.274 61.3901 218.274C45.4443 218.274 32.5176 224.597 32.5176 232.398C32.5176 240.198 45.4443 246.522 61.3901 246.522Z" fill="#2E2E2D"/>
    <path d="M30.3535 216.594H64.1035L60.75 312.876L60 321.784L40.875 320.749L34.6815 312.876L30.3535 216.594Z" fill="#2E2E2D"/>
    <path d="M63.75 218.25H97.6143V315.501L93.5713 321.181L73.9462 322.859L72.8212 315.501L63.75 218.25Z" fill="#2E2E2D"/>
    <path d="M43.0082 328.109C43.9615 325.249 42.0812 322.944 41.022 322.149C40.4922 322.891 39.8302 326.651 38.6385 329.566L35.5267 333.339L30.826 338.966L25 341.746L28.0455 345.321C30.1198 343.734 42.0547 330.969 43.0082 328.109Z" fill="#3B3937"/>
    <path d="M61.1701 347.769C61.1701 347.769 61.3396 341.554 60.0169 338.111C58.6944 334.669 57.3316 325.789 57.3316 325.789C57.3316 325.789 54.9851 328.304 50.6156 328.304C46.2459 328.304 41.6114 327.251 41.6114 327.251C41.6114 327.251 33.4956 337.971 31.3769 339.296C29.2581 340.619 18.93 343.401 18.93 343.401C16.663 343.401 14.8252 345.239 14.8252 347.504V349.594H39.7189L61.1701 347.769Z" fill="#1C1B19"/>
    <mask id="mask0_6_2174" style="mask-type:luminance" maskUnits="userSpaceOnUse" x="14" y="325" width="48" height="25">
        <path fill-rule="evenodd" clip-rule="evenodd" d="M61.1699 347.769C61.1699 347.769 61.3394 341.554 60.0166 338.111C58.6941 334.669 57.3314 325.789 57.3314 325.789C57.3314 325.789 54.9849 328.304 50.6154 328.304C46.2456 328.304 41.6111 327.251 41.6111 327.251C41.6111 327.251 33.4954 337.971 31.3766 339.296C29.2579 340.619 20.0813 343.194 18.9519 343.269C16.6118 343.426 14.6128 345.111 14.6494 347.456L14.6808 349.466L39.7186 349.594L61.1699 347.769Z" fill="white"/>
    </mask>
    <g mask="url(#mask0_6_2174)">
        <path d="M18.3323 357.632C22.6085 357.816 26.2247 354.499 26.4092 350.223C26.5938 345.947 23.2768 342.331 19.0006 342.146C14.7244 341.962 11.1082 345.279 10.9236 349.555C10.7391 353.831 14.056 357.447 18.3323 357.632Z" fill="#D0CEC1"/>
    </g>
    <path d="M37.2387 329.799C37.3959 329.406 37.8315 329.208 38.2277 329.34L38.2715 329.356L39.5958 329.886C40.0032 330.049 40.2012 330.512 40.0382 330.919C39.881 331.312 39.4454 331.51 39.0492 331.377L39.0054 331.361L37.6811 330.831C37.2738 330.668 37.0757 330.206 37.2387 329.799Z" fill="#ECECEC"/>
    <path d="M35.5171 332.184C35.6743 331.791 36.1099 331.593 36.506 331.725L36.5499 331.741L37.8741 332.271C38.2815 332.434 38.4795 332.897 38.3165 333.304C38.1593 333.697 37.7237 333.895 37.3275 333.762L37.2837 333.746L35.9594 333.216C35.5521 333.053 35.354 332.591 35.5171 332.184Z" fill="#ECECEC"/>
    <path d="M33.6631 334.566C33.8203 334.173 34.2558 333.975 34.652 334.108L34.6959 334.124L36.0201 334.654C36.4275 334.817 36.6255 335.279 36.4625 335.687C36.3053 336.079 35.8697 336.278 35.4735 336.145L35.4297 336.129L34.1054 335.599C33.6981 335.436 33.5 334.974 33.6631 334.566Z" fill="#ECECEC"/>
    <path d="M31.2793 336.952C31.4358 336.559 31.8711 336.36 32.2675 336.492L32.3114 336.508L33.6356 337.036C34.0432 337.198 34.2421 337.66 34.0797 338.068C33.9231 338.461 33.4878 338.66 33.0915 338.528L33.0476 338.512L31.7233 337.984C31.3157 337.822 31.1169 337.36 31.2793 336.952Z" fill="#ECECEC"/>
    <path d="M29.1611 339.069C29.3183 338.676 29.7539 338.478 30.1501 338.61L30.1939 338.626L31.5182 339.156C31.9255 339.319 32.1236 339.782 31.9606 340.189C31.8033 340.582 31.3678 340.78 30.9716 340.647L30.9277 340.631L29.6035 340.101C29.1961 339.938 28.9981 339.476 29.1611 339.069Z" fill="#ECECEC"/>
    <path d="M61.4137 347.706L37.9765 348.766L14.6716 347.706L14.3041 350.754C14.1926 351.679 14.8968 352.499 15.8277 352.531L37.4905 353.266L49.5845 353.399L61.6785 353.001L61.4137 347.706Z" fill="#D0CEC1"/>
    <path d="M61.5272 350.222L61.565 351.281L54.8207 351.535L52.8344 351.607C49.2386 351.732 46.53 351.803 44.7567 351.81L44.3396 351.811L43.9448 351.809C40.6011 351.783 33.8974 351.534 30.987 351.307L30.6479 351.279L30.7398 350.224L31.0797 350.252C34.0411 350.482 40.9997 350.738 44.2125 350.751L44.6557 350.751C46.1512 350.747 48.3569 350.695 51.2351 350.601L53.3463 350.529L61.5272 350.222Z" fill="#1C1B19"/>
    <path d="M31.3558 353.004V350.619V349.691L14.5391 348.899L14.3002 351.046C14.2149 351.816 14.803 352.494 15.5756 352.516L31.3558 353.004Z" fill="#ECEADF"/>
    <path d="M51.8796 342.013C49.2469 342.013 47.1127 339.879 47.1127 337.246C47.1127 334.613 49.2469 332.479 51.8796 332.479C54.5123 332.479 56.6465 334.613 56.6465 337.246C56.6465 339.879 54.5123 342.013 51.8796 342.013Z" fill="#DCE0E4"/>
    <path d="M51.891 333.739C51.782 333.549 51.5018 333.566 51.417 333.769L50.6253 335.654C50.5915 335.734 50.5205 335.794 50.4353 335.811L48.4328 336.229C48.2178 336.271 48.1475 336.544 48.3138 336.689L49.863 338.024C49.929 338.081 49.9628 338.166 49.9533 338.254L49.7313 340.286C49.7073 340.504 49.944 340.654 50.1318 340.541L51.8808 339.481C51.9553 339.436 52.0473 339.429 52.1268 339.466L53.992 340.306C54.1923 340.396 54.4088 340.216 54.3585 340.004L53.8903 338.011C53.8705 337.926 53.8935 337.839 53.952 337.774L55.327 336.259C55.4745 336.096 55.3715 335.834 55.1528 335.816L53.1145 335.646C53.0275 335.639 52.9498 335.589 52.9065 335.514L51.891 333.739Z" fill="#5B568E"/>
    <path d="M91.3439 328.109C90.3859 325.249 92.2754 322.944 93.3397 322.151C93.8719 322.891 94.5372 326.651 95.7347 329.566L98.8614 333.339L103.585 338.966L109.439 341.746L106.379 345.324C104.294 343.734 92.3019 330.969 91.3439 328.109Z" fill="#3B3937"/>
    <path d="M73.0945 347.769C73.0945 347.769 72.924 341.554 74.253 338.111C75.582 334.669 76.9513 325.789 76.9513 325.789C76.9513 325.789 79.309 328.304 83.6998 328.304C88.0905 328.304 92.7473 327.251 92.7473 327.251C92.7473 327.251 100.902 337.971 103.031 339.296C105.16 340.619 115.538 343.401 115.538 343.401C117.816 343.401 119.663 345.246 119.663 347.524V349.594H94.6488L73.0945 347.769Z" fill="#1C1B19"/>
    <mask id="mask1_6_2174" style="mask-type:luminance" maskUnits="userSpaceOnUse" x="73" y="325" width="47" height="25">
        <path fill-rule="evenodd" clip-rule="evenodd" d="M73.094 347.769C73.094 347.769 72.9235 341.554 74.2525 338.111C75.5815 334.669 76.9508 325.789 76.9508 325.789C76.9508 325.789 79.3085 328.304 83.6993 328.304C88.09 328.304 92.7468 327.251 92.7468 327.251C92.7468 327.251 100.902 337.971 103.031 339.296C105.16 340.619 114.381 343.194 115.515 343.269C117.867 343.426 119.875 345.121 119.838 347.479L119.807 349.466L94.6483 349.594L73.094 347.769Z" fill="white"/>
    </mask>
    <g mask="url(#mask1_6_2174)">
        <path d="M116.139 357.632C111.842 357.818 108.208 354.503 108.023 350.226C107.837 345.95 111.17 342.333 115.467 342.146C119.764 341.96 123.397 345.275 123.583 349.552C123.768 353.828 120.435 357.445 116.139 357.632Z" fill="#D0CEC1"/>
    </g>
    <path d="M96.1054 329.356C96.513 329.193 96.9751 329.392 97.1375 329.8C97.294 330.193 97.1147 330.637 96.7362 330.813L96.6933 330.832L95.3626 331.362C94.9549 331.524 94.4929 331.325 94.3305 330.918C94.174 330.525 94.3533 330.081 94.7318 329.904L94.7747 329.886L96.1054 329.356Z" fill="#ECECEC"/>
    <path d="M97.8354 331.741C98.243 331.578 98.7051 331.777 98.8675 332.185C99.024 332.578 98.8447 333.022 98.4662 333.198L98.4233 333.217L97.0926 333.747C96.6849 333.909 96.2229 333.71 96.0605 333.303C95.9039 332.91 96.0833 332.466 96.4618 332.289L96.5046 332.271L97.8354 331.741Z" fill="#ECECEC"/>
    <path d="M99.6992 334.123C100.107 333.961 100.569 334.16 100.731 334.567C100.888 334.96 100.708 335.404 100.33 335.581L100.287 335.599L98.9563 336.129C98.5487 336.292 98.0866 336.093 97.9243 335.685C97.7677 335.292 97.947 334.849 98.3255 334.672L98.3684 334.653L99.6992 334.123Z" fill="#ECECEC"/>
    <path d="M102.094 336.508C102.502 336.346 102.964 336.546 103.125 336.954C103.281 337.347 103.101 337.79 102.723 337.966L102.68 337.985L101.349 338.512C100.941 338.674 100.48 338.475 100.318 338.067C100.162 337.673 100.342 337.23 100.721 337.054L100.764 337.035L102.094 336.508Z" fill="#ECECEC"/>
    <path d="M104.223 338.626C104.631 338.463 105.093 338.662 105.255 339.07C105.412 339.463 105.232 339.907 104.854 340.083L104.811 340.102L103.48 340.632C103.073 340.794 102.611 340.595 102.448 340.188C102.292 339.795 102.471 339.351 102.849 339.174L102.892 339.156L104.223 338.626Z" fill="#ECECEC"/>
    <path d="M72.849 347.706L96.3993 348.766L119.817 347.706L120.186 350.751C120.298 351.676 119.593 352.499 118.662 352.531L96.8878 353.266L84.7353 353.399L72.583 353.001L72.849 347.706Z" fill="#D0CEC1"/>
    <path d="M72.6973 351.281L72.7349 350.222L79.5129 350.477L81.5063 350.548C85.3122 350.68 88.126 350.752 89.8798 350.752L90.3961 350.749C93.7748 350.724 100.624 350.469 103.451 350.242L103.671 350.224L103.763 351.279L103.417 351.307C100.37 351.544 93.2003 351.804 90.0055 351.811L89.4845 351.81C87.8387 351.801 85.4228 351.74 82.2725 351.634L80.0637 351.557L72.6973 351.281Z" fill="#1C1B19"/>
    <path d="M103.053 353.004V350.619V349.691L119.95 348.899L120.19 351.046C120.276 351.814 119.688 352.494 118.915 352.516L103.053 353.004Z" fill="#ECEADF"/>
    <path d="M82.4295 342.013C85.0749 342.013 87.2194 339.879 87.2194 337.246C87.2194 334.613 85.0749 332.479 82.4295 332.479C79.7841 332.479 77.6396 334.613 77.6396 337.246C77.6396 339.879 79.7841 342.013 82.4295 342.013Z" fill="#DCE0E4"/>
    <path d="M82.4189 333.736C82.5281 333.546 82.8074 333.564 82.8926 333.764L83.6894 335.654C83.7231 335.734 83.7941 335.794 83.8794 335.811L85.8929 336.229C86.1081 336.271 86.1784 336.544 86.0114 336.689L84.4554 338.024C84.3891 338.081 84.3551 338.166 84.3646 338.254L84.5876 340.286C84.6116 340.504 84.3754 340.656 84.1876 340.544L82.4266 339.479C82.3524 339.436 82.2609 339.429 82.1816 339.466L80.3036 340.306C80.1034 340.396 79.8874 340.216 79.9376 340.004L80.4084 338.011C80.4284 337.926 80.4051 337.839 80.3464 337.774L78.9654 336.259C78.8174 336.096 78.9204 335.834 79.1394 335.816L81.1889 335.646C81.2756 335.639 81.3534 335.591 81.3969 335.514L82.4189 333.736Z" fill="#5B568E"/>
    <path d="M63.75 124.25C79.6283 124.25 95 118.374 95 111.125C95 75.5 79.6283 75.5 63.75 75.5C47.8717 75.5 32.5 75.5 32.5 111.125C32.5 118.374 47.8717 124.25 63.75 124.25Z" fill="#2D2427"/>
    <path d="M14.6885 149.617C17.0123 145.067 22.5842 143.263 27.1337 145.587C31.6833 147.91 33.4876 153.482 31.1637 158.032C27.9096 164.403 24.4722 177.31 22.7112 189.733L22.6309 190.307C21.8296 196.127 21.4772 201.323 21.6242 205.13C21.676 206.473 21.7885 207.566 21.9316 208.339L21.9629 208.501L21.9709 208.51C24.5977 211.517 25.0511 215.997 22.8241 219.526L22.7414 219.655C19.9457 223.931 14.2132 225.131 9.93741 222.335C6.88181 220.337 5.21136 217.417 4.23031 213.853C3.5966 211.55 3.2556 208.891 3.13795 205.844C2.93805 200.666 3.3931 194.199 4.39431 187.136C6.41778 172.862 10.3424 158.125 14.6885 149.617Z" fill="#EBBAAA"/>
    <path d="M97.1356 139.583C101.585 137.073 107.227 138.646 109.737 143.095C115.661 153.597 120.034 168.436 122.292 183.944C124.441 198.713 124.397 212.068 121.693 219.504C119.947 224.305 114.64 226.782 109.839 225.036C105.086 223.307 102.611 218.088 104.256 213.326L104.307 213.182C105.69 209.378 105.726 198.572 103.984 186.609C102.029 173.173 98.2715 160.424 93.6238 152.185C91.1138 147.735 92.6861 142.093 97.1356 139.583Z" fill="#EBBAAA"/>
    <path d="M107.625 125C105.325 122.7 97.75 120.375 94.25 119.5C96.4583 149 101.075 208.75 101.875 211.75C102.875 215.5 124.75 217 126.75 215.5C128.75 214 131 199.875 130.5 192.125C130 184.375 110.5 127.875 107.625 125Z" fill="#F2EEE2"/>
    <path d="M21.4796 124.746C23.6326 122.447 30.7236 120.124 34.0001 119.25C31.9328 148.727 27.6111 208.431 26.8621 211.428C25.9261 215.176 5.44873 216.674 3.57651 215.176C1.7043 213.677 -0.401942 199.563 0.0661096 191.819C0.534165 184.075 18.7883 127.618 21.4796 124.746Z" fill="#F2EEE2"/>
    <mask id="mask2_6_2174" style="mask-type:luminance" maskUnits="userSpaceOnUse" x="0" y="119" width="34" height="97">
        <path fill-rule="evenodd" clip-rule="evenodd" d="M21.4796 124.746C23.6326 122.447 30.7236 120.124 34.0001 119.25C31.9328 148.727 27.6111 208.431 26.8621 211.428C25.9261 215.176 5.44873 216.674 3.57651 215.176C1.7043 213.677 -0.401942 199.563 0.0661096 191.819C0.534165 184.075 18.7883 127.618 21.4796 124.746Z" fill="white"/>
    </mask>
    <g mask="url(#mask2_6_2174)">
        <path d="M4.58252 156.028L8.66694 150.972L8.71364 151.008C8.8382 151.101 9.07043 151.253 9.37742 151.436L9.44433 151.476C9.91178 151.751 10.4891 152.062 11.1385 152.386C12.6433 153.135 14.3982 153.885 16.2133 154.535C20.6335 156.116 24.8636 156.926 28.2321 156.678L28.4026 156.665L28.9539 163.141C24.5484 163.516 19.4827 162.58 14.2752 160.744L14.0232 160.655C10.0839 159.245 6.25546 157.346 4.64907 156.081L4.58252 156.028Z" fill="black"/>
        <path d="M5.76752 167.168C5.76109 167.152 5.77624 167.178 5.82114 167.237C5.90792 167.351 6.03735 167.491 6.20863 167.649C6.62377 168.031 7.21848 168.459 7.96614 168.904C9.55035 169.846 11.6941 170.789 14.1164 171.605C19.1222 173.292 24.5617 174.202 28.2417 173.928L28.4029 173.915L28.9542 180.391C24.2727 180.79 17.8977 179.739 12.0405 177.765L11.6599 177.635C5.5422 175.527 1.11297 172.861 -0.227118 169.681L-0.267578 169.582L5.76752 167.168Z" fill="black"/>
        <path d="M0.35846 182.937C1.33156 184.247 6.07071 186.561 11.9804 188.398L12.1599 188.454C18.4107 190.38 24.7283 191.452 28.4059 191.175L28.5275 191.165L29.0787 197.641C24.4265 198.037 17.2934 196.837 10.2461 194.666L9.80932 194.53C2.78016 192.325 -2.68492 189.644 -4.79518 186.898L-4.85938 186.813L0.35846 182.937Z" fill="black"/>
        <path d="M-2.42077 197.737C0.109061 200.072 5.41325 202.322 11.9296 203.884C17.9078 205.317 24.1996 205.991 28.2442 205.678L28.4027 205.665L28.954 212.141C24.1482 212.55 17.0981 211.807 10.4144 210.205L9.94716 210.091C2.73072 208.315 -3.2438 205.76 -6.71838 202.615L-6.82959 202.513L-2.42077 197.737Z" fill="black"/>
        <path d="M12.0419 135.472C12.9699 136.221 15.2706 137.401 17.8405 138.264C21.2213 139.399 24.7621 139.937 28.1753 139.683L28.4026 139.665L28.9539 146.141C24.5171 146.519 20.0209 145.853 15.771 144.425C12.575 143.352 9.64712 141.861 8.04366 140.597L7.95752 140.528L12.0419 135.472Z" fill="black"/>
    </g>
    <mask id="mask3_6_2174" style="mask-type:luminance" maskUnits="userSpaceOnUse" x="94" y="119" width="37" height="98">
        <path fill-rule="evenodd" clip-rule="evenodd" d="M107.625 125C105.325 122.7 97.75 120.375 94.25 119.5C96.4583 149 101.075 208.75 101.875 211.75C102.875 215.5 124.75 217 126.75 215.5C128.75 214 131 199.875 130.5 192.125C130 184.375 110.5 127.875 107.625 125Z" fill="white"/>
    </mask>
    <g mask="url(#mask3_6_2174)">
        <path d="M119.708 150.722L123.792 155.778C122.235 157.036 118.103 159.039 113.865 160.535C108.376 162.471 103.117 163.491 98.6819 163.158L98.4746 163.141L99.0259 156.665C102.417 156.954 106.92 156.092 111.702 154.405C113.638 153.722 115.518 152.936 117.12 152.16L117.413 152.016C117.988 151.731 118.501 151.46 118.922 151.218L119.052 151.142C119.365 150.959 119.591 150.812 119.69 150.736L119.708 150.722Z" fill="black"/>
        <path d="M124.835 165.016L130.165 168.735C125.76 175.049 108.766 181.116 98.7752 180.415L98.4746 180.392L99.0259 173.915C106.774 174.574 121.573 169.367 124.742 165.143L124.835 165.016Z" fill="black"/>
        <path d="M130.133 181.63L135.617 185.12C133.81 187.959 127.63 190.992 119.385 193.721L119.135 193.804C111.104 196.443 103.286 198.006 98.6152 197.653L98.4746 197.642L99.0259 191.165C102.582 191.468 109.765 190.041 117.106 187.629C120.571 186.49 123.784 185.223 126.246 184.022L126.557 183.869C127.632 183.333 128.523 182.827 129.193 182.373C129.495 182.169 129.74 181.982 129.924 181.822L129.977 181.775C130.083 181.68 130.135 181.623 130.135 181.627L130.133 181.63Z" fill="black"/>
        <path d="M131.728 198.528L131.829 198.438C131.856 198.413 131.869 198.401 131.867 198.406L131.865 198.409L137.385 201.841C135.385 205.059 128.931 207.579 119.623 209.698L119.141 209.806C111.338 211.547 103.225 212.512 98.616 212.153L98.4746 212.142L99.0259 205.665C102.899 205.995 110.748 205.051 118.18 203.36C121.937 202.505 125.308 201.522 127.859 200.526C129.141 200.025 130.183 199.534 130.941 199.077C131.278 198.874 131.542 198.688 131.728 198.528Z" fill="black"/>
        <path d="M115.195 135.482L119.305 140.518C117.733 141.8 114.781 143.33 111.553 144.426C107.415 145.83 103.04 146.5 98.7159 146.166L98.4712 146.146L99.0283 139.67C102.468 139.966 106.048 139.43 109.464 138.271C111.958 137.424 114.196 136.273 115.143 135.523L115.195 135.482Z" fill="black"/>
    </g>
    <path fill-rule="evenodd" clip-rule="evenodd" d="M63.5247 127.91C61.8355 121.982 59.0345 114.752 56.5 116.094C55.7545 116.488 55.3342 121.023 55.1332 128.091L54 128.469V115.5C46.5 115.5 39.125 117.219 33.5 119.719C28.1877 122.08 27.9177 128.849 27.5397 138.328C27.4402 140.822 27.3333 143.505 27.125 146.344L25.75 220.968L44.25 223.843L56.4998 223.967C56.4998 223.968 56.4998 223.968 56.4998 223.968H56.625H93.1247L102.625 221.343L100.875 143.469C100.875 143.469 98.6247 121.594 94.8747 119.594C91.1247 117.594 71.25 115.25 71.25 115.25L72.2497 126.594L63.9997 127.594L63.5247 127.91Z" fill="#FDF9EF"/>
    <mask id="mask4_6_2174" style="mask-type:luminance" maskUnits="userSpaceOnUse" x="25" y="115" width="78" height="109">
        <path fill-rule="evenodd" clip-rule="evenodd" d="M63.5247 127.91C61.8355 121.982 59.0345 114.752 56.5 116.094C55.7545 116.488 55.3342 121.023 55.1332 128.091L54 128.469V115.5C46.5 115.5 39.125 117.219 33.5 119.719C28.1877 122.08 27.9177 128.849 27.5397 138.328C27.4402 140.822 27.3333 143.505 27.125 146.344L25.75 220.968L44.25 223.843L56.4998 223.967C56.4998 223.968 56.4998 223.968 56.4998 223.968H56.625H93.1247L102.625 221.343L100.875 143.469C100.875 143.469 98.6247 121.594 94.8747 119.594C91.1247 117.594 71.25 115.25 71.25 115.25L72.2497 126.594L63.9997 127.594L63.5247 127.91Z" fill="white"/>
    </mask>
    <g mask="url(#mask4_6_2174)">
        <path d="M65.288 136.782C82.1931 136.603 97.8857 137.159 103.247 138.215L103.41 138.248L102.09 144.613C97.4684 143.655 81.6099 143.095 64.8302 143.288L64.3214 143.294C46.0441 143.521 31.166 144.573 26.4468 146.115L26.3069 146.162L24.1929 140.016C29.6409 138.142 44.6338 137.056 63.663 136.802L65.288 136.782Z" fill="black"/>
        <path d="M65.288 152.282C82.1931 152.103 97.8857 152.659 103.247 153.715L103.41 153.748L102.09 160.113C97.4684 159.155 81.6099 158.595 64.8302 158.788L64.3214 158.794C46.0441 159.021 31.166 160.073 26.4468 161.615L26.3069 161.662L24.1929 155.516C29.6409 153.642 44.6338 152.556 63.663 152.302L65.288 152.282Z" fill="black"/>
        <path d="M65.288 170.032C82.1931 169.853 97.8857 170.409 103.247 171.465L103.41 171.498L102.09 177.863C97.4684 176.905 81.6099 176.345 64.8302 176.538L64.3214 176.544C46.0441 176.771 31.166 177.823 26.4468 179.365L26.3069 179.412L24.1929 173.266C29.6409 171.392 44.6338 170.306 63.663 170.052L65.288 170.032Z" fill="black"/>
        <path d="M102.01 185.968L102.99 192.394L102.627 192.447C96.5636 193.318 80.8536 194.374 65.5529 194.908L65.0798 194.924C46.2336 195.569 31.397 195.358 24.5754 194.067L24.3711 194.027L25.629 187.65C31.5562 188.819 45.78 189.051 63.7528 188.465L64.8578 188.428C80.071 187.908 95.8508 186.852 101.667 186.019L102.01 185.968Z" fill="black"/>
        <path d="M102.01 201.787L102.99 208.213L102.627 208.266C96.5014 209.147 80.5292 210.216 65.0798 210.744L63.9426 210.782C45.6377 211.379 31.2592 211.152 24.5754 209.886L24.3711 209.847L25.6289 203.47C31.5562 204.639 45.7802 204.871 63.7527 204.285L64.8577 204.248C80.0715 203.727 95.851 202.671 101.667 201.838L102.01 201.787Z" fill="black"/>
        <path d="M65.288 121.282C82.1931 121.103 97.8857 121.659 103.247 122.715L103.41 122.748L102.09 129.113C97.4684 128.155 81.6099 127.595 64.8302 127.788L64.3214 127.794C46.0441 128.021 31.166 129.073 26.4468 130.615L26.3069 130.662L24.1929 124.516C29.6409 122.642 44.6338 121.556 63.663 121.302L65.288 121.282Z" fill="black"/>
    </g>
    <path d="M49.75 120.406C49.75 117.834 51.8345 115.75 54.4057 115.75H73.1845C75.7557 115.75 77.8403 117.834 77.8403 120.406C77.8403 127.188 72.3417 132.687 65.5592 132.687H62.031C55.2483 132.687 49.75 127.188 49.75 120.406Z" fill="#EBBAAA" stroke="#E2DBD0" stroke-width="5"/>
    <path d="M49.75 120.406C49.75 117.834 51.8345 115.75 54.4057 115.75H73.1845C75.7557 115.75 77.8403 117.834 77.8403 120.406C77.8403 127.188 72.3417 132.687 65.5592 132.687H62.031C55.2483 132.687 49.75 127.188 49.75 120.406Z" fill="#EBBAAA"/>
    <path d="M49.875 120.406C49.875 117.834 51.9595 115.75 54.5307 115.75H73.3095C75.8807 115.75 77.9653 117.834 77.9653 120.406C77.9653 127.188 72.4667 132.687 65.6842 132.687H62.156C55.3733 132.687 49.875 127.188 49.875 120.406Z" fill="#EBBAAA" stroke="#E2DBD0" stroke-width="5"/>
    <path d="M64.3565 87C69.591 87 73.8342 91.2432 73.8342 96.4777V115.71L73.8337 115.779C76.1582 116.04 77.9653 118.012 77.9653 120.406C77.9653 127.188 72.4667 132.687 65.6842 132.687H62.156C55.3733 132.687 49.875 127.188 49.875 120.406C49.875 118.012 51.682 116.04 54.0063 115.779L54.0058 115.71V96.4777C54.0058 91.2432 58.2492 87 63.4835 87H64.3565Z" fill="#EBBAAA"/>
    <path d="M53.8809 96.4777C53.8809 91.2432 58.1244 87 63.3586 87H64.2316C69.4661 87 73.7094 91.2432 73.7094 96.4777V115.71C73.7094 121.186 69.2706 125.624 63.7951 125.624C58.3196 125.624 53.8809 121.186 53.8809 115.71V96.4777Z" fill="#EBBAAA"/>
    <path d="M51.25 88.75C52.5797 90.4212 56.3563 93.75 63.484 93.75C70.6118 93.75 75.186 90.4212 76.25 88.75" stroke="#C99584" stroke-width="2.5" stroke-linecap="round"/>
    <path d="M40 85.5C44.1421 85.5 47.5 82.1421 47.5 78C47.5 73.8579 44.1421 70.5 40 70.5C35.8579 70.5 32.5 73.8579 32.5 78C32.5 82.1421 35.8579 85.5 40 85.5Z" fill="#F2CACA"/>
    <path d="M41.25 60.5H48.75" stroke="black" stroke-width="2.5" stroke-linecap="round"/>
    <path d="M78.75 60.5H86.25" stroke="black" stroke-width="2.5" stroke-linecap="round"/>
    <path d="M78.75 60.25V67.75" stroke="black" stroke-width="6" stroke-linecap="round"/>
    <path d="M48.751 60.25V67.75" stroke="black" stroke-width="6" stroke-linecap="round"/>
    <path d="M74.5 49.5L88.75 50.25" stroke="#271E1E" stroke-width="3" stroke-linecap="round"/>
    <path d="M53 49.5L38.75 50.25" stroke="#271E1E" stroke-width="3" stroke-linecap="round"/>
    <path d="M87.5 85.5C91.6421 85.5 95 82.1421 95 78C95 73.8579 91.6421 70.5 87.5 70.5C83.3579 70.5 80 73.8579 80 78C80 82.1421 83.3579 85.5 87.5 85.5Z" fill="#F2CACA"/>
    <path d="M63.75 66.5C61.25 70.25 58.75 79 66.25 79" stroke="#EBBAAA" stroke-width="4.25"/>
    <path d="M88.588 51.118C83.598 47.8208 74.2003 34.2573 70.125 27.8878C93.7027 21.7681 103.558 39.253 105.554 51.118C107.55 62.9828 107.751 65.3535 107.875 67.25C108.25 73 108.798 76.375 108.798 80.7198C109.213 97.7885 113.819 129.075 108.798 131.549C102.206 134.796 83.493 135.046 86.6117 126.304C89.7305 117.561 98.9422 62.1085 97.9443 59.236C96.9463 56.3635 94.8255 55.2395 88.588 51.118Z" fill="#2D2427"/>
    <path fill-rule="evenodd" clip-rule="evenodd" d="M63.7218 2.50002C63.7038 2.49997 63.7396 2.50002 63.7218 2.50002C74.9228 2.50002 94.1958 8.17107 101.275 22.7501C105.01 30.4432 104.413 35.8855 103.778 45.25C96.0083 35.3685 74.8933 28.75 63.7215 28.75C49.614 28.75 34.7186 36.71 23.6653 45.25C23.1591 35.8407 22.4335 30.4432 26.1688 22.7501C33.2476 8.17107 52.2288 2.49987 63.7218 2.50002Z" fill="#614D4E"/>
    <path fill-rule="evenodd" clip-rule="evenodd" d="M63.7469 1.66667e-06C63.7449 -2.08333e-06 63.7489 1.66667e-06 63.7469 1.66667e-06C64.9914 1.66667e-06 67.1329 0.630119 67.9194 2.25001C68.3344 3.10482 68.2681 3.7095 68.1976 4.75C67.3344 3.65205 64.9881 2.91667 63.7469 2.91667C62.1794 2.91667 60.5244 3.80112 59.2961 4.75C59.2399 3.70452 59.1594 3.10482 59.5744 2.25001C60.3609 0.630119 62.4699 -1.35833e-05 63.7469 1.66667e-06Z" fill="#272727"/>
    <path d="M38.9118 51.868C43.9018 48.5708 53.2998 35.0073 57.3751 28.6378C33.7971 22.5181 23.9418 40.003 21.9458 51.868C19.9498 63.7328 20 64.375 19.375 70C19.2071 71.511 18.8386 75.875 18.7023 81.4698C18.2864 98.5385 13.6804 129.825 18.7023 132.299C25.2943 135.546 44.0068 135.796 40.8881 127.054C37.7693 118.311 28.5576 62.8585 29.5556 59.986C30.5536 57.1135 32.6743 55.9895 38.9118 51.868Z" fill="#2D2427"/>
    <path fill-rule="evenodd" clip-rule="evenodd" d="M63.7329 22.5C63.7162 22.5 63.7497 22.5 63.7329 22.5C78.8284 22.5 103.073 28.8227 101.141 50.25C93.8852 43.308 74.1662 39.1852 63.7329 39.1852C50.5579 39.1852 36.6472 44.2505 26.3244 50.25C24.7546 28.296 48.3759 22.4999 63.7329 22.5Z" fill="#413F3F"/>
    <path d="M26.375 51.25C26.375 30.5392 43.1642 13.75 63.875 13.75C84.5855 13.75 101.375 30.5392 101.375 51.25V68.3435L100.659 78.2462C99.517 94.0225 88.3047 107.37 73.0065 111.39C67.452 112.849 61.575 112.975 55.969 111.729C41.445 108.502 30.3955 96.6837 28.1505 81.976L26.8755 73.6235C26.5423 71.441 26.375 69.2362 26.375 67.0285V51.25Z" fill="#F4D5CC"/>
    <path d="M72.0816 91.1523C72.5499 90.645 73.3407 90.6133 73.848 91.0816C74.3552 91.5499 74.3869 92.3407 73.9186 92.848C72.2174 94.6909 67.7409 96.1251 64.3751 96.1251C60.8121 96.1251 58.1922 95.2617 55.0276 93.0201C54.4642 92.6211 54.331 91.8409 54.7301 91.2776C55.1291 90.7142 55.9093 90.581 56.4726 90.9801C59.2218 92.9274 61.339 93.6251 64.3751 93.6251C67.0703 93.6251 70.8246 92.4341 72.0327 91.2035L72.0816 91.1523Z" fill="#C99584"/>
    <path d="M41.375 60.5H48.875" stroke="black" stroke-width="2.5" stroke-linecap="round"/>
    <path d="M78.875 60.5H86.375" stroke="black" stroke-width="2.5" stroke-linecap="round"/>
    <path d="M78.875 60.25V67.75" stroke="black" stroke-width="6" stroke-linecap="round"/>
    <path d="M48.876 60.25V67.75" stroke="black" stroke-width="6" stroke-linecap="round"/>
    <path d="M74.75 51.5H88.8752" stroke="#271E1E" stroke-width="3" stroke-linecap="round"/>
    <path d="M53 51.5H38.7505" stroke="#271E1E" stroke-width="3" stroke-linecap="round"/>
    <path d="M62.1069 65.3213L65.6431 67.6788C64.4413 69.4815 63.5 72.1876 63.5 74.1563C63.5 76.0545 64.1855 76.8525 66.2842 76.8746L66.375 76.875V81.125C61.7392 81.125 59.25 78.3247 59.25 74.1563C59.25 71.3325 60.4247 67.9047 62.0195 65.454L62.1069 65.3213Z" fill="#EBBAAA"/>
    <path d="M86.713 51.868C81.723 48.5708 72.3253 35.0073 68.25 28.6378C91.8277 22.5181 101.683 40.003 103.679 51.868C105.675 63.7328 105.876 66.1035 106 68C106.375 73.75 106.923 77.125 106.923 81.4698C107.338 98.5385 111.944 129.825 106.923 132.299C100.331 135.546 74.446 136.399 82.25 127.875C86.713 123 89.8515 112.081 92.125 99.125C95.2052 81.5718 96.6435 61.6388 96.0693 59.986C95.0713 57.1135 92.9505 55.9895 86.713 51.868Z" fill="#2D2427"/>
    <path d="M42.7868 51.868C47.7768 48.5708 57.1748 35.0073 61.2501 28.6378C37.6721 22.5181 27.8168 40.003 25.8208 51.868C23.8248 63.7328 23.875 64.375 23.25 70C23.0821 71.511 22.7136 75.875 22.5773 81.4698C22.1614 98.5385 17.5554 129.825 22.5773 132.299C29.1693 135.546 53.2421 135.193 47.3751 128C42.7868 122.375 39.4371 112.836 37.0001 98.625C34.1703 82.125 32.8943 61.5293 33.4306 59.986C34.4286 57.1135 36.5493 55.9895 42.7868 51.868Z" fill="#2D2427"/>
    <path fill-rule="evenodd" clip-rule="evenodd" d="M63.8719 1.66667e-06C63.8699 -2.08333e-06 63.8739 1.66667e-06 63.8719 1.66667e-06C65.1164 1.66667e-06 67.2579 0.630119 68.0444 2.25001C68.4594 3.10482 68.3931 3.7095 68.3226 4.75C67.4594 3.65205 65.1131 2.91667 63.8719 2.91667C62.3044 2.91667 60.6494 3.80112 59.4211 4.75C59.3649 3.70452 59.2844 3.10482 59.6994 2.25001C60.4859 0.630119 62.5949 -1.35833e-05 63.8719 1.66667e-06Z" fill="#272727"/>
    <path fill-rule="evenodd" clip-rule="evenodd" d="M63.9718 2.50002C63.9538 2.49997 63.9896 2.50002 63.9718 2.50002C75.1728 2.50002 94.4458 8.17107 101.525 22.7501C105.26 30.4432 104.663 35.8855 104.028 45.25C96.2583 35.3685 75.1433 28.75 63.9715 28.75C49.864 28.75 34.9686 36.71 23.9153 45.25C23.4091 35.8407 22.6835 30.4432 26.4188 22.7501C33.4976 8.17107 52.4788 2.49987 63.9718 2.50002Z" fill="#614D4E"/>
    <path fill-rule="evenodd" clip-rule="evenodd" d="M63.9829 22.5C63.9662 22.5 63.9997 22.5 63.9829 22.5C79.0784 22.5 103.323 28.8227 101.391 50.25C94.1352 43.308 74.4162 39.1852 63.9829 39.1852C50.8079 39.1852 36.8972 44.2505 26.5744 50.25C25.0047 28.296 48.6259 22.4999 63.9829 22.5Z" fill="#715E5F"/>
    <path d="M51.04 9.91211H49.5353L48.8742 13.3187H46.2637L46.9249 9.91211H45.4201L43.79 18.1621H45.2948L45.9901 14.6628H48.6006L47.9052 18.1621H49.4099L51.04 9.91211Z" fill="white"/>
    <path fill-rule="evenodd" clip-rule="evenodd" d="M56.3109 9.91211L57.54 18.1621H55.9715L55.7959 16.6558H52.9748L52.1905 18.1621H50.54L55.0818 9.91211H56.3109ZM53.6071 15.4044H55.679L55.281 12.2295L53.6071 15.4044Z" fill="white"/>
    <path fill-rule="evenodd" clip-rule="evenodd" d="M62.8437 9.91211C64.2351 9.91211 65.04 10.8043 65.04 12.0905C65.04 13.562 63.9821 14.9641 62.0158 14.9641H60.4404L59.8079 18.1621H58.29L59.9344 9.91211H62.8437ZM62.0733 13.6084C63.0623 13.6084 63.5107 12.8437 63.5107 12.218C63.5107 11.6965 63.2692 11.2678 62.5908 11.2678H61.1879L60.7164 13.6084H62.0733Z" fill="white"/>
    <path fill-rule="evenodd" clip-rule="evenodd" d="M69.8437 9.91211C71.2351 9.91211 72.04 10.8043 72.04 12.0905C72.04 13.562 70.9821 14.9641 69.0158 14.9641H67.4404L66.8079 18.1621H65.29L66.9344 9.91211H69.8437ZM69.0733 13.6084C70.0623 13.6084 70.5107 12.8437 70.5107 12.218C70.5107 11.6965 70.2692 11.2678 69.5908 11.2678H68.1879L67.7164 13.6084H69.0733Z" fill="white"/>
    <path d="M79.04 9.91211H77.3688L75.2626 13.3303L74.3926 9.91211H72.79L74.2667 14.7787L73.5913 18.1621H75.1023L75.7662 14.8366L79.04 9.91211Z" fill="white"/>
    <path fill-rule="evenodd" clip-rule="evenodd" d="M80.4752 9.91211H82.29L80.7955 15.566H79.6924L80.4752 9.91211ZM79.9178 16.4314C80.4041 16.4314 80.8074 16.8352 80.8074 17.3083C80.8074 17.7814 80.4041 18.1622 79.9178 18.1622C79.4315 18.1622 79.04 17.7814 79.04 17.3083C79.04 16.8352 79.4315 16.4314 79.9178 16.4314Z" fill="white"/>
    <path fill-rule="evenodd" clip-rule="evenodd" d="M53.1009 8.42075C53.5293 7.79351 54.2386 7.41211 55.0037 7.41211H56.2168C57.0059 7.41211 57.7129 7.81403 58.1311 8.43791C58.5505 7.81219 59.259 7.41211 60.0455 7.41211H62.9684C63.8083 7.41211 64.6404 7.60644 65.3683 8.03384C65.7839 7.64521 66.3387 7.41211 66.9392 7.41211H69.8621C70.4871 7.41211 71.1084 7.51984 71.6852 7.75128C72.0422 7.53232 72.4564 7.41211 72.8853 7.41211H74.5027C75.0688 7.41211 75.5965 7.61988 76.0046 7.9719C76.4173 7.61553 76.9482 7.41211 77.5065 7.41211H79.1932C79.4107 7.41211 79.6236 7.44295 79.8269 7.50148C80.0291 7.44321 80.2423 7.41211 80.4618 7.41211H82.2294C82.9437 7.41211 83.6178 7.74547 84.0554 8.31508C84.4929 8.88472 84.6451 9.6266 84.4672 10.3247L83.0115 16.0377C82.993 16.11 82.9714 16.1807 82.9468 16.2498C83.0439 16.5575 83.0959 16.8831 83.0959 17.2175C83.0959 19.0239 81.6281 20.4121 79.9188 20.4121C78.8374 20.4121 77.8834 19.8663 77.3127 19.0325C76.9398 19.838 76.132 20.3771 75.219 20.3771H73.694C73.0008 20.3771 72.3446 20.0632 71.9056 19.5219C71.4668 18.9806 71.2918 18.269 71.429 17.5835L71.637 16.5448C70.9542 16.9011 70.179 17.1096 69.3445 17.1514L69.078 18.501C68.8628 19.5917 67.914 20.3771 66.8121 20.3771H65.2871C64.5945 20.3771 63.9383 20.0636 63.4996 19.523C63.0605 18.9823 62.8852 18.2714 63.0215 17.5862L63.1223 17.0799C62.9034 17.116 62.6796 17.1399 62.4511 17.1514L62.1845 18.501C61.9694 19.5917 61.0206 20.3771 59.9184 20.3771H58.3934C58.2302 20.3771 58.0687 20.3597 57.9116 20.3259C57.7545 20.3597 57.593 20.3771 57.4299 20.3771H55.8817C55.1207 20.3771 54.4385 20.004 54.0156 19.421C53.585 20.0161 52.8944 20.3771 52.1501 20.3771H50.5211C50.3553 20.3771 50.1924 20.3593 50.0342 20.3248C49.8765 20.3591 49.713 20.3771 49.5463 20.3771H48.0213C47.543 20.3771 47.0824 20.2277 46.6985 19.9572C46.321 20.2233 45.8632 20.3771 45.3757 20.3771H43.8507C43.1581 20.3771 42.5021 20.0636 42.0631 19.523C41.6244 18.9823 41.4488 18.2714 41.5854 17.5862L43.2375 9.28481C43.4541 8.19572 44.402 7.41211 45.5028 7.41211H47.0278C47.5058 7.41211 47.9667 7.56155 48.3506 7.83204C48.7278 7.56598 49.1856 7.41211 49.6734 7.41211H51.1984C51.891 7.41211 52.547 7.72563 52.986 8.26632C53.0264 8.3164 53.0648 8.36793 53.1009 8.42075ZM80.567 17.7887C80.673 17.67 80.7467 17.522 80.7738 17.3582C80.7813 17.3124 80.7854 17.2654 80.7854 17.2174C80.7854 17.1694 80.7813 17.1222 80.7738 17.076C80.7057 16.6616 80.3449 16.3313 79.9189 16.3313C79.8429 16.3313 79.7693 16.3418 79.6994 16.3614C79.3329 16.464 79.064 16.816 79.064 17.2174C79.064 17.4151 79.064 17.7887 79.6994 18.0802C80.2442 18.0802 80.567 17.7887 80.567 17.7887ZM79.6993 15.4569H80.7738L82.2295 9.7439H80.4618L79.6993 15.4569ZM56.2169 9.7439H55.0038L50.5212 18.0452H52.1502L52.9243 16.5295H55.7086L55.8819 18.0452H57.43L56.2169 9.7439ZM55.2002 12.0757L53.5481 15.2703H55.593L55.2002 12.0757ZM58.3936 18.0452H59.9186L60.554 14.8273H62.1367C62.1561 14.8273 62.1755 14.8272 62.1945 14.8269C62.7499 14.8191 63.232 14.6988 63.6366 14.4967C64.6036 14.0138 65.131 13.0639 65.1726 12.0641C65.1743 12.0214 65.1752 11.9787 65.1752 11.9358C65.1752 11.2263 64.9323 10.636 64.4823 10.2474C64.1115 9.92715 63.6002 9.7439 62.9686 9.7439H60.0456L58.3936 18.0452ZM63.2801 13.0101C63.5233 12.7376 63.6386 12.383 63.6386 12.0642C63.6386 12.0208 63.6371 11.978 63.6337 11.936C63.6241 11.8197 63.601 11.7097 63.5617 11.6103C63.556 11.5955 63.5496 11.5809 63.5433 11.5666C63.4439 11.3495 63.2617 11.1887 62.9685 11.1312C62.8917 11.1161 62.807 11.1082 62.7143 11.1082H61.3049L60.8312 13.4633H62.1944C62.2964 13.4633 62.3929 13.4552 62.4833 13.44C62.5093 13.4357 62.5347 13.4308 62.5595 13.4253C62.6132 13.4135 62.6649 13.3991 62.7143 13.3823C62.9491 13.303 63.1369 13.1709 63.2801 13.0101ZM65.2872 18.0452H66.8122L67.4477 14.8273H69.0304C69.0498 14.8273 69.0688 14.8272 69.0882 14.8269C70.2831 14.8101 71.1377 14.2725 71.6172 13.5191C71.8927 13.0861 72.0446 12.5818 72.066 12.0641C72.068 12.0214 72.0689 11.9787 72.0689 11.9358C72.0689 11.2103 71.8147 10.6094 71.3451 10.2214C71.1319 10.0453 70.8746 9.91313 70.5765 9.833C70.3593 9.77468 70.1207 9.7439 69.8622 9.7439H66.9393L65.2872 18.0452ZM70.1736 13.0101C70.4168 12.7376 70.5324 12.383 70.5324 12.0642C70.5324 12.0208 70.5306 11.978 70.5272 11.936C70.5176 11.8197 70.4945 11.7097 70.4553 11.6103C70.4495 11.5955 70.4434 11.5809 70.4368 11.5666C70.3377 11.3495 70.1552 11.1887 69.8623 11.1312C69.7852 11.1161 69.7008 11.1082 69.6081 11.1082H68.1987L67.725 13.4633H69.0882C69.1902 13.4633 69.2864 13.4552 69.3768 13.44C69.4028 13.4357 69.4282 13.4308 69.453 13.4253C69.5067 13.4135 69.5584 13.3991 69.6081 13.3823C69.8427 13.303 70.0304 13.1709 70.1736 13.0101ZM73.6941 18.0452H75.2191L75.8892 14.6991L79.1934 9.7439H77.5066L75.3808 13.1834L74.5028 9.7439H72.8854L74.3757 14.6408L73.6941 18.0452ZM48.0215 18.0452L48.7262 14.5242H46.0806L45.3758 18.0452H43.8508L45.5029 9.7439H47.0279L46.3578 13.1717H49.0035L49.6736 9.7439H51.1986L49.5465 18.0452H48.0215Z" fill="#3F3334"/>
    <path d="M60.0433 63.2896C61.3875 57.0403 57.5878 50.9793 51.3968 49.4981L46.4448 48.3131C45.6793 48.1301 44.8955 48.0226 44.1045 47.9928L40.7003 47.8638C33.93 47.6076 28.1228 52.9466 27.8573 59.6713L27.624 65.5851C27.442 70.1933 29.9488 74.4193 34.0655 76.4453L35.677 77.2386C38.5965 78.6753 42.0163 78.8471 45.1398 77.7136L51.4503 75.4236C55.4743 73.9636 58.485 70.5326 59.3755 66.3928L60.0433 63.2896Z" fill="#302F35" fill-opacity="0.98" stroke="#C9A38D"/>
    <path d="M67.6027 64.0637C66.3712 57.8114 70.2297 51.5424 76.3849 49.7944L81.2237 48.4202C81.9889 48.2029 82.7717 48.0622 83.5602 48.0002L86.8562 47.7404C93.5652 47.2119 99.2309 52.3622 99.3919 59.1349L99.5342 65.1167C99.6447 69.7577 97.1004 74.1244 92.9949 76.3407L91.4657 77.1662C88.5382 78.7464 85.1292 79.0584 82.0392 78.0289L75.9079 75.9857C71.9534 74.6679 69.0339 71.3294 68.2192 67.1937L67.6027 64.0637Z" fill="#302F35" fill-opacity="0.98" stroke="#C9A38D"/>
    <path d="M58.4351 54.8261C61.9034 53.092 65.5746 53.0758 69.2585 54.7448L69.402 54.8107L68.3481 57.0777C65.3404 55.6794 62.4601 55.6535 59.6813 56.9991L59.5531 57.0622L58.4351 54.8261Z" fill="#C9A38D"/>
    <path d="M45.1359 45.6207C45.2313 45.4368 45.4576 45.365 45.6414 45.4604L46.3899 45.8467C54.3427 49.9312 58.6583 51.4856 63.4187 51.6839C68.899 51.9123 74.7673 50.0831 83.3473 45.4631C83.5296 45.3649 83.7571 45.4332 83.8553 45.6155C83.9534 45.7979 83.8852 46.0253 83.7029 46.1235C75.015 50.8016 69.0263 52.6682 63.3875 52.4333C58.3386 52.2229 53.8229 50.5473 45.2962 46.1262C45.1124 46.0309 45.0406 45.8045 45.1359 45.6207Z" fill="#C9A38D"/>
</svg>
