<svg width="134" height="336" viewBox="0 0 134 336" fill="none" xmlns="http://www.w3.org/2000/svg">
    <path d="M96 270C80.8 267.8 53.6667 269.082 42 270L27.25 246L34.5 199.25L97 211C103.333 230.167 111.2 272.2 96 270Z" fill="#3A4136"/>
    <path d="M77.8292 216.419C79.0579 222.361 79.9586 238.648 80.4768 261.592C80.8493 278.085 80.9999 296.345 80.9999 313.062C80.9999 317.205 84.3577 320.562 88.4999 320.562C92.642 320.562 95.9999 317.205 95.9999 313.062C95.9999 296.241 95.8485 277.877 95.473 261.253C94.9292 237.179 94.0129 220.609 92.5185 213.382C91.6797 209.325 87.7114 206.717 83.6551 207.556C79.5988 208.395 76.9905 212.363 77.8292 216.419Z" fill="#F6DDD6"/>
    <path d="M48.4056 209.481C46.7719 217.382 45.3101 236.359 44.7256 256.6C44.0714 279.255 44.5992 299.269 46.4773 310.998C47.1321 315.088 50.9786 317.873 55.0687 317.218C59.1587 316.563 61.9435 312.717 61.2886 308.627C59.5985 298.071 59.0906 278.809 59.7194 257.033C60.2796 237.631 61.6911 219.307 63.0948 212.519C63.9336 208.462 61.3252 204.494 57.2689 203.655C53.2126 202.817 49.2443 205.425 48.4056 209.481Z" fill="#F6DDD6"/>
    <path d="M66.75 224.061C83.8708 224.061 97.75 216.45 97.75 207.061C97.75 197.672 83.8708 190.061 66.75 190.061C49.6292 190.061 35.75 197.672 35.75 207.061C35.75 216.45 49.6292 224.061 66.75 224.061Z" fill="#2A2A2A"/>
    <path d="M33.5 198.354L65.5 200.75L61.75 307.25C61.75 307.25 57.625 308.875 53.25 309C48.875 309.125 45.25 307.25 45.25 307.25L33.5 198.354Z" fill="#2B2B2B"/>
    <path d="M45.25 307.5L44.875 303.625C50.175 305.925 58.5 304.582 61.875 303.625V307.5C60.4167 308 56.425 309 53.125 309C49.825 309 46.5 308 45.25 307.5Z" fill="#3F3F40"/>
    <path d="M64.4092 221.963C80.7426 221.963 93.9835 215.143 93.9835 206.731C93.9835 198.319 80.7426 191.5 64.4092 191.5C48.0758 191.5 34.835 198.319 34.835 206.731C34.835 215.143 48.0758 221.963 64.4092 221.963Z" fill="#2B2B2B"/>
    <path d="M71.0708 201.4H102.549L96.2501 308C96.2501 308 93.2501 309.5 88.5001 309.5C83.7501 309.5 80.7501 308 80.7501 308L71.0708 201.4Z" fill="#2B2B2B"/>
    <path d="M80.875 308.125L80.5 304.25C85.8 306.55 93.125 305.207 96.5 304.25V308.125C95.0417 308.625 92.05 309.625 88.75 309.625C85.45 309.625 82.125 308.625 80.875 308.125Z" fill="#3F3F40"/>
    <path d="M41.3521 125.914C41.3521 142.868 28.1021 165.181 21.8521 189.914" stroke="#F6DDD6" stroke-width="18.5" stroke-linecap="round" stroke-linejoin="bevel"/>
    <rect x="32.8516" y="100.414" width="67.5" height="64.5" rx="28" fill="#E1E8EE"/>
    <path d="M104.703 105.086C109.503 107.686 113.5 119 111.5 124L31.6017 115.423C25.1849 108.839 39.0442 98.7644 60.5275 93.2899C67.4061 91.537 82.0182 95.3639 91.4997 97.25C95.0584 97.9579 98.7035 101.836 104.703 105.086Z" fill="#414A3B"/>
    <path d="M27.852 163.882L6.25 145.75L32.352 111.382L40.602 106.882L53.352 102.882L50.102 136.632L27.852 163.882Z" fill="#A97219"/>
    <path d="M98.3521 158.382L127.352 144.382L101.852 110.382L85.8521 102.882L77.1021 105.821L85.8521 138.664L98.3521 158.382Z" fill="#A97219"/>
    <path d="M35.6629 138.345L40.5774 121.364L48.8151 104.132L61.1454 106.63L84.1619 104.132C99.4554 127.357 96.2661 135.099 101.786 158.324C107.306 181.549 102.277 200.652 101.786 202.4C101.295 204.148 98.5969 203.524 98.5969 203.524L84.1619 194.784C84.1619 194.784 76.6401 196.408 65.4779 196.033C54.3156 195.658 47.5691 193.661 47.5691 193.661C47.5691 193.661 38.9826 197.655 35.6629 201.526C32.3429 205.397 31.6229 200.777 31.6229 200.777C29.4851 191.833 29.0319 183.323 29.5441 174.306C30.2861 161.242 33.0549 148.688 35.6629 138.345Z" fill="#B97D1B"/>
    <path d="M69.75 130.75C81.7622 130.75 91.5 123.251 91.5 114C91.5 104.749 81.7622 97.25 69.75 97.25C57.7378 97.25 48 104.749 48 114C48 123.251 57.7378 130.75 69.75 130.75Z" fill="#A66C0F"/>
    <path d="M91.25 151.25C92.927 144.85 97 123.5 101.25 109.25C101.25 109.25 109.5 113.25 113 117.5C116.5 121.75 127.25 142.061 127.25 142.061C124.105 148.561 123.305 148.919 116.768 162.561C108.383 180.061 116.768 229.5 116.768 267C116.768 267 109 270 101.25 272.5C93.5 275 83.75 272.5 83.75 272.5V199.561C85.5 177 89.573 157.65 91.25 151.25Z" fill="#4F5D46"/>
    <path d="M122.75 209.5C117.917 206.667 111.8 202.3 111 201.5L107.25 226.5L114.75 241.75C115 237.75 117 227.2 120 223C123 218.8 122.75 214 122.75 209.5Z" fill="#4F5D46"/>
    <path d="M132.125 163.75C132.125 163.75 130.5 147.245 128.75 143.623C127 140 124.75 137.75 124.75 137.75L120.75 133.5L112.75 165.5V194L110 209L123 213.122L130.5 203L133.75 186.623L130.5 179.625L133 172.123L130.875 165.5L132.125 163.75Z" fill="#424B3C"/>
    <path d="M123 162.5L112.5 167.252H123V162.5Z" fill="#393F35"/>
    <path d="M120.777 170.934L112.547 168.75L119.829 175.591L120.777 170.934Z" fill="#393F35"/>
    <path d="M109.75 202.872L124.879 208.424L123.017 213.923L107.844 208.639L109.75 202.872Z" fill="#5D6856"/>
    <path d="M120.499 332.295C120.946 331.29 120.625 329.045 120.374 328.67C120.124 328.295 89.7483 325.92 89.7483 325.92C84.7068 325.545 75.3141 325.58 74.6233 328.295C72.8733 335.17 77.6246 335.17 81.6246 335.17C87.1246 335.17 87.7773 333.712 91.3733 334.17C93.2483 334.407 95.9986 335.67 108.624 335.67C118.749 335.67 119.499 334.545 120.499 332.295Z" fill="#C9D1DC"/>
    <path d="M89.1242 315.352C84.0242 315.252 82.3324 311.977 82.1242 310.352H79.4994C79.2494 310.727 78.4369 311.602 77.8744 314.227C77.1244 317.727 75.8744 318.352 75.1244 321.602C74.6052 323.852 74.4994 327.227 75.7494 329.102C77.6907 332.015 80.1244 331.727 84.2494 331.727C86.6244 331.727 90.6244 331.102 94.2494 332.102C99.3104 333.5 113.249 334.227 116.75 333.102C122.714 331.185 120.874 325.602 118.375 323.477C113.988 319.747 105.513 320.005 103.374 317.102C101.625 314.727 100.629 308.997 99.3744 307.602C97.1244 305.102 95.5959 307.305 95.9994 309.727C96.4992 312.727 95.4992 315.477 89.1242 315.352Z" fill="#3B434E"/>
    <mask id="mask0_6_3873" style="mask-type:luminance" maskUnits="userSpaceOnUse" x="74" y="306" width="47" height="28">
        <path d="M89.1242 315.352C84.0242 315.252 82.3324 311.977 82.1242 310.352H79.4994C79.2494 310.727 78.4369 311.602 77.8744 314.227C77.1244 317.727 75.8744 318.352 75.1244 321.602C74.6052 323.852 74.4994 327.227 75.7494 329.102C77.6907 332.015 80.1244 331.727 84.2494 331.727C86.6244 331.727 90.6244 331.102 94.2494 332.102C99.3104 333.5 113.249 334.227 116.75 333.102C122.714 331.185 120.874 325.602 118.375 323.477C113.988 319.747 105.513 320.005 103.374 317.102C101.625 314.727 100.629 308.997 99.3744 307.602C97.1244 305.102 95.5959 307.305 95.9994 309.727C96.4992 312.727 95.4992 315.477 89.1242 315.352Z" fill="white"/>
    </mask>
    <g mask="url(#mask0_6_3873)">
        <path d="M109.972 323.75C108.272 323.35 100.43 319.25 96.7222 317.25C90.3472 319.125 85.5972 325.75 81.9722 332.375C82.0972 333.875 96.5067 335.34 98.0972 333.375C100.222 330.75 104.097 325.375 109.972 323.75Z" fill="#32373F"/>
        <path d="M115.723 327.395C117.677 327.395 118.165 325.965 118.165 325.25C118.307 327.477 118.272 332.263 116.997 333.573C115.405 335.213 102.322 334.33 100.729 333.573C99.137 332.815 105.401 327.543 106.781 328.55C108.162 329.56 109.247 330.548 110.946 329.033C112.644 327.52 113.281 327.395 115.723 327.395Z" fill="#32373F"/>
        <path d="M116.848 326.625C116.948 325.125 119.056 324.212 119.348 324.252L123.473 324.502L122.973 332.002L117.723 335.002C116.723 334.962 110.348 333.875 114.348 333.875C116.223 333.875 116.598 333.127 117.723 332.002C118.848 330.877 116.723 328.5 116.848 326.625Z" fill="#C8D1DC"/>
        <path d="M97.5 310.227C97.2 308.427 96.625 307.31 96.375 306.977L96.8747 305.727H99.75C101.083 306.895 103.325 309.752 101.625 311.852C99.5 314.477 97.875 312.477 97.5 310.227Z" fill="#C8D1DC"/>
    </g>
    <path d="M101.099 321.194C101.058 321.739 101.595 322.143 102.107 321.953L107.051 320.126L107.865 323.788C107.976 324.286 108.542 324.531 108.98 324.27L113.605 321.52C113.962 321.308 114.079 320.848 113.867 320.492C113.655 320.136 113.195 320.019 112.839 320.23L109.105 322.451L108.329 318.962C108.231 318.519 107.763 318.264 107.337 318.422L102.682 320.142L102.97 316.306C103.003 315.871 102.658 315.5 102.222 315.5H96.9722C96.558 315.5 96.2222 315.836 96.2222 316.25C96.2222 316.664 96.558 317 96.9722 317H101.414L101.099 321.194Z" fill="#272F39"/>
    <path d="M22.0007 332.295C21.5539 331.29 21.8754 329.045 22.1257 328.67C22.3757 328.295 52.7517 325.92 52.7517 325.92C57.7932 325.545 67.1859 325.58 67.8767 328.295C69.6267 335.17 64.8754 335.17 60.8754 335.17C55.3754 335.17 54.7227 333.712 51.1267 334.17C49.2517 334.407 46.5014 335.67 33.8764 335.67C23.7509 335.67 23.0007 334.545 22.0007 332.295Z" fill="#C9D1DC"/>
    <path d="M53.3758 315.352C58.4758 315.252 60.1676 311.977 60.3758 310.352H63.0006C63.2506 310.727 64.0631 311.602 64.6256 314.227C65.3756 317.727 66.6256 318.352 67.3756 321.602C67.8948 323.852 68.0006 327.227 66.7506 329.102C64.8093 332.015 62.3756 331.727 58.2506 331.727C55.8756 331.727 51.8756 331.102 48.2506 332.102C43.1896 333.5 29.2508 334.227 25.7503 333.102C19.7858 331.185 21.6256 325.602 24.1253 323.477C28.5123 319.747 36.9868 320.005 39.1256 317.102C40.8753 314.727 41.8713 308.997 43.1256 307.602C45.3756 305.102 46.9041 307.305 46.5006 309.727C46.0008 312.727 47.0008 315.477 53.3758 315.352Z" fill="#3B434E"/>
    <mask id="mask1_6_3873" style="mask-type:luminance" maskUnits="userSpaceOnUse" x="21" y="306" width="47" height="28">
        <path d="M53.3758 315.352C58.4758 315.252 60.1676 311.977 60.3758 310.352H63.0006C63.2506 310.727 64.0631 311.602 64.6256 314.227C65.3756 317.727 66.6256 318.352 67.3756 321.602C67.8948 323.852 68.0006 327.227 66.7506 329.102C64.8093 332.015 62.3756 331.727 58.2506 331.727C55.8756 331.727 51.8756 331.102 48.2506 332.102C43.1896 333.5 29.2508 334.227 25.7503 333.102C19.7858 331.185 21.6256 325.602 24.1253 323.477C28.5123 319.747 36.9868 320.005 39.1256 317.102C40.8753 314.727 41.8713 308.997 43.1256 307.602C45.3756 305.102 46.9041 307.305 46.5006 309.727C46.0008 312.727 47.0008 315.477 53.3758 315.352Z" fill="white"/>
    </mask>
    <g mask="url(#mask1_6_3873)">
        <path d="M32.5278 323.75C34.2278 323.35 42.0696 319.25 45.7778 317.25C52.1528 319.125 56.9028 325.75 60.5278 332.375C60.4028 333.875 45.9933 335.34 44.4028 333.375C42.2778 330.75 38.4028 325.375 32.5278 323.75Z" fill="#32373F"/>
        <path d="M26.7765 327.395C24.823 327.395 24.3345 325.965 24.3345 325.25C24.193 327.477 24.2283 332.263 25.5025 333.573C27.095 335.213 40.1778 334.33 41.7705 333.573C43.363 332.815 37.0988 327.543 35.7185 328.55C34.3383 329.56 33.2533 330.548 31.5543 329.033C29.8555 327.52 29.2185 327.395 26.7765 327.395Z" fill="#32373F"/>
        <path d="M25.6525 326.625C25.5525 325.125 23.4442 324.212 23.1525 324.252L19.0275 324.502L19.5275 332.002L24.7775 335.002C25.7775 334.962 32.1525 333.875 28.1525 333.875C26.2775 333.875 25.9025 333.127 24.7775 332.002C23.6525 330.877 25.7775 328.5 25.6525 326.625Z" fill="#C8D1DC"/>
        <path d="M45 310.227C45.3 308.427 45.875 307.31 46.125 306.977L45.6253 305.727H42.75C41.4165 306.895 39.175 309.752 40.875 311.852C43 314.477 44.625 312.477 45 310.227Z" fill="#C8D1DC"/>
    </g>
    <path d="M41.4007 321.194C41.4416 321.739 40.9052 322.143 40.3928 321.953L35.4486 320.126L34.635 323.788C34.5242 324.286 33.9585 324.531 33.5195 324.27L28.8945 321.52C28.5385 321.308 28.4215 320.848 28.6332 320.492C28.8449 320.136 29.3051 320.019 29.6611 320.23L33.3955 322.451L34.1707 318.962C34.2693 318.519 34.7366 318.264 35.1628 318.422L39.8176 320.142L39.5299 316.306C39.4973 315.871 39.8415 315.5 40.2778 315.5H45.5278C45.942 315.5 46.2778 315.836 46.2778 316.25C46.2778 316.664 45.942 317 45.5278 317H41.0862L41.4007 321.194Z" fill="#272F39"/>
    <path d="M47.9015 223.819C46.0882 206.423 47.0355 146.001 51.0152 120.687L58.3142 120.982C59.2262 155.325 57.695 209.269 57.2442 224.196C55.1082 227.167 48.9825 225.901 47.9015 223.819Z" fill="#D8DEE4"/>
    <path d="M81.9407 217.527C79.0032 200.363 76.9657 140.313 80.1502 114.941L92.8217 110.802C95.6142 144.846 97.2392 196.412 98.2837 216.657C96.0292 219.735 83.2662 219.53 81.9407 217.527Z" fill="#D8DEE4"/>
    <path d="M56.1785 226.82C52.9105 209.486 51.685 148.99 56.1785 123.5H66.3905C69.1137 157.826 71.625 211.865 71.625 226.82C68.7655 229.878 57.7767 228.859 56.1785 226.82Z" fill="#EAF0F5"/>
    <path d="M62.375 111.625C72.0475 113.152 86.5 107.375 91.5 100.375C93.5 101.625 95.625 107 95.625 111.625C95.625 116.25 82.375 129 64.502 126.25C58.8187 125.375 56.4575 122.25 56.125 118.625C55.7925 115 55.25 110.5 62.375 111.625Z" fill="#D8DEE4"/>
    <path d="M72.471 112.39C62.7197 113.285 50.093 105.458 48.1065 102.528C45.952 103.488 45.545 106.384 44.543 113.514C43.2902 122.427 62.0687 128.889 75.035 128.277C95.875 127.292 96.1465 114.581 94.777 110.855C93.4072 107.128 87.6885 110.994 72.471 112.39Z" fill="#EAF0F5"/>
    <path d="M48.25 146.75C43.4662 119.004 40.8565 113.685 37.9028 108.131C37.6898 107.731 37.1722 107.61 36.8035 107.874L28.25 114L15.75 129.811C18.75 136.311 25.75 135.311 25.75 150.311C25.75 157.826 17.3333 251.082 20 264.25C20 264.25 24.25 269.552 34.75 271C45.25 272.447 53.5 272.25 53.5 272.25L51.25 185.25C48.25 166.25 49.3708 153.251 48.25 146.75Z" fill="#4F5E46"/>
    <path d="M17.5873 182.475C15.3645 187.397 17.5527 193.19 22.475 195.412C25.7255 196.88 28.8199 196.859 32.1829 196.042C33.0912 195.821 33.9591 195.558 35.0846 195.182C35.2866 195.114 36.9801 194.538 37.466 194.379C40.0149 193.544 41.8232 193.169 43.7797 193.151C46.3192 193.128 49.0389 193.751 52.2334 195.299C57.0932 197.656 62.9429 195.626 65.2992 190.766C67.6554 185.907 64.4707 180.933 61.9878 177.901C60.6975 176.325 57.435 173.923 51.961 174C51.8299 174.002 43.2727 174.499 43.1421 174.5C38.8465 174.539 35.6693 174.386 31.3764 175.793C30.7605 175.994 28.9949 176.596 28.8922 176.63C28.6103 176.724 28.3733 176.801 28.1734 176.863C23.8815 176.114 19.4633 178.321 17.5873 182.475Z" fill="#EBBAAA"/>
    <path d="M2.00914 154.728C5.64787 144.175 13.5 129.5 25.3207 119.25L26.5707 159C28.6932 160.516 27.7533 167.191 32.4837 167.918C38.3965 168.828 42.4902 170.193 47.4935 175.196C42.4902 176.105 42.0352 186.567 44.7645 195.664C44.7645 198.165 41.353 200.439 37.9417 200.439L17.7012 203.851L2.00914 186.567C0.492995 180.35 -1.62961 165.28 2.00914 154.728Z" fill="#424B3C"/>
    <path d="M14 161L25.371 162.819L14 165.776V161Z" fill="#393F35"/>
    <path d="M18.25 169.845L26.4373 163.25L22.571 172.347L18.25 169.845Z" fill="#393F35"/>
    <path d="M53.1678 174H46.5728C41.342 174 39.75 180.595 39.75 183.779C39.75 191.512 40.0532 191.89 41.342 196.06C44.6775 196.136 48.1645 196.515 50.4388 194.695C48.8468 183.097 50.6663 177.866 53.1678 174Z" fill="#515E4A"/>
    <rect x="26.3438" y="60.3747" width="86.5" height="36.5145" rx="18.2572" transform="rotate(-0.495513 26.3438 60.3747)" fill="#2D2622"/>
    <path d="M33.1024 79.8694C41.167 79.8694 47.7047 73.6307 47.7047 65.9348C47.7047 58.2389 41.167 52.0001 33.1024 52.0001C25.0377 52.0001 18.5 58.2389 18.5 65.9348C18.5 73.6307 25.0377 79.8694 33.1024 79.8694Z" fill="#EFC8BD"/>
    <path d="M104.544 80.0144C112.608 80.0144 119.146 73.7756 119.146 66.0797C119.146 58.3838 112.608 52.1451 104.544 52.1451C96.4791 52.1451 89.9414 58.3838 89.9414 66.0797C89.9414 73.7756 96.4791 80.0144 104.544 80.0144Z" fill="#EFC8BD"/>
    <path d="M30.1265 38.7235C30.1265 18.3768 47.5632 1.88257 69.0722 1.88257C90.5815 1.88257 108.018 18.3768 108.018 38.7235L105.518 75.3665C102.377 99.1348 86.0325 112.207 69.0722 112.207C52.112 112.207 34.9297 96.3618 32.6265 75.3665L30.1265 38.7235Z" fill="#F6DDD6"/>
    <path d="M47.5 88C52.6086 88 56.75 83.8586 56.75 78.75C56.75 73.6414 52.6086 69.5 47.5 69.5C42.3914 69.5 38.25 73.6414 38.25 78.75C38.25 83.8586 42.3914 88 47.5 88Z" fill="#F2CACA" fill-opacity="0.36"/>
    <path d="M92.375 87.5C97.4146 87.5 101.5 83.3586 101.5 78.25C101.5 73.1414 97.4146 69 92.375 69C87.3354 69 83.25 73.1414 83.25 78.25C83.25 83.3586 87.3354 87.5 92.375 87.5Z" fill="#F2CACA" fill-opacity="0.36"/>
    <path d="M74.9124 86.5029C74.9246 86.4834 74.925 86.4826 74.9132 86.4982C74.8736 86.5507 74.819 86.616 74.7487 86.6914C74.5237 86.9333 74.2279 87.185 73.8549 87.427C72.7132 88.1675 71.1691 88.625 69.1253 88.625C67.0814 88.625 65.5373 88.1675 64.3956 87.427C64.0226 87.185 63.7268 86.9333 63.5018 86.6914C63.4316 86.616 63.3769 86.5507 63.3373 86.4982C63.3248 86.4818 63.326 86.4835 63.3402 86.5063C62.7914 85.6281 61.6346 85.3612 60.7565 85.91C59.8784 86.4588 59.6114 87.6156 60.1603 88.4938C60.28 88.6854 60.4759 88.9444 60.7565 89.2461C61.1858 89.7074 61.7162 90.1588 62.3549 90.5731C64.1038 91.7075 66.3566 92.375 69.1253 92.375C71.8939 92.375 74.1467 91.7075 75.8956 90.5731C76.5343 90.1588 77.0647 89.7074 77.494 89.2461C77.7746 88.9444 77.9705 88.6854 78.0902 88.4938C78.6391 87.6156 78.3721 86.4588 77.494 85.91C76.6163 85.3615 75.4603 85.6279 74.9111 86.5049L74.9124 86.5029Z" fill="#EC908B"/>
    <path d="M49.3355 52.4722C49.3875 52.4505 49.5083 52.404 49.6893 52.3408C50.0029 52.2311 50.3601 52.1205 50.7516 52.0169C51.8656 51.7223 53.0183 51.546 54.1337 51.546C55.2446 51.546 56.3592 51.7208 57.4146 52.0125C57.7841 52.1147 58.1178 52.2235 58.4083 52.3312C58.5741 52.3927 58.6827 52.4373 58.7266 52.4569C59.4829 52.795 60.37 52.456 60.7081 51.6996C61.0462 50.9433 60.7071 50.0562 59.9508 49.7181C59.8491 49.6726 59.6803 49.6033 59.4511 49.5183C59.0832 49.3819 58.6687 49.2467 58.214 49.121C56.9147 48.7618 55.5384 48.546 54.1337 48.546C52.7334 48.546 51.3315 48.7604 49.9845 49.1166C49.5147 49.2409 49.0838 49.3744 48.6992 49.5088C48.4612 49.592 48.2861 49.6594 48.1818 49.7029C47.4171 50.0215 47.0555 50.8996 47.374 51.6644C47.6926 52.4291 48.5708 52.7908 49.3355 52.4722Z" fill="#513F32"/>
    <path d="M78.8355 52.4722C78.8875 52.4505 79.0083 52.404 79.1893 52.3408C79.5029 52.2311 79.8601 52.1205 80.2516 52.0169C81.3656 51.7223 82.5183 51.546 83.6337 51.546C84.7446 51.546 85.8592 51.7208 86.9146 52.0125C87.2841 52.1147 87.6178 52.2235 87.9083 52.3312C88.0741 52.3927 88.1827 52.4373 88.2266 52.4569C88.9829 52.795 89.87 52.456 90.2081 51.6996C90.5462 50.9433 90.2071 50.0562 89.4508 49.7181C89.3491 49.6726 89.1803 49.6033 88.9511 49.5183C88.5832 49.3819 88.1687 49.2467 87.714 49.121C86.4147 48.7618 85.0384 48.546 83.6337 48.546C82.2334 48.546 80.8315 48.7604 79.4845 49.1166C79.0147 49.2409 78.5838 49.3744 78.1992 49.5088C77.9612 49.592 77.7861 49.6594 77.6818 49.7029C76.9171 50.0215 76.5555 50.8996 76.874 51.6644C77.1926 52.4291 78.0708 52.7908 78.8355 52.4722Z" fill="#513F32"/>
    <path d="M49.1089 61.8756L55.8429 60.8111C56.5248 60.7034 56.9902 60.0632 56.8824 59.3813C56.7746 58.6994 56.1345 58.234 55.4526 58.3418L48.7186 59.4063C48.0367 59.5141 47.5713 60.1543 47.6791 60.8362C47.7869 61.518 48.427 61.9834 49.1089 61.8756Z" fill="black"/>
    <path d="M81.0852 60.1589L87.8192 61.2237C88.5011 61.3315 89.1413 60.8661 89.2491 60.1842C89.3569 59.5023 88.8916 58.8622 88.2097 58.7543L81.4757 57.6896C80.7938 57.5818 80.1536 58.0472 80.0458 58.729C79.938 59.4109 80.4034 60.0511 81.0852 60.1589Z" fill="black"/>
    <path d="M51.3723 59.5761L51.3721 66.7706C51.372 68.4275 52.7151 69.7707 54.372 69.7707C56.0288 69.7708 57.372 68.4277 57.3721 66.7708L57.3723 59.5763C57.3724 57.9195 56.0293 56.5763 54.3724 56.5762C52.7156 56.5762 51.3724 57.9193 51.3723 59.5761Z" fill="black"/>
    <path d="M79.8291 58.924V66.1188C79.8291 67.7756 81.1722 69.1188 82.8291 69.1188C84.486 69.1188 85.8291 67.7756 85.8291 66.1188V58.924C85.8291 57.2672 84.486 55.924 82.8291 55.924C81.1722 55.924 79.8291 57.2672 79.8291 58.924Z" fill="black"/>
    <path d="M66.2566 68.8171C66.1739 69.4199 66.0806 69.826 65.6378 71.6046C65.5305 72.0354 65.4544 72.3481 65.3813 72.6617C64.8413 74.9814 64.6745 76.5667 65.0268 78.0358C65.5788 80.3375 67.406 81.6638 70.0997 81.6638V77.4138C69.8182 77.4138 69.5976 77.3874 69.4349 77.3435C69.3369 77.3171 69.2807 77.2909 69.251 77.2694C69.2437 77.2641 69.2413 77.2615 69.2333 77.2484C69.2096 77.2098 69.1834 77.1439 69.1596 77.0447C69.0097 76.4196 69.1248 75.3255 69.5206 73.6254C69.5878 73.3371 69.6594 73.043 69.7618 72.6314C70.2534 70.6571 70.3541 70.219 70.4672 69.3949L66.2566 68.8171Z" fill="#EBBAAA"/>
    <path d="M33 62.25C34.75 52.75 39.2467 20.5 57.4967 20.5C60.674 20.5 66.8717 8.375 57.4967 6C36.9967 6 28 15.5 28 35.5C28 51.5 31.25 71.75 33 62.25Z" fill="#2D2622"/>
    <path d="M104.963 60.75C103.213 51.25 98.7162 19 80.4662 19C77.289 19 65.1252 6.875 74.5002 4.5C95.0002 4.5 104.963 11.5 109.963 34C113.434 49.619 106.713 70.25 104.963 60.75Z" fill="#2D2622"/>
    <path d="M35.1275 37.4248C34.4262 31.6765 35.8615 22.5001 41.3455 17.7501C43.969 26.522 39.8847 33.9295 41.3455 38.2248C45.2692 49.7625 35.9872 53.7228 35.2492 59.0188C33.865 54.3913 34.0232 51.7885 35.8615 46.7375C38.3175 39.9898 35.9855 44.4578 35.1275 37.4248Z" fill="#2D2622"/>
    <path d="M53.1479 22.3112C47.9462 24.6974 46.5647 15.8446 46.3979 12.1161C48.6479 -3.43875 85.1479 -3.43865 92.3979 8.81133C92.3979 15.4891 97.5852 26.726 88.8979 22.3112C73.6479 14.5612 59.6502 19.3285 53.1479 22.3112Z" fill="#2D2622"/>
    <path d="M35.2944 33.0635C34.0359 24.9131 36.7804 18.3121 39.2277 15.5529C39.2277 15.5529 42.2022 12.0613 47.5324 12.0613C52.8627 12.0613 56.3979 13.2631 56.3979 13.2631C56.0484 16.6591 47.0939 24.7495 52.8627 37.1663C58.2377 48.7358 38.7907 63.8398 32.1479 66.8113C33.1967 64.901 41.0632 54.6448 41.0632 47.072C41.0632 41.3413 36.8677 43.2515 35.2944 33.0635Z" fill="#60432F"/>
    <path d="M101.148 33.0612C102.355 25.432 99.1479 20.3113 93.1479 16.5613C87.1479 12.8113 78.2729 15.0613 78.2729 15.0613C78.6082 18.2402 88.0804 23.5685 89.8979 36.3112C91.1102 44.8112 94.2437 47.9362 102.398 62.4362C102.398 58.4362 102.398 54.8112 104.023 50.3112C105.845 45.2657 99.6395 42.598 101.148 33.0612Z" fill="#60432F"/>
    <path d="M55.0931 13.8431C51.1479 19.1974 51.285 29.6654 55.7279 36.1278C56.0408 36.5829 56.6634 36.6982 57.1185 36.3853C57.5736 36.0724 57.6889 35.4498 57.376 34.9947C53.4031 29.216 53.2781 19.6778 56.7032 15.0295C57.0309 14.5849 56.936 13.9588 56.4914 13.6312C56.0468 13.3036 55.4207 13.3985 55.0931 13.8431Z" fill="#47372B"/>
    <path d="M77.2515 16.7292C79.8626 17.8578 82.0976 20.8244 83.728 24.9884C85.0873 28.4601 85.8982 32.5341 85.8982 35.3113C85.8982 35.8636 86.3459 36.3113 86.8982 36.3113C87.4505 36.3113 87.8982 35.8636 87.8982 35.3113C87.8982 32.2775 87.0383 27.9573 85.5903 24.2592C83.7843 19.6465 81.2454 16.2767 78.045 14.8934C77.538 14.6742 76.9494 14.9076 76.7303 15.4145C76.5112 15.9215 76.7445 16.5101 77.2515 16.7292Z" fill="#47372B"/>
</svg>
