<svg width="140" height="333" viewBox="0 0 140 333" fill="none" xmlns="http://www.w3.org/2000/svg">
    <path d="M83.876 284V321.5C83.876 325.228 86.8981 328.25 90.626 328.25C94.3539 328.25 97.376 325.228 97.376 321.5V284C97.376 280.272 94.3539 277.25 90.626 277.25C86.8981 277.25 83.876 280.272 83.876 284Z" fill="#EBBAAA"/>
    <path d="M57.876 284V321.5C57.876 325.228 60.8981 328.25 64.626 328.25C68.3539 328.25 71.376 325.228 71.376 321.5V284C71.376 280.272 68.3539 277.25 64.626 277.25C60.8981 277.25 57.876 280.272 57.876 284Z" fill="#EBBAAA"/>
    <path d="M32.126 297.625L44.554 190.5H58.4735C62.4505 221.536 59.1695 301.43 53.9995 302.63C48.8295 303.832 33.7832 300.295 32.126 297.625Z" fill="#482625"/>
    <path d="M123.126 297.625L110.698 190.5H96.7783C92.8013 221.536 96.0823 301.43 101.252 302.63C106.423 303.832 121.469 300.295 123.126 297.625Z" fill="#482625"/>
    <path d="M48.3667 308.138C51.5979 310.64 76.9729 313.31 78.6302 310.64V258.58L74.4657 196.757H53.7999C49.8229 227.794 45.1354 305.635 48.3667 308.138Z" fill="#653B3A"/>
    <path d="M75.8727 307.885C82.087 309.888 90.041 309.638 107.44 307.885C107.44 307.885 104.186 282.607 102.717 254.072C101.249 225.54 99.4862 190.75 99.4862 190.75L73.6357 194.254C75.8727 228.794 77.3642 258.077 75.8727 307.885Z" fill="#522F2E"/>
    <path d="M28.5422 331.755C28.4927 326.083 29.2692 322.63 34.2222 320.313C39.1752 317.995 43.8409 313.538 52.4099 309.715C52.4099 309.715 53.5379 309.503 55.3739 310.493C56.9407 311.335 58.9529 313.405 61.9854 313.378C65.2782 313.35 68.2124 312.655 70.0354 311.703C70.8232 309.555 72.5704 309.54 72.5704 309.54C72.5704 309.54 75.0307 314.203 75.0714 318.885C75.1124 323.57 75.1079 331.35 75.1079 331.35L28.5422 331.755Z" fill="#DCE1E6"/>
    <path d="M47.1355 311.655C46.6133 311.426 46.059 311.906 46.2112 312.456L46.9515 315.129L43.979 314.173C43.5422 314.033 43.0952 314.359 43.0951 314.817L43.095 317.566L40.8671 316.364C40.4163 316.121 39.8691 316.448 39.8691 316.96V320.305C39.8691 320.679 40.1721 320.982 40.5459 320.982C40.9196 320.982 41.2226 320.679 41.2226 320.305V318.094L43.4503 319.296C43.9012 319.539 44.4483 319.212 44.4483 318.7L44.4485 315.746L47.7312 316.802C48.2437 316.967 48.7342 316.496 48.5905 315.977L47.8958 313.468L51.1609 314.902C51.6081 315.099 52.1098 314.771 52.1098 314.283L52.1092 314.028L52.1067 313.755C52.0959 312.967 52.0548 312.434 51.9385 311.806C51.8436 311.295 51.7052 310.824 51.5136 310.394C51.3614 310.053 50.9613 309.9 50.6199 310.052C50.2786 310.204 50.1253 310.604 50.2776 310.946C50.4225 311.271 50.5312 311.64 50.6077 312.053C50.6718 312.399 50.7097 312.719 50.7312 313.095L50.7385 313.238L47.1355 311.655Z" fill="white"/>
    <path d="M73.6106 312.007C72.6541 313.3 69.2049 314.075 67.9071 314.262C66.6096 314.452 65.2191 314.287 65.7754 316.425C66.1689 317.935 69.9501 317.325 71.4286 317.312C72.6306 317.3 74.3164 320.917 74.9441 319.69C74.9441 315.487 74.1481 313.212 73.6106 312.007Z" fill="#3F3232" fill-opacity="0.5"/>
    <path d="M30.4163 320.747C31.9361 320.2 33.5453 319.782 36.6308 319.087L35.3196 322.845L35.3568 327.127L26.5748 327.205C26.2163 327.207 25.5758 326.732 25.8816 324.802C26.2638 322.39 28.2571 321.527 30.4163 320.747Z" fill="#EAF4FB"/>
    <path d="M41.1245 321.982L45.2155 329.747L49.0472 327.728L44.9562 319.963L41.1245 321.982Z" fill="#3F3232"/>
    <path d="M46.7598 319.037L51.662 328.367L55.496 326.353L50.5937 317.023L46.7598 319.037Z" fill="#3F3232"/>
    <path d="M52.2725 315.777L59.0505 328.925L62.9 326.94L56.122 313.792L52.2725 315.777Z" fill="#3F3232"/>
    <path d="M75.2541 330.605L75.0001 326.112L35.6221 326.725L25.8036 326.007L25.5058 329.437C25.4011 330.642 26.3063 331.7 27.5146 331.785L35.6713 332.345L74.1898 331.75C74.8053 331.74 75.2888 331.22 75.2541 330.605Z" fill="#C7CBCF"/>
    <path d="M126.709 331.82C126.759 326.145 125.982 322.695 121.029 320.375C116.076 318.058 111.411 313.6 102.842 309.778C102.842 309.778 101.714 309.568 99.8777 310.555C98.311 311.4 96.2987 313.468 93.2662 313.443C89.9734 313.413 87.0392 312.718 85.2162 311.765C84.4285 309.618 82.6812 309.603 82.6812 309.603C82.6812 309.603 80.221 314.265 80.1802 318.95C80.1392 323.633 80.1437 331.413 80.1437 331.413L126.709 331.82Z" fill="#DCE1E6"/>
    <path d="M106.661 316.039C106.517 316.558 107.007 317.029 107.52 316.864L110.803 315.81L110.803 318.763C110.803 319.275 111.35 319.601 111.801 319.358L114.029 318.156V320.37C114.029 320.744 114.332 321.047 114.706 321.047C115.079 321.047 115.382 320.744 115.382 320.37V317.023C115.382 316.51 114.835 316.184 114.384 316.427L112.156 317.629L112.156 314.882C112.156 314.424 111.709 314.098 111.273 314.238L108.3 315.193L109.04 312.521C109.193 311.971 108.638 311.491 108.116 311.72L104.513 313.303C104.533 312.864 104.571 312.508 104.643 312.12C104.72 311.705 104.829 311.334 104.974 311.008C105.126 310.667 104.973 310.267 104.631 310.115C104.29 309.962 103.89 310.116 103.738 310.457C103.546 310.888 103.407 311.36 103.312 311.874C103.172 312.631 103.142 313.251 103.142 314.348C103.142 314.836 103.643 315.164 104.09 314.967L107.355 313.533L106.661 316.039Z" fill="white"/>
    <path d="M81.6411 312.07C82.5976 313.362 86.0469 314.137 87.3446 314.327C88.6421 314.517 90.0326 314.35 89.4764 316.487C89.0829 317.997 85.3016 317.387 83.8231 317.375C82.6211 317.365 80.9354 320.98 80.3076 319.752C80.3076 315.55 81.1036 313.275 81.6411 312.07Z" fill="#3F3232" fill-opacity="0.5"/>
    <path d="M124.835 320.81C123.315 320.262 121.706 319.847 118.621 319.15L119.932 322.91L119.895 327.192L128.677 327.267C129.035 327.272 129.676 326.795 129.37 324.865C128.988 322.452 126.994 321.59 124.835 320.81Z" fill="#EAF4FB"/>
    <path d="M110.295 320.025L106.204 327.79L110.036 329.809L114.127 322.044L110.295 320.025Z" fill="#3F3232"/>
    <path d="M104.658 317.088L99.7554 326.418L103.589 328.432L108.492 319.102L104.658 317.088Z" fill="#3F3232"/>
    <path d="M99.1291 313.855L92.3511 327.005L96.2007 328.99L102.979 315.84L99.1291 313.855Z" fill="#3F3232"/>
    <path d="M79.9974 330.67L80.2514 326.177L119.629 326.787L129.448 326.07L129.746 329.5C129.85 330.707 128.945 331.765 127.737 331.847L119.58 332.41L81.0616 331.812C80.4461 331.802 79.9626 331.282 79.9974 330.67Z" fill="#C7CBCF"/>
    <path fill-rule="evenodd" clip-rule="evenodd" d="M119.126 82C119.126 82 109.628 111.844 119.126 138H36.126V82H119.126Z" fill="#3F3232"/>
    <path d="M101 144.842C105.648 153.081 109.405 165.83 111.361 179.266C113.084 191.109 113.067 201.819 111.724 205.723L111.683 205.839C109.937 210.64 112.414 215.947 117.215 217.693C122.016 219.439 127.323 216.962 129.069 212.161C131.773 204.725 131.817 191.37 129.668 176.602C127.41 161.093 123.038 146.255 117.113 135.752C114.603 131.303 108.962 129.731 104.512 132.24C100.063 134.75 98.4903 140.392 101 144.842Z" fill="#EBBAAA"/>
    <path d="M96.876 152.75C88.376 175.25 36.876 185.75 15.876 143.75" stroke="#96CCE0" stroke-width="25" stroke-linecap="round" stroke-linejoin="bevel"/>
    <path d="M10.2023 122.24L7.23815 114.746C6.47641 112.82 4.29766 111.876 2.37176 112.638C0.44586 113.4 -0.497879 115.578 0.263856 117.504L6.88886 134.254L13.9063 134.14L19.9063 117.39C20.6048 115.44 19.5904 113.293 17.6406 112.595C15.6908 111.896 13.5441 112.911 12.8457 114.86L10.2023 122.24Z" fill="#F6DDD6"/>
    <path d="M11.501 141.5C16.6786 141.5 20.876 138.142 20.876 134C20.876 129.858 16.6786 126.5 11.501 126.5C6.32331 126.5 2.12598 129.858 2.12598 134C2.12598 138.142 6.32331 141.5 11.501 141.5Z" fill="#F6DDD6"/>
    <rect x="78.126" y="129.5" width="42.5" height="80" rx="21.25" transform="rotate(-15 78.126 129.5)" fill="#96CCE0"/>
    <path d="M123.001 164.25L104.876 169.75L124.626 167.875L123.001 164.25Z" fill="#7EBFD7"/>
    <path d="M119.626 172.25L105.626 171.5L117.751 175.375L119.626 172.25Z" fill="#7EBFD7"/>
    <rect x="36.376" y="118.5" width="42.5" height="58.75" rx="21.25" transform="rotate(15 36.376 118.5)" fill="#96CCE0"/>
    <path d="M49.7251 146.654L31.2358 142.541L49.3598 150.61L49.7251 146.654Z" fill="#7EBFD7"/>
    <path d="M42.8553 151.964L31.0293 144.433L39.687 153.765L42.8553 151.964Z" fill="#7EBFD7"/>
    <path d="M134.626 204.75C136.226 200.15 136.626 184 134.626 176.5L106.126 175.25C109.176 184.75 109.676 197.25 111.926 209.5L111.964 209.502C117.251 209.754 132.631 210.486 134.626 204.75Z" fill="#96CCE0"/>
    <path d="M41.9182 135.507C40.9264 128.707 45.6099 122.382 52.4032 121.346L77.6259 117.5L102.849 121.346C109.642 122.382 114.325 128.707 113.334 135.507L110.126 157.5L114.14 191.624C114.665 196.082 111.181 200 106.692 200H48.5599C44.0704 200 40.5869 196.082 41.1114 191.624L45.1259 157.5L41.9182 135.507Z" fill="#BEE1EE"/>
    <path d="M68.376 118.978C68.376 113.743 72.6415 109.5 77.876 109.5C83.1105 109.5 87.376 113.743 87.376 118.978V137.044C87.376 138.969 86.79 140.848 85.696 142.432L77.876 153.75L70.056 142.432C68.962 140.848 68.376 138.969 68.376 137.044V118.978Z" fill="#EBBAAA"/>
    <path d="M77.626 144.5C87.291 144.5 95.126 136.665 95.126 127C95.126 117.335 87.291 109.5 77.626 109.5C67.961 109.5 60.126 117.335 60.126 127C60.126 136.665 67.961 144.5 77.626 144.5Z" fill="#BEE1EE"/>
    <rect x="67.876" y="88.5" width="19" height="48.5" rx="9.47775" fill="#EBBAAA"/>
    <path d="M115.126 83.75C122.029 83.75 127.626 78.1535 127.626 71.25C127.626 64.3465 122.029 58.75 115.126 58.75C108.222 58.75 102.626 64.3465 102.626 71.25C102.626 78.1535 108.222 83.75 115.126 83.75Z" fill="#E4C1C1"/>
    <rect x="38.876" y="8.25" width="77.5" height="110" rx="38.75" fill="#F6DDD6"/>
    <path d="M79.9275 0.899296C88.91 -3.2562 111.853 10.9202 120.137 27.9322C125.883 39.7323 130.427 53.7897 123.412 61.8797C123.412 61.8797 118.977 60.925 116.376 59.375C107.126 53.8625 109.09 44.7497 99.59 36.7497C90.09 28.7497 81.9925 26.4447 79.51 24.6823C77.0275 22.9173 76.735 7.6998 79.9275 0.899296Z" fill="#271E1E"/>
    <path d="M52.626 89C56.7681 89 60.126 85.6421 60.126 81.5C60.126 77.3579 56.7681 74 52.626 74C48.4838 74 45.126 77.3579 45.126 81.5C45.126 85.6421 48.4838 89 52.626 89Z" fill="#F2CACA"/>
    <path d="M52.2172 53.145C55.2922 39.5525 70.6022 26.545 77.8497 24.195C80.8397 23.2275 82.8397 0 77.8497 0C65.2197 0 45.1847 12.775 38.0347 24.195C26.2947 42.95 22.1423 63.975 28.3922 111.298C29.9197 122.878 26.1897 127.912 23.5898 130.68C30.7597 138.082 57.6297 140.75 57.6297 140.75C57.6297 140.75 62.1522 135.095 59.0747 123.882C53.5122 103.635 49.1447 66.74 52.2172 53.145Z" fill="#3F3232"/>
    <path d="M40.6153 27.7685L40.5096 27.9566L40.3996 28.1578L40.3042 28.3354C40.2547 28.4282 40.2026 28.5269 40.1479 28.6315L40.0011 28.915L39.8502 29.2113C39.5698 29.7665 39.2692 30.3866 38.9525 31.0697C37.7228 33.7221 36.4948 36.7885 35.3495 40.2323C31.6464 51.3673 29.6384 63.7737 30.2156 77.0489C30.2426 77.6696 30.7677 78.1509 31.3884 78.1239C32.0091 78.0969 32.4905 77.5719 32.4635 76.9511C31.899 63.9681 33.8634 51.8308 37.4846 40.9423C38.6022 37.5815 39.7988 34.5936 40.9938 32.0161L41.1588 31.6627C41.5128 30.9107 41.8427 30.2465 42.1422 29.6734L42.2886 29.3958L42.4191 29.1538L42.5638 28.8935C42.8745 28.3554 42.6901 27.6674 42.152 27.3567C41.6139 27.0461 40.9259 27.2304 40.6153 27.7685Z" fill="#615252"/>
    <path d="M35.2845 60.0892L35.2591 60.357L35.2136 60.8764L35.1938 61.1158C35.1311 61.886 35.0685 62.7667 35.0095 63.748L34.997 63.9598C34.3884 74.3316 34.6366 85.7438 36.3623 96.5184C36.5221 97.5166 36.6941 98.5011 36.8783 99.4712C36.9942 100.082 37.5831 100.482 38.1935 100.366C38.8039 100.251 39.2047 99.6617 39.0888 99.0513C38.9086 98.1028 38.7404 97.1396 38.5839 96.1625C36.8882 85.5747 36.6433 74.3143 37.2431 64.0916L37.2805 63.4758L37.3231 62.8244C37.3517 62.4018 37.3808 62.0029 37.4101 61.6285L37.4557 61.0654L37.5231 60.3153C37.5855 59.6971 37.135 59.1453 36.5168 59.0829C35.8986 59.0205 35.3469 59.471 35.2845 60.0892Z" fill="#615252"/>
    <path d="M56.376 65.25H63.876C64.5663 65.25 65.126 64.6904 65.126 64C65.126 63.3096 64.5663 62.75 63.876 62.75H56.376C55.6856 62.75 55.126 63.3096 55.126 64C55.126 64.6904 55.6856 65.25 56.376 65.25Z" fill="black"/>
    <path d="M91.376 65.25H98.876C99.5663 65.25 100.126 64.6904 100.126 64C100.126 63.3096 99.5663 62.75 98.876 62.75H91.376C90.6856 62.75 90.126 63.3096 90.126 64C90.126 64.6904 90.6856 65.25 91.376 65.25Z" fill="black"/>
    <path d="M89.376 63.75V71C89.376 72.6569 90.7191 74 92.376 74C94.0328 74 95.376 72.6569 95.376 71V63.75C95.376 62.0931 94.0328 60.75 92.376 60.75C90.7191 60.75 89.376 62.0931 89.376 63.75Z" fill="black"/>
    <path d="M59.877 63.75V71C59.877 72.6569 61.2201 74 62.877 74C64.5338 74 65.877 72.6569 65.877 71V63.75C65.877 62.0931 64.5338 60.75 62.877 60.75C61.2201 60.75 59.877 62.0931 59.877 63.75Z" fill="black"/>
    <path d="M87.0472 54.498L101.297 55.248C102.124 55.2915 102.83 54.6562 102.874 53.8289C102.917 53.0016 102.282 52.2957 101.455 52.2521L87.2049 51.5021C86.3776 51.4586 85.6716 52.0939 85.6281 52.9212C85.5845 53.7485 86.2199 54.4544 87.0472 54.498Z" fill="#271E1E"/>
    <path d="M68.0472 51.5021L53.7972 52.2521C52.9699 52.2957 52.3345 53.0016 52.3781 53.8289C52.4216 54.6562 53.1276 55.2915 53.9549 55.248L68.2049 54.498C69.0321 54.4544 69.6675 53.7485 69.6239 52.9212C69.5804 52.0939 68.8745 51.4586 68.0472 51.5021Z" fill="#271E1E"/>
    <path d="M102.626 89C106.768 89 110.126 85.6421 110.126 81.5C110.126 77.3579 106.768 74 102.626 74C98.4838 74 95.126 77.3579 95.126 81.5C95.126 85.6421 98.4838 89 102.626 89Z" fill="#F2CACA"/>
    <path d="M75.8579 68.8213C74.2188 71.2799 73.001 74.7812 73.001 77.6563C73.001 81.8247 75.4902 84.625 80.126 84.625V80.375C77.9562 80.375 77.251 79.5816 77.251 77.6563C77.251 75.6876 78.1922 72.9815 79.3941 71.1788L75.8579 68.8213Z" fill="#EBBAAA"/>
    <path fill-rule="evenodd" clip-rule="evenodd" d="M63.876 87.0049V91.9549C63.876 99.5749 70.0332 105.75 77.6257 105.75C85.2205 105.75 91.3752 99.5749 91.3752 91.9549V87.0049H63.876Z" fill="#393939"/>
    <mask id="mask0_6_1782" style="mask-type:luminance" maskUnits="userSpaceOnUse" x="63" y="87" width="29" height="19">
        <path fill-rule="evenodd" clip-rule="evenodd" d="M63.8985 87C63.8835 87.2553 63.876 87.5128 63.876 87.7703V92.5918C63.876 99.86 70.0332 105.75 77.6257 105.75C85.2205 105.75 91.3752 99.86 91.3752 92.5918V87.7703C91.3752 87.5128 91.3677 87.2553 91.3527 87H63.8985Z" fill="white"/>
    </mask>
    <g mask="url(#mask0_6_1782)">
        <path d="M77.6255 110.173C82.205 110.173 85.9175 108.146 85.9175 105.645C85.9175 103.144 82.205 101.117 77.6255 101.117C73.046 101.117 69.3335 103.144 69.3335 105.645C69.3335 108.146 73.046 110.173 77.6255 110.173Z" fill="#FF6C6C"/>
    </g>
    <rect x="63.876" y="87.0049" width="27.5" height="5.68665" fill="white"/>
</svg>
